<svg xmlns="http://www.w3.org/2000/svg">
<metadata>
Created by FontPrep 20130207 at Tue Aug  1 09:14:19 2017
 By Wolfgang Meier
Copyright 2012 Dalton Maag Ltd. Modification of this file requires prior written permission from Dalton Maag Ltd.
</metadata>
<defs>
<font id="a2f73c03267797e48ace4107606aabe7" horiz-adv-x="1024">
  <font-face font-family="LexiaFontes-Italic" font-weight="400" font-style="italic" font-stretch="normal" units-per-em="2048" panose-1="2 6 5 3 4 2 2 2 2 3" ascent="1638" descent="-410" x-height="1038" cap-height="1493" bbox="-1227 -446 2288 2452" underline-thickness="102" underline-position="-102" slope="-11.4" unicode-range="U+0008-FB04"/>
<missing-glyph horiz-adv-x="1146" d="M236 111h675v1212h-675v-1212zM102 1434h942v-1434h-942v1434z"/>
    <glyph glyph-name="fi" unicode="fi" horiz-adv-x="1159" d="M215 926v16q0 67 27 96h166l22 131q35 221 182 327q100 72 250 74q150 1 258 -59l-30 -137q-42 28 -141 46q-171 32 -260 -47q-72 -64 -99 -236l-17 -99h592l-186 -919h133q2 -6 2 -45t-27 -74h-299l185 909h-422l-152 -901q-53 -310 -236 -361q-145 -40 -259 17l33 127 q40 -25 114 -26t116 53t64 184l154 907h-168q-2 9 -2 17z"/>
    <glyph glyph-name="fl" unicode="fl" horiz-adv-x="1157" d="M215 926v16q0 67 27 96h166l16 109q33 231 166 337q104 85 254 86q148 1 244 -42t157 -90l-266 -1319h141q2 -6 2 -45t-26 -74h-308l279 1376q-87 59 -201 61q-114 1 -178 -61t-92 -217l-23 -121h195q2 -8 2 -16v-16q0 -65 -27 -97h-192l-152 -901q-53 -310 -236 -361 q-145 -40 -259 17l33 127q40 -25 114 -26t116 53t64 184l154 907h-168q-2 9 -2 17z"/>
    <glyph glyph-name="f_f" unicode="ff" horiz-adv-x="1214" d="M851 1438q-95 0 -163 -65t-96 -232l-19 -103h443l20 131q18 111 60 201q-106 68 -245 68zM215 926v16q0 67 27 96h166l22 133q34 214 161 313q107 85 270 86t319 -85q87 84 235 86q90 0 166 -37l-35 -137q-114 55 -198 21q-103 -36 -138 -216l-28 -164h194q2 -8 2 -16 v-16q0 -63 -26 -97h-193l-151 -901q-53 -310 -237 -361q-145 -40 -259 17l33 127q40 -25 114 -26q75 -1 117 53t64 184l153 907h-442l-152 -901q-53 -310 -236 -361q-145 -40 -259 17l33 127q40 -25 114 -26t116 53t64 184l154 907h-168q-2 9 -2 17z"/>
    <glyph glyph-name="f_f_i" unicode="ffi" horiz-adv-x="1767" d="M1104 1366q-115 69 -232 71q-116 1 -184 -64t-96 -232l-19 -103h443l22 131q21 121 66 197zM215 926v16q0 67 27 96h166l22 133q34 214 161 313q107 85 275 86t328 -93q109 91 267 93q157 1 268 -59l-31 -137q-43 28 -145 47q-172 30 -250 -42t-105 -242l-16 -99h592 l-187 -919h133q2 -6 2 -45t-26 -74h-299l184 909h-422l-151 -901q-53 -310 -237 -361q-145 -40 -259 17l33 127q40 -25 114 -26q75 -1 117 53t64 184l153 907h-442l-152 -901q-53 -310 -236 -361q-145 -40 -259 17l33 127q40 -25 114 -26t116 53t64 184l154 907h-168 q-2 9 -2 17z"/>
    <glyph glyph-name="f_f_l" unicode="ffl" horiz-adv-x="1765" d="M868 1438q-112 0 -180 -65t-96 -232l-19 -103h443l16 109q23 139 70 219q-24 19 -93 46q-68 26 -141 26zM215 926v16q0 67 27 96h166l22 133q34 214 161 313q107 85 270 86q164 1 329 -91q104 90 258 91t249 -42t156 -90l-266 -1319h142q2 -6 2 -45t-27 -74h-307 l278 1376q-87 60 -201 61t-178 -61t-92 -217l-22 -121h194q2 -8 2 -16v-16q0 -63 -26 -97h-193l-151 -901q-53 -310 -237 -361q-145 -40 -259 17l33 127q40 -25 114 -26q75 -1 117 53t64 184l153 907h-442l-152 -901q-53 -310 -236 -361q-145 -40 -259 17l33 127 q40 -25 114 -26t116 53t64 184l154 907h-168q-2 9 -2 17z"/>
    <glyph glyph-name=".notdef" horiz-adv-x="1146" d="M236 111h675v1212h-675v-1212zM102 1434h942v-1434h-942v1434z"/>
    <glyph glyph-name=".null" horiz-adv-x="0"/>
    <glyph glyph-name=".null" horiz-adv-x="0"/>
    <glyph glyph-name=".null" horiz-adv-x="0"/>
    <glyph glyph-name="nonmarkingreturn" unicode="&#x9;" horiz-adv-x="524"/>
    <glyph glyph-name="nonmarkingreturn" unicode="&#xD;" horiz-adv-x="524"/>
    <glyph glyph-name="space" unicode=" " horiz-adv-x="524"/>
    <glyph glyph-name="exclam" unicode="!" horiz-adv-x="550" d="M422 116q0 -56 -38 -100t-88 -45q-50 0 -89 32t-39 93q0 62 41 104t93 42t86 -35t34 -91zM500 1493h217l-285 -1116h-143z"/>
    <glyph glyph-name="quotedbl" unicode="&#34;" horiz-adv-x="907" d="M494 1493h200l-178 -518h-113zM850 1493h201l-179 -518h-112z"/>
    <glyph glyph-name="numbersign" unicode="#" horiz-adv-x="1177" d="M791 573l94 345h-221l-93 -345h220zM391 457h-231l30 116h232l94 345h-231l30 116h232l125 459h147l-125 -459h221l127 459h148l-125 -459h231l-30 -116h-232l-96 -345h233l-30 -116h-230l-123 -457h-147l121 457h-223l-121 -457h-148z"/>
    <glyph glyph-name="dollar" unicode="$" horiz-adv-x="1110" d="M938 345q0 101 -41 157t-147 92l-41 14l-103 -510q160 0 246 73t86 174zM721 1268q-147 0 -226 -75t-79 -185q0 -75 34 -115q34 -41 142 -80l53 -18l94 473h-18zM1022 954q6 30 6 93t-31 104q-63 83 -157 102l-99 -491l74 -25q164 -55 231 -139q66 -84 66 -190 q-1 -199 -130 -320t-351 -121h-26q-13 0 -25 2l-39 -198h-103l41 209q-129 20 -192 69t-86 98l-31 -147q-29 -10 -64 -10t-69 10l88 442q74 25 135 -2q-6 -50 -6 -80q0 -80 62 -156t190 -98l108 535l-79 27q-152 49 -216 125q-63 76 -63 204q0 63 26 135t82 129 q129 134 375 134h27l29 145h102l-33 -158q165 -39 217 -149l27 131q41 10 73 10t62 -10l-84 -412q-41 -10 -63 -10t-74 12z"/>
    <glyph glyph-name="percent" unicode="%" horiz-adv-x="1765" d="M780 1178q-60 60 -146 59q-88 0 -148 -60q-60 -59 -60 -151t60 -148t149 -55q88 0 146 60q57 60 58 148q1 87 -59 147zM394 1271q97 97 236 97t240 -98t101 -237t-98 -240t-238 -101q-139 0 -239 100q-101 100 -101 237q0 139 99 242zM1485 1399h153l-1079 -1432h-153z M1622 340q0 86 -59 145t-147 59t-147 -59q-59 -60 -60 -151q-1 -92 59 -148t150 -55q89 0 146 61q58 62 58 148zM1177 99q-100 100 -100 239q1 139 99 238q98 100 236 100t242 -98q99 -97 99 -236t-98 -243q-97 -99 -237 -99t-241 99z"/>
    <glyph glyph-name="ampersand" unicode="&amp;" horiz-adv-x="1325" d="M248 354q0 -110 60 -172q110 -113 339 -36q92 32 184 130l-253 418q-156 -53 -243 -142q-87 -88 -87 -198zM451 -33q-192 0 -292 119q-83 96 -83 235q0 138 104 269t330 211l-16 28q-75 128 -75 226q1 180 113 276t280 95t316 -99l-28 -135q-158 96 -275 96 q-119 0 -179 -53t-60 -132t23 -133q23 -55 89 -165l238 -389q83 133 133 297h270q2 -6 2 -44t-24 -83h-143q-82 -183 -160 -299l96 -160h213q2 -6 2 -44t-25 -83h-301l-96 158q-191 -191 -452 -191z"/>
    <glyph glyph-name="quotesingle" unicode="'" horiz-adv-x="550" d="M494 1493h200l-178 -518h-113z"/>
    <glyph glyph-name="parenleft" unicode="(" horiz-adv-x="661" d="M223 286q0 165 30 307q84 396 333 740q84 117 188 238h154q-90 -127 -161 -231q-280 -412 -337 -939q-10 -92 -10 -206t26 -222q26 -109 47 -183q22 -74 46 -159h-154q-162 361 -162 655z"/>
    <glyph glyph-name="parenright" unicode=")" horiz-adv-x="661" d="M518 1573q162 -361 162 -655q0 -165 -30 -307q-84 -396 -333 -740q-84 -117 -188 -238h-154q88 125 160 231q142 208 226 442t112 497q10 92 10 172t-13 182t-47 216t-58 200h153z"/>
    <glyph glyph-name="asterisk" unicode="*" horiz-adv-x="772" d="M535 1221l-216 59l43 123l209 -76l-8 225h131l-8 -225l209 78l43 -123l-215 -61l139 -181l-110 -71l-123 188l-121 -188l-111 71z"/>
    <glyph glyph-name="plus" unicode="+" horiz-adv-x="1110" d="M176 758h430v430h146v-430h428v-146h-428v-428h-146v428h-430v146z"/>
    <glyph glyph-name="comma" unicode="," horiz-adv-x="550" d="M164 108q0 58 37 94t93 36t93 -46t37 -128q0 -157 -103 -272q-103 -114 -229 -140l23 110q143 63 172 209q-123 7 -123 137z"/>
    <glyph glyph-name="hyphen" unicode="-" horiz-adv-x="661" d="M688 568q0 -47 -33 -103h-456q-4 20 -4 67t32 103h457q4 -20 4 -67z"/>
    <glyph glyph-name="period" unicode="." horiz-adv-x="550" d="M424 116q0 -56 -38 -100t-88 -45q-50 0 -89 32t-39 93q0 62 41 104t93 42t86 -35t34 -91z"/>
    <glyph glyph-name="slash" unicode="/" horiz-adv-x="665" d="M823 1552h152l-832 -1589h-151z"/>
    <glyph glyph-name="zero" unicode="0" horiz-adv-x="1110" d="M811 1257q-100 -1 -181 -79q-156 -151 -228 -467q-32 -145 -31 -279v-4q0 -322 194 -319q139 0 241 145t152 337t52 345q0 321 -199 321zM819 1399q362 0 367 -443q0 -345 -154 -647q-105 -207 -280 -297q-90 -45 -202 -45t-186 45q-140 86 -170 250t5 385 q35 220 144 421q109 200 284 287q88 44 192 44z"/>
    <glyph glyph-name="one" unicode="1" horiz-adv-x="1110" d="M229 23v39q0 27 25 71h266l221 1100h-264q-2 10 -2 23v30q0 36 25 80h440l-248 -1233h246q2 -10 2 -23v-30q0 -36 -25 -80h-684q-2 10 -2 23z"/>
    <glyph glyph-name="two" unicode="2" horiz-adv-x="1110" d="M776 1251q-169 0 -342 -133q-47 -37 -90 -76l33 197q155 113 290 144q60 15 128 16q184 0 283 -86t100 -234q0 -181 -143 -318q-67 -65 -155 -124t-192 -123l-59 -37q-233 -142 -308 -271q-22 -36 -34 -65h581l47 242q27 10 65 10t87 -14l-76 -379h-923q52 270 323 479 q92 72 213 150l58 37q177 115 229 166q109 106 108 225q0 194 -223 194z"/>
    <glyph glyph-name="three" unicode="3" horiz-adv-x="1110" d="M893 442q0 203 -277 203h-65q-4 11 -4 23v22q0 57 26 101h97q111 0 207 77t96 204q1 181 -221 181q-114 0 -246 -73q-53 -31 -94 -63t-68 -52l33 182q136 108 287 139t279 -13q129 -43 178 -148q26 -53 26 -125q0 -134 -84 -246q-67 -85 -170 -133q176 -68 176 -266 q0 -78 -32 -164q-31 -86 -97 -158q-151 -166 -399 -166q-133 0 -250 44t-166 93l35 183q157 -170 375 -170q146 0 252 90q106 89 106 235z"/>
    <glyph glyph-name="four" unicode="4" horiz-adv-x="1110" d="M756 469l65 313q55 258 103 422q-35 -49 -93 -117l-93 -112q-36 -43 -66 -78l-381 -428h465zM492 44q0 38 26 75h166l45 221h-604l35 170l798 885h142l-187 -926h203q4 -8 4 -19v-38q0 -27 -26 -72h-207l-45 -221h147q2 -6 2 -45t-26 -74h-471q-2 6 -2 44z"/>
    <glyph glyph-name="five" unicode="5" horiz-adv-x="1110" d="M899 537q0 149 -118 200q-43 19 -117 19q-137 1 -254 -142h-140l224 752h682q4 -10 4 -22v-25q0 -57 -27 -100h-563l-123 -414q105 90 261 90q155 0 253 -88t96 -252q0 -231 -149 -412q-149 -180 -389 -180q-132 0 -232 38t-153 85l36 182q139 -155 349 -155 q153 0 257 114q103 114 103 310z"/>
    <glyph glyph-name="six" unicode="6" horiz-adv-x="1110" d="M890 680q-58 72 -192 72t-220 -108q-87 -108 -87 -271q0 -118 65 -194q65 -75 185 -75q123 0 216 110t91 284q0 110 -58 182zM764 891q151 0 245 -83q113 -99 111 -282q0 -251 -140 -405t-353 -154q-412 0 -412 467q0 397 178 672q86 133 211 212q126 79 264 79t206 -23 t124 -55l-29 -152q-141 86 -284 84q-208 0 -337 -201q-67 -105 -92 -193q-24 -89 -32 -128q79 107 221 147q53 15 119 15z"/>
    <glyph glyph-name="seven" unicode="7" horiz-adv-x="1110" d="M465 967q-29 -11 -63 -11t-87 15l78 395h885l-31 -154l-760 -1212h-192l788 1202h-571z"/>
    <glyph glyph-name="eight" unicode="8" horiz-adv-x="1110" d="M924 411q0 125 -70 189t-199 64t-224 -81t-95 -222q0 -140 79 -204q63 -53 157 -54q162 -2 257 91t95 217zM508 980q0 -64 49 -123q49 -60 143 -60q160 0 234 80t76 186q0 201 -226 205q-72 0 -124 -25q-152 -74 -152 -263zM473 756q-131 82 -131 242q0 164 118 276 q132 125 339 125q197 0 300 -105q79 -80 81 -204q0 -247 -267 -369q91 -31 137 -112t46 -171q0 -187 -140 -329t-359 -142t-327 104t-106 263q0 210 165 344q58 47 144 78z"/>
    <glyph glyph-name="nine" unicode="9" horiz-adv-x="1110" d="M678 614q136 0 227 113q92 113 91 252t-59 211t-190 72t-225 -114q-94 -114 -94 -288q0 -173 133 -226q47 -20 117 -20zM254 846q0 253 149 402t353 149t307 -125q102 -125 100 -318q0 -340 -158 -636q-113 -211 -303 -304q-96 -47 -196 -47q-214 0 -325 63 q-32 17 -60 33l41 160q59 -45 132 -78t183 -33q191 1 318 177q98 135 143 329q-122 -136 -330 -139q-148 0 -251 93q-103 92 -103 274z"/>
    <glyph glyph-name="colon" unicode=":" horiz-adv-x="550" d="M434 116q0 -56 -38 -100t-88 -45q-50 0 -89 32t-39 93q0 62 41 104t93 42t86 -35t34 -91zM468 768q-50 0 -89 32t-39 93t41 103t93 42t86 -34t34 -92q0 -56 -38 -100t-88 -44z"/>
    <glyph glyph-name="semicolon" unicode=";" horiz-adv-x="550" d="M176 108q0 58 37 94t93 36t93 -46t37 -128t-30 -153q-57 -137 -185 -212q-59 -35 -117 -47l23 110q143 63 172 209q-123 7 -123 137zM507 768q-50 0 -89 32t-39 93t41 103t93 42t86 -34t34 -92q0 -56 -38 -100t-88 -44z"/>
    <glyph glyph-name="less" unicode="&lt;" horiz-adv-x="1110" d="M195 756l968 411v-159l-774 -322l774 -321v-158l-968 409v140z"/>
    <glyph glyph-name="equal" unicode="=" horiz-adv-x="1110" d="M186 557h1004v-145h-1004v145zM186 958h1004v-145h-1004v145z"/>
    <glyph glyph-name="greater" unicode="&gt;" horiz-adv-x="1110" d="M197 365l774 321l-774 322v159l968 -411v-140l-968 -409v158z"/>
    <glyph glyph-name="question" unicode="?" horiz-adv-x="1103" d="M541 -29q-51 0 -89 32t-38 93q0 62 41 104t93 42t86 -35t34 -91t-38 -101q-39 -44 -89 -44zM1036 1176q0 140 -112 191q-43 19 -111 19q-117 0 -231 -61t-205 -147l35 182q213 167 444 170q173 0 269 -100t96 -213q0 -187 -177 -351q-53 -49 -148 -131t-144 -155 t-78 -218h-174q29 158 78 239t94 129t106 100q60 52 108 94t82 83q68 80 68 169z"/>
    <glyph glyph-name="at" unicode="@" horiz-adv-x="1671" d="M702 394q0 -95 36 -146t97 -51q110 0 215 164q97 157 97 321q0 80 -42 125t-102 45t-116 -38q-112 -78 -161 -244q-24 -82 -24 -176zM549 390q0 258 178 454q113 117 268 117q103 0 165 -65q24 -24 38 -60l64 100h86l-144 -719q173 4 267 139q83 117 83 262 q0 263 -168 411q-168 147 -409 147q-278 0 -455 -188q-178 -188 -178 -483t176 -469q176 -173 471 -173q215 0 417 92q69 31 128 72l66 -113q-117 -76 -274 -127t-335 -51q-356 0 -578 214t-222 560q0 174 62 320q125 293 419 414q142 58 294 58q296 1 509 -181 q98 -85 155 -203q58 -118 58 -260q1 -269 -154 -417q-155 -147 -399 -147h-74l35 174q-126 -196 -310 -196q-119 0 -179 89q-60 90 -60 229z"/>
    <glyph glyph-name="A" unicode="A" horiz-adv-x="1458" d="M1059 618l-55 472l-6 46q-4 32 -7.5 70.5t-6.5 77.5t-3 68q-48 -109 -131 -262l-250 -472h459zM25 23v39q0 26 24 71h133l748 1378h190l174 -1378h131q2 -10 2 -23v-30q0 -35 -24 -80h-483q-2 10 -2 23v30q0 35 24 80h176l-41 346h-553l-184 -346h158q2 -10 2 -23v-30 q0 -36 -25 -80h-448q-2 10 -2 23z"/>
    <glyph glyph-name="B" unicode="B" horiz-adv-x="1343" d="M795 145q149 0 247 86q97 86 97 236q0 178 -155 225q-46 14 -101 15h-353l-110 -562h375zM844 850q246 0 325 163q29 57 29 115t-8 92t-33 62q-58 66 -201 68h-299l-96 -500h283zM66 23v39q0 26 24 71h152l247 1227h-147q-2 10 -2 23v30q0 36 25 80h630q222 0 320 -120 q69 -84 69 -210q0 -125 -66 -222t-190 -153q197 -81 197 -300t-154 -354q-154 -134 -364 -134h-739q-2 10 -2 23z"/>
    <glyph glyph-name="C" unicode="C" horiz-adv-x="1392" d="M1020 1530q261 0 360 -172l31 137q37 12 67 12t78 -12l-116 -575q-90 -29 -154 2q10 66 18.5 107.5t8.5 89.5q0 114 -72.5 187.5t-215 73.5t-251 -67.5t-185.5 -178t-119 -254.5q-42 -142 -42 -270q0 -237 104 -362t283 -125q215 0 407 148q54 42 101 83l-45 -237 q-76 -57 -200 -105.5t-285.5 -48.5t-270 58.5t-172.5 146.5q-116 159 -116.5 369t57 386.5t161 310.5t248 215t320.5 81z"/>
    <glyph glyph-name="D" unicode="D" horiz-adv-x="1431" d="M737 147q247 0 407.5 214.5t160.5 551.5q0 302 -197 398q-72 35 -178 35h-266l-242 -1199h315zM938 1493q563 0 563 -567q0 -476 -295 -744q-207 -182 -485 -182h-653q-2 10 -2 23v39q0 26 24 71h152l247 1227h-147q-2 10 -2 23v30q0 36 25 80h573z"/>
    <glyph glyph-name="E" unicode="E" horiz-adv-x="1251" d="M66 23v39q0 26 24 71h152l247 1227h-147q-2 10 -2 23v30q0 36 25 80h1069l-88 -438q-33 -11 -68.5 -11t-85.5 15l61 287h-587l-103 -504h584q4 -10 4 -22v-25q0 -59 -27 -101h-592l-108 -547h596l61 297q33 11 67 11t87 -15l-88 -440h-1079q-2 10 -2 23z"/>
    <glyph glyph-name="F" unicode="F" horiz-adv-x="1155" d="M66 23v39q0 26 24 71h152l247 1227h-147q-2 10 -2 23v30q0 36 25 80h1050l-90 -446q-33 -11 -71 -11t-83 15l58 295h-563l-103 -504h541q4 -10 4 -22v-25q0 -59 -27 -101h-549l-110 -561h168q2 -10 2 -23v-30q0 -36 -25 -80h-499q-2 10 -2 23z"/>
    <glyph glyph-name="G" unicode="G" horiz-adv-x="1472" d="M1309 1118q0 126 -71 194t-212 68t-249.5 -67.5t-185.5 -178t-119 -254t-42 -286.5q0 -251 130 -379q102 -100 253 -100q111 0 181.5 16t144.5 49l82 408h-199q-2 10 -2 23v30q0 34 24 80h502q2 -10 2 -23v-30q0 -34 -24 -80h-127l-99 -484q-204 -141 -501 -141 q-164 0 -272.5 58.5t-172.5 146.5q-116 158 -116 368.5t57 387t160.5 310.5t248 215t320.5 81q244 0 356 -162l29 127q37 12 67 12t78 -12l-110 -528q-90 -29 -154 2q21 83 21 149z"/>
    <glyph glyph-name="H" unicode="H" horiz-adv-x="1488" d="M66 23v39q0 26 24 71h152l247 1227h-147q-2 10 -2 23v30q0 36 25 80h479q2 -10 2 -23v-30q0 -36 -25 -80h-153l-101 -500h697l100 500h-147q-3 15 -3 30v23q0 33 25 80h477q2 -10 2 -23v-30q0 -35 -24 -80h-152l-246 -1227h148q2 -10 2 -23v-30q0 -36 -25 -80h-477 q-2 10 -2 23v30q0 36 25 80h151l117 580h-698l-117 -580h147q2 -10 2 -23v-30q0 -35 -24 -80h-477q-2 10 -2 23z"/>
    <glyph glyph-name="I" unicode="I" horiz-adv-x="645" d="M82 23v39q0 26 24 71h152l248 1227h-148q-2 10 -2 23v30q0 36 25 80h479q2 -10 2 -23v-30q0 -35 -24 -80h-154l-246 -1227h148q2 -10 2 -23v-30q0 -36 -25 -80h-479q-2 10 -2 23z"/>
    <glyph glyph-name="J" unicode="J" horiz-adv-x="1003" d="M1245 1470v-39q0 -26 -24 -71h-154l-188 -938q-92 -447 -467 -447q-151 -1 -281 81q-31 20 -47 36l35 176q87 -88 193 -128q46 -18 96 -17q131 0 196.5 73.5t93.5 221.5l191 942h-174q-2 10 -2 23v30q0 35 24 80h506q2 -10 2 -23z"/>
    <glyph glyph-name="K" unicode="K" horiz-adv-x="1366" d="M66 23v39q0 26 24 71h152l247 1227h-147q-2 10 -2 23v30q0 36 25 80h481q2 -10 2 -23v-30q0 -36 -25 -80h-155l-119 -594l678 594h-174q-2 10 -2 23v30q0 35 24 80h506q2 -10 2 -23v-30q0 -35 -24 -80h-134l-518 -451l330 -776h133q2 -10 2 -23v-30q0 -35 -24 -80h-512 q-2 10 -2 23v30q0 35 24 80h182l-270 658l-264 -230l-86 -428h149q2 -10 2 -23v-30q0 -35 -24 -80h-479q-2 10 -2 23z"/>
    <glyph glyph-name="L" unicode="L" horiz-adv-x="1146" d="M66 23v39q0 26 24 71h152l247 1227h-147q-2 10 -2 23v30q0 36 25 80h499q2 -10 2 -23v-30q0 -35 -24 -80h-174l-246 -1213h536l70 355q30 10 67.5 10t86.5 -14l-101 -498h-1013q-2 10 -2 23z"/>
    <glyph glyph-name="M" unicode="M" horiz-adv-x="1765" d="M66 23v39q0 26 24 71h150l247 1227h-145q-2 10 -2 23v30q0 36 25 80h413l119 -1055q14 -136 14 -231v-25q45 104 82 172t43 80l545 1059h414q2 -10 2 -23v-30q0 -36 -25 -80h-149l-246 -1227h145q2 -10 2 -23v-30q0 -35 -24 -80h-465q-2 10 -2 23v30q0 35 24 80h154 l199 985q4 23 11 56q7 34 14 70t16 72q8 36 14 64l-696 -1341h-178l-152 1341l-41 -219l-207 -1028h176q2 -10 2 -23v-30q0 -35 -24 -80h-477q-2 10 -2 23z"/>
    <glyph glyph-name="N" unicode="N" horiz-adv-x="1472" d="M66 23v39q0 26 24 71h152l247 1227h-147q-2 10 -2 23v30q0 36 25 80h358l364 -1051q28 -84 64 -258q20 122 27.5 159.5t12.5 65t7 33.5l178 918h-143q-2 10 -2 23v30q0 35 24 80h453q2 -10 2 -23v-30q0 -35 -24 -80h-154l-270 -1378h-183l-385 1110q-47 145 -65 268 q-18 -145 -49 -305l-183 -922h148q2 -10 2 -23v-30q0 -36 -25 -80h-454q-2 10 -2 23z"/>
    <glyph glyph-name="O" unicode="O" horiz-adv-x="1523" d="M1391 936q0 182 -86 304q-101 142 -299 142q-126 0 -230 -64q-104 -62 -180 -172q-162 -233 -162 -571q0 -246 124 -368q98 -96 278 -96q90 0 194 60t184 170q176 244 177 595zM818.5 -37q-177.5 0 -285 57.5t-173.5 147.5q-122 168 -122 424q0 350 202 630 q136 188 348 268q108 40 242 40q267 0 412 -165.5t145 -440.5q0 -172 -49 -344t-148.5 -309.5t-246.5 -222.5t-324.5 -85z"/>
    <glyph glyph-name="P" unicode="P" horiz-adv-x="1239" d="M868 793q154 0 252 85t99 250q-1 104 -51 160t-167 58h-339l-113 -553h319zM1004 1493q403 0 403 -363q0 -207 -142 -346t-384 -139h-363l-102 -512h168q2 -10 2 -23v-30q0 -36 -25 -80h-493q-2 10 -2 23v39q0 26 24 71h152l247 1227h-147q-2 10 -2 23v30q0 36 25 80h639 z"/>
    <glyph glyph-name="Q" unicode="Q" horiz-adv-x="1523" d="M836 111q90 0 194 60q214 124 312 431q48 152 48 334t-85 303q-102 143 -299 143q-126 0 -230 -63t-180 -173q-162 -234 -162 -571q0 -246 124 -368q97 -96 278 -96zM1082 -262q-148 0 -259 61t-166 178q-215 46 -326 235q-95 162 -93 380q0 348 201 631q137 188 348 267 q108 40 243 40q134 0 240 -45q316 -135 317 -576q0 -145 -43 -306t-129 -294t-216 -225t-302 -115q62 -88 189 -88q128 -1 198 23t129 53l-33 -156q-150 -63 -298 -63z"/>
    <glyph glyph-name="R" unicode="R" horiz-adv-x="1361" d="M897 805q166 0 253 85t87 239q0 217 -244 217h-334l-108 -541h346zM66 23v39q0 26 24 71h152l247 1227h-147q-2 10 -2 23v30q0 36 25 80h657q218 0 322 -118q80 -91 79.5 -256.5t-103.5 -286.5t-284 -160l168 -539h139q3 -15 3 -30v-23q0 -33 -25 -80h-281l-178 657h-340 l-106 -524h178q2 -10 2 -23v-30q0 -36 -25 -80h-503q-2 10 -2 23z"/>
    <glyph glyph-name="S" unicode="S" horiz-adv-x="1257" d="M242 0q-37 -12 -67 -12t-81 12l109 539q37 12 76.5 12t70.5 -14l-5 -35q-3 -21 -5 -40.5t-4 -35.5t-2 -48t23.5 -85t70.5 -94q103 -90 282 -90t274 75.5t95 210.5q0 92 -45 152.5t-157 99.5l-236 80q-165 53 -235 137.5t-70 237.5q0 154 124 280q146 148 389.5 148 t348.5 -116q29 -32 43 -62l29 143q37 12 68 12t79 -12l-102 -506q-37 -12 -78 -12t-72 14q17 51 17 126t-20.5 120t-61.5 79q-90 75 -245 75t-247 -81.5t-92 -205.5q0 -74 37 -122t152 -87l243 -82q180 -59 253 -152.5t73 -234.5q0 -197 -142.5 -329t-386.5 -132 q-375 0 -471 197z"/>
    <glyph glyph-name="T" unicode="T" horiz-adv-x="1304" d="M401 23v39q0 26 25 71h164l246 1213h-359l-63 -320q-30 -10 -66.5 -10t-85.5 14l92 463h1196l-92 -467q-30 -10 -67 -10t-84 14l63 316h-356l-246 -1213h178q2 -10 2 -23v-30q0 -35 -24 -80h-521q-2 10 -2 23z"/>
    <glyph glyph-name="U" unicode="U" horiz-adv-x="1474" d="M1714 1470v-39q0 -26 -24 -71h-150l-176 -887q-49 -225 -160 -336q-165 -174 -440 -174q-230 0 -350.5 111.5t-120.5 304.5q0 46 12 121l172 860h-139q-2 10 -2 23v30q0 35 24 80h478q2 -10 2 -23v-30q0 -36 -25 -80h-160l-168 -842q-14 -56 -14 -130q0 -142 99 -215 q80 -58 214 -58q177 0 278 96.5t140 296.5l170 852h-149q-2 10 -2 23v30q0 35 24 80h465q2 -10 2 -23z"/>
    <glyph glyph-name="V" unicode="V" horiz-adv-x="1396" d="M1675 1470v-39q0 -26 -24 -71h-135l-742 -1378h-176l-168 1378h-129q-2 10 -2 23v30q0 36 25 80h475q2 -10 2 -23v-30q0 -36 -25 -80h-176l88 -721q33 -308 41 -471q107 223 236 471l385 721h-170q-2 10 -2 23v30q0 35 24 80h471q2 -10 2 -23z"/>
    <glyph glyph-name="W" unicode="W" horiz-adv-x="1992" d="M2271 1470v-39q0 -26 -24 -71h-136l-634 -1378h-187l-35 1038v43q0 131 9 223q-10 -25 -24.5 -60.5t-35 -88.5t-49.5 -117l-473 -1038h-186l-66 1378h-129q-2 10 -2 23v30q0 36 25 80h471q2 -10 2 -23v-30q0 -36 -25 -80h-172l37 -979v-53q0 -78 -6 -152q38 113 92 238 l491 1079h191l35 -1112v-37q0 -86 -8 -168q26 100 92 238l430 946h-168q-2 10 -2 23v30q0 35 24 80h461q2 -10 2 -23z"/>
    <glyph glyph-name="X" unicode="X" horiz-adv-x="1406" d="M1642 1493q3 -15 3 -51t-25 -82h-119l-547 -598l320 -629h115q2 -10 2 -23v-30q0 -36 -25 -80h-504q-2 10 -2 23v30q0 36 25 80h190l-248 492l-448 -492h184q2 -10 2 -23v-30q0 -35 -24 -80h-496q-2 10 -2 23v39q0 27 25 71h116l576 625l-303 602h-113q-2 10 -2 23v30 q0 36 25 80h503q2 -10 2 -23v-30q0 -35 -24 -80h-197l236 -463l426 463h-187q-2 10 -2 23v30q0 36 25 80h493z"/>
    <glyph glyph-name="Y" unicode="Y" horiz-adv-x="1400" d="M453 23v39q0 26 24 71h154l92 467l-315 760h-107q-2 10 -2 23v30q0 36 25 80h473q2 -10 2 -23v-30q0 -36 -25 -80h-184l250 -621l520 621h-178q-2 10 -2 23v30q0 35 24 80h471q2 -10 2 -23v-30q0 -35 -24 -80h-111l-639 -760l-94 -467h168q2 -10 2 -23v-30q0 -36 -25 -80 h-499q-2 10 -2 23z"/>
    <glyph glyph-name="Z" unicode="Z" horiz-adv-x="1220" d="M457 1047q-29 -11 -67 -11t-83 15l88 442h1035l-33 -160l-1104 -1186h751l60 306q28 10 66 10q39 0 85 -14l-90 -449h-1110l33 160l1104 1186h-676z"/>
    <glyph glyph-name="bracketleft" unicode="[" horiz-adv-x="550" d="M436 1552h371l-25 -127h-213l-329 -1642h213l-27 -127h-371z"/>
    <glyph glyph-name="backslash" unicode="\" horiz-adv-x="663" d="M315 1552h144l192 -1589h-143z"/>
    <glyph glyph-name="bracketright" unicode="]" horiz-adv-x="550" d="M12 -217h213l330 1642h-213l25 127h370l-381 -1896h-370z"/>
    <glyph glyph-name="asciicircum" unicode="^" horiz-adv-x="1056" d="M733 1366h144l249 -842h-165l-193 650l-455 -650h-174z"/>
    <glyph glyph-name="underscore" unicode="_" horiz-adv-x="1024" d="M0 -150h1024v-131h-1024v131z"/>
    <glyph glyph-name="grave" unicode="`" horiz-adv-x="700" d="M446 1456h213l123 -278h-133z"/>
    <glyph glyph-name="a" unicode="a" d="M538 119q64 0 133.5 58.5t124 147.5t87 194.5t32.5 207t-52 158.5t-134 57t-152.5 -50t-119.5 -130q-105 -171 -105 -361q0 -191 88 -257q34 -26 98 -25zM1106 71.5q0 -43.5 -29 -71.5h-272l53 256q-88 -188 -256 -259q-62 -26 -137 -26q-146 0 -220.5 111t-74.5 284 q0 321 221 558q134 145 330 145q125 -1 203 -79q30 -30 49 -75l78 123h106l-186 -919h133q2 -4 2 -47.5z"/>
    <glyph glyph-name="b" unicode="b" horiz-adv-x="1124" d="M616 106q84 0 152 50q133 99 187 308q26 97 26 198q1 101 -25 155q-50 105 -151 105q-135 0 -238 -138t-135 -303q-12 -67 -12 -129t18 -110q36 -95 111 -122q34 -14 67 -14zM862 1067q156 0 235 -117q66 -97 66 -258q0 -253 -123 -461q-39 -66 -88 -116 q-135 -146 -331 -146q-137 0 -221 115q-22 31 -29 59l-84 -143h-111l291 1434h-133q-2 6 -2 45t26 73h297l-135 -673q137 188 342 188z"/>
    <glyph glyph-name="c" unicode="c" horiz-adv-x="972" d="M354 422q0 -299 248 -299q78 1 130 21q105 41 220 147l-37 -193q-80 -72 -175 -98.5t-169 -26.5q-205 0 -302 116t-97 326q0 211 125 413q91 148 233 208q74 32 166 31q179 0 236 -119l20 88q64 25 121 0l-86 -415q-66 -26 -131 0q4 25 12.5 67.5t8.5 77.5q0 78 -42 127 q-41 49 -133 49q-159 0 -253.5 -169t-94.5 -351z"/>
    <glyph glyph-name="d" unicode="d" d="M352 381q0 -262 186 -262q64 0 134 58q70 57 124 147t87 195t33 207t-53 159q-52 57 -134 57q-83 0 -153 -50t-119 -130q-105 -171 -105 -381zM1106 74q0 -39 -27 -74h-274l53 256q-89 -183 -254 -257q-61 -28 -138 -28t-133 32q-107 61 -146 205q-17 67 -17 138 q0 344 221 578q134 145 330 145q120 0 202 -77q30 -28 46 -68l102 510h-135q-2 6 -2 45t27 73h301l-291 -1433h133q2 -6 2 -45z"/>
    <glyph glyph-name="e" unicode="e" horiz-adv-x="956" d="M881 811q0 61 -36 100t-121 39q-153 0 -257 -150q-77 -112 -100 -241h10q260 -2 382 66.5t122 185.5zM354 403q0 -143 64.5 -213.5t171.5 -70.5q158 0 284 94q34 25 58 47l-37 -194q-155 -95 -342 -95t-283 119.5t-96 319.5q0 120 41 229t85 179.5t106 125.5 q140 123 333 123q154 0 228.5 -73.5t74.5 -167.5q0 -184 -166.5 -285t-502.5 -101h-19v-37z"/>
    <glyph glyph-name="f" unicode="f" horiz-adv-x="606" d="M215 926v16q0 67 27 96h166l20 131q37 229 155 327q86 73 200 74t190 -36l-35 -137q-162 78 -256 -16q-55 -53 -80 -179l-29 -164h195q2 -8 2 -16v-16q0 -65 -27 -97h-192l-152 -901q-53 -310 -236 -361q-145 -40 -259 17l33 127q40 -25 114 -26t116 53t64 184l154 907 h-168q-2 9 -2 17z"/>
    <glyph glyph-name="g" unicode="g" horiz-adv-x="1110" d="M544 147q64 0 132.5 54.5t122 137.5t85 184.5t31.5 203t-52 158.5t-134 57t-151.5 -48t-119.5 -125q-104 -160 -104 -374q0 -165 90 -225q34 -23 100 -23zM139 -115q141 -112 304.5 -112t244.5 86.5t125 294.5l12 59q-140 -213 -350 -213q-151 0 -227 104t-76 275 q0 310 219 545q134 145 330 145q125 -1 203 -79q30 -30 49 -75l78 123h106l-186 -921q-81 -391 -343 -463q-85 -24 -164 -23q-119 0 -215.5 33.5t-144.5 71.5z"/>
    <glyph glyph-name="h" unicode="h" horiz-adv-x="1128" d="M926 805q0 117 -121 117q-104 0 -221 -159t-168 -405l-74 -358h-166l289 1434h-131q-2 6 -2 44.5t26 73.5h297l-147 -723q157 238 350 238q123 0 182.5 -64.5t59.5 -151.5t-15 -144l-141 -588h152q2 -6 2 -45.5t-27 -73.5h-317l147 635q25 118 25 170z"/>
    <glyph glyph-name="i" unicode="i" horiz-adv-x="571" d="M526 75q0 -40 -26 -75h-299l186 920h-131q-2 4 -2 44t27 74h297l-187 -919h133q2 -4 2 -44zM532 1255q-43 0 -70.5 32t-27.5 82t33 87t75 37t68.5 -31.5t26.5 -80t-31 -87.5t-74 -39z"/>
    <glyph glyph-name="j" unicode="j" horiz-adv-x="522" d="M37 -231q118 0 160 202l190 949h-131q-2 6 -2 45t27 73h297l-211 -1042q-41 -201 -129 -283t-207 -82q-83 0 -148 31l27 131q65 -24 127 -24zM522 1255q-42 0 -70 32t-28 82t33 87t75 37t68 -32q27 -32 27 -80t-31 -87t-74 -39z"/>
    <glyph glyph-name="k" unicode="k" horiz-adv-x="1026" d="M1081 74q0 -39 -26 -74h-267l-194 526l-174 -143l-78 -383h-166l289 1434h-131q-2 6 -2 45t26 73h297l-200 -993l444 369h-147q-2 6 -2 13v13q0 49 26 84h418q2 -6 2 -45t-27 -73h-104l-340 -283l201 -518h153q2 -6 2 -45z"/>
    <glyph glyph-name="l" unicode="l" horiz-adv-x="559" d="M522 74q0 -39 -26 -74h-308l291 1434h-133q-2 6 -2 45t27 73h299l-291 -1433h141q2 -6 2 -45z"/>
    <glyph glyph-name="m" unicode="m" horiz-adv-x="1667" d="M1468 806q0 116 -101 116t-211 -139q-111 -139 -152 -349l-91 -434h-165l129 635q42 182 4 253q-19 34 -77 34q-111 0 -217 -163q-107 -163 -153 -380l-78 -379h-166l185 920h-131q-2 6 -2 45t26 73h271l-52 -262q42 96 111 164q68 68 125 98t123 29q119 0 173 -62 t56 -151q94 140 230 194q49 19 106 19q113 0 172 -66t59 -167q0 -59 -16 -127l-139 -588h151q2 -6 2 -45t-26 -74h-318l146 635q26 123 26 171z"/>
    <glyph glyph-name="n" unicode="n" d="M1110 73.5q0 -39.5 -27 -73.5h-317l147 635q25 118 25 171q0 116 -121 116q-49 0 -106.5 -41t-111.5 -115q-118 -161 -171 -408l-74 -358h-166l185 920h-131q-2 6 -2 44.5t26 73.5h271l-56 -278q51 110 154 208.5t230.5 98.5t187 -64.5t59.5 -150.5t-14 -145l-142 -588 h152q2 -6 2 -45.5z"/>
    <glyph glyph-name="o" unicode="o" horiz-adv-x="1079" d="M944 633q0 299 -231 299q-125 0 -229 -118t-131 -320q-7 -52 -7 -84q0 -301 236 -301q102 0 171.5 61t111.5 146t60.5 177.5t18.5 139.5zM584.5 -29q-107.5 0 -179 29t-123 84t-80 134t-28.5 181.5t34 220t103.5 217t174 165t230.5 65.5q215 1 320 -143q80 -109 80 -248 t-38 -264t-109.5 -222.5t-174 -158t-210 -60.5z"/>
    <glyph glyph-name="p" unicode="p" horiz-adv-x="1136" d="M806 922q-124 0 -227 -138q-147 -198 -147 -432q0 -62 20 -110q56 -137 185 -136q83 0 149 52t112 134q97 171 96 356t-87 248q-35 26 -101 26zM-16 -300q0 38 26 75h133l232 1145h-131q-2 6 -2 45t26 73h271l-43 -221q85 167 247 227q59 23 137 23q150 0 229 -117 q65 -95 67 -258q0 -234 -120 -458q-38 -69 -87 -119q-135 -146 -328 -146q-95 0 -167 55t-89 123l-76 -372h152q2 -6 2 -45t-27 -74h-450q-2 6 -2 44z"/>
    <glyph glyph-name="q" unicode="q" horiz-adv-x="1107" d="M352 381q0 -262 186 -262q64 0 134 58q70 57 124 147t87 195t33 207t-53 159q-52 57 -134 57q-83 0 -153 -50t-119 -130q-105 -171 -105 -381zM545 -300q0 38 26 75h164l84 415q-81 -102 -133 -141q-102 -76 -200 -77q-235 -2 -299 236q-17 67 -17 138q0 344 221 578 q134 145 330 145q125 0 204 -79q30 -30 48 -75l78 123h106l-256 -1263h133q2 -6 2 -45t-26 -74h-463q-2 6 -2 44z"/>
    <glyph glyph-name="r" unicode="r" horiz-adv-x="733" d="M242 964.5q0 38.5 26 73.5h271l-52 -258q39 95 127 176.5t193 81.5q70 0 117 -30l-64 -154q-40 23 -87 23q-100 0 -196 -126.5t-143 -357.5l-78 -393h-166l185 920h-131q-2 6 -2 44.5z"/>
    <glyph glyph-name="s" unicode="s" horiz-adv-x="976" d="M856 766q0 174 -219 174q-98 0 -156.5 -48t-58.5 -134.5t149 -132.5l146 -43q231 -69 231 -269q0 -160 -110.5 -251t-274.5 -91q-164 -1 -266 89q-29 26 -41 55l-27 -109q-24 -12 -60 -12t-60 12l84 404q31 10 59.5 10t62.5 -10q-14 -96 -14 -123t21.5 -64t57.5 -63 q75 -55 171 -55.5t161.5 39.5t65.5 139q0 110 -162 163l-147 48q-80 27 -141.5 87t-61.5 148q0 157 103.5 243.5t237 86.5t204 -38.5t90.5 -92.5l21 108q68 25 122 0l-73 -377q-31 -10 -63 -10t-62 13q10 58 10 104z"/>
    <glyph glyph-name="t" unicode="t" horiz-adv-x="647" d="M401 203q0 -80 86 -80t160 41l-26 -139q-72 -39 -169 -39t-157 54q-59 54 -59 153v4q0 35 6 71l129 641h-144q-2 9 -2 17v16q0 64 27 96h145l49 252l189 94l-72 -346h228q2 -8 2 -16v-16q0 -62 -27 -97h-229l-129 -643q-7 -25 -7 -63z"/>
    <glyph glyph-name="u" unicode="u" d="M393 232q-1 -115 111 -115q113 0 231 160.5t168 402.5l74 358h166l-185 -919h132q2 -4 2 -44.5t-27 -74.5h-270l55 279q-165 -308 -389 -308q-123 0 -182.5 64.5t-59.5 150t14 146.5l142 588h-152q-2 4 -2 44t27 74h317l-147 -635q-25 -117 -25 -171z"/>
    <glyph glyph-name="v" unicode="v" horiz-adv-x="1058" d="M791 963.5q0 39.5 26 74.5h270q35 -76 35 -229.5t-50 -309t-138 -272t-205 -186.5t-248 -70t-194.5 67.5t-63.5 156.5t13 135l141 590h-133q-2 4 -2 43.5t26 74.5h299l-149 -637q-4 -12 -7 -32.5t-8.5 -56t-5.5 -80.5t35 -83t116 -38t155.5 63.5t130 161.5t87 216 t31.5 220t-18 148h-141q-2 4 -2 43.5z"/>
    <glyph glyph-name="w" unicode="w" horiz-adv-x="1570" d="M1632 799.5q0 -153.5 -49 -312.5t-133 -274t-193.5 -178.5t-218 -63.5t-167 53.5t-58.5 131.5v17q0 7 2 17q-27 -65 -121.5 -142t-218.5 -77t-188 67.5t-64 172.5q0 67 15 121l139 588h-135q-2 4 -2 43.5t26 74.5h301l-149 -637q-4 -12 -7 -32.5t-8.5 -56t-5.5 -80.5 t30 -83q29 -38 103 -38q130 0 231 200q67 133 109 336l78 391h166l-137 -680q-14 -77 -14 -126q0 -121 116 -121q84 0 154 65.5t121 163.5q106 204 106 424q0 90 -12 156h-139q-2 4 -2 43.5t26 74.5h266q33 -85 33 -238.5z"/>
    <glyph glyph-name="x" unicode="x" horiz-adv-x="1105" d="M59 45q0 39 27 74h92l402 409l-166 392h-150q-2 6 -2 45t27 73h241l166 -391l267 273h-113q-2 6 -2 45t26 73h363q2 -6 2 -45t-27 -73h-90l-379 -388l177 -413h165q2 -6 2 -45t-26 -74h-258l-176 414l-289 -295h115q2 -6 2 -45t-27 -74h-367q-2 6 -2 45z"/>
    <glyph glyph-name="y" unicode="y" horiz-adv-x="983" d="M173 -225q161 0 335 260q-148 606 -252 885h-127q-2 6 -2 45t27 73h239q91 -219 240 -827q106 169 179 347.5t73 260t-6 101.5h-144q-2 6 -2 45t27 73h268q25 -55 25 -150q0 -185 -146.5 -476.5t-328.5 -515.5q-106 -133 -207 -199t-228 -66q-47 0 -88 10.5t-57 22.5 l31 148q65 -37 144 -37z"/>
    <glyph glyph-name="z" unicode="z" horiz-adv-x="880" d="M276.5 686q-32.5 0 -65.5 12l68 340h749l-29 -139l-737 -770h465l41 209q37 12 70 12t67 -12l-69 -338h-793l29 137l737 772h-422l-43 -211q-35 -12 -67.5 -12z"/>
    <glyph glyph-name="braceleft" unicode="{" horiz-adv-x="663" d="M379 -129q0 -90 88 -88h70l-27 -127h-107q-86 0 -132 47t-46 109t8 100l68 373q12 69 12 121t-33 95q-34 42 -87 42l26 127q109 0 177 150q22 46 32 102l76 374q25 123 93 190q69 67 169 66h125l-25 -127h-78q-63 0 -91 -48t-42 -115l-75 -375q-24 -126 -114 -209 q-51 -47 -116 -70l-2 -4q119 -74 119 -177t-12 -165q-64 -314 -70 -344t-6 -47z"/>
    <glyph glyph-name="bar" unicode="|" horiz-adv-x="516" d="M330 1757h145v-2203h-145v2203z"/>
    <glyph glyph-name="braceright" unicode="}" horiz-adv-x="663" d="M528 1337q0 90 -88 88h-69l26 127h107q86 0 132 -47t46 -109t-8 -100l-68 -372q-12 -70 -12 -122t34 -94t87 -42l-27 -127q-70 0 -130 -73t-79 -179l-76 -375q-25 -123 -93 -190t-169 -66h-125l25 127h78q63 0 91 48t42 116l76 375q23 123 99 194q76 70 130 84l2 4 q-127 64 -119 231q4 74 46 280t42 222z"/>
    <glyph glyph-name="asciitilde" unicode="~" horiz-adv-x="1202" d="M455 688q74 0 118 -17t72 -30l189 -84q66 -29 137 -30t115 47t83 147h125q-123 -369 -372 -369q-78 0 -170 41l-207 90q-75 31 -142 31t-112 -48t-84 -147h-123q117 369 371 369z"/>
    <glyph glyph-name="uni00A0" unicode=" " horiz-adv-x="524"/>
    <glyph glyph-name="exclamdown" unicode="¡" horiz-adv-x="550" d="M322 662h143l-191 -1006h-217zM452 797q-52 1 -86 35t-34 90t38 101q38 44 88 44t89 -32t39 -93t-41 -103t-93 -42z"/>
    <glyph glyph-name="cent" unicode="¢" horiz-adv-x="1110" d="M735 1104q-132 -22 -215 -180t-85 -358q-1 -200 138 -267zM260 559q0 92 29 206q63 248 246 385q94 71 225 79l35 170h118l-36 -180q107 -27 143 -109l20 88q31 12 61 12t60 -12l-86 -416q-31 -12 -63 -12t-64 12q4 25 12 71t9 92q0 46 -28 91t-89 62l-162 -822 q76 0 129 20q102 39 221 148l-36 -184q-80 -72 -176 -98t-169 -27l-32 -168h-119l37 180q-285 60 -285 412z"/>
    <glyph glyph-name="sterling" unicode="£" horiz-adv-x="1110" d="M618 641q0 -288 -299 -500h558l47 242q27 10 64 10q38 0 87 -14l-76 -379h-911l27 135q148 98 225 197q108 140 106 307v10h-221q-2 9 -2 17v16q0 68 27 102h186q-4 82 -4 174t35 176t95 143q126 122 317 122t360 -103l-37 -145q-151 106 -328 106q-120 0 -197 -79 t-77 -202q0 -122 8 -192h387q2 -8 2 -16v-16q0 -64 -26 -103h-353v-8z"/>
    <glyph glyph-name="currency" unicode="¤" horiz-adv-x="1077" d="M170 689q0 187 102 302l-112 111l98 98l117 -115q121 105 296 105q174 0 298 -105l116 115l99 -98l-113 -111q103 -115 103 -302q0 -188 -103 -314l111 -115l-92 -92l-113 119q-121 -113 -305 -113t-305 113l-113 -119l-92 92l110 115q-102 127 -102 314zM688 317 q90 -1 177 61t123 147t36 174t-58 181t-140 129q-82 38 -170 38q-90 -1 -178 -63t-124 -145q-35 -83 -35 -156t28 -139q57 -137 187 -197q64 -30 154 -30z"/>
    <glyph glyph-name="yen" unicode="¥" horiz-adv-x="1110" d="M233 1272q0 10 8 44t21 50h430v-66q-12 -47 -24 -63h-162l168 -532l395 532h-160q-4 21 -4 33q0 59 29 96h430q4 -20 4 -37t-9 -48t-20 -44h-104l-391 -512h274l-20 -102h-365l-35 -168h365l-21 -103h-364l-45 -223h153q2 -10 2 -18v-17q0 -49 -24 -94h-457q-4 20 -4 32 t7 46q7 33 22 51h139l45 223h-354l20 103h355l34 168h-354l21 102h270l-170 512h-100q-5 25 -5 35z"/>
    <glyph glyph-name="brokenbar" unicode="¦" horiz-adv-x="516" d="M285 492h145l-106 -529h-146zM498 1552h145l-106 -530h-146z"/>
    <glyph glyph-name="section" unicode="§" d="M922 370q61 72 61 156q0 112 -131 205l-250 184q-98 -39 -157 -103q-58 -65 -58 -140t26 -120q26 -46 107 -103l254 -187q87 36 148 108zM936 -12q0 -101 -38 -164q-77 -128 -230 -171q-74 -22 -150 -22t-167 20q-128 29 -240 124l32 176q96 -108 244 -156 q61 -20 150 -20t155 46q66 47 66 115t-24 116t-99 106l-264 196q-154 109 -154 276t161 290q54 41 128 69q-68 81 -69 177t33 162q68 132 225 178q77 24 183 24t203 -43q98 -43 156 -88l-35 -168q-22 18 -52 45q-30 28 -73 52q-103 58 -220 58q-243 0 -245 -192 q0 -51 29 -90t92 -84l262 -184q160 -112 160 -277q0 -127 -83 -218t-212 -157q76 -95 76 -196z"/>
    <glyph glyph-name="dieresis" unicode="¨" horiz-adv-x="700" d="M435 1194q-41 0 -71 25t-30 73t32 82q32 33 72 33t69 -28q28 -27 28 -71t-30 -79t-70 -35zM791 1194q-41 0 -71 25t-30 73t32 82q32 33 73 33t69 -28q28 -27 27 -71q0 -44 -30 -79t-70 -35z"/>
    <glyph glyph-name="copyright" unicode="©" horiz-adv-x="1759" d="M712 412q-104 125 -104 321q0 195 106 340q106 144 294 144q125 0 213 -78v51q27 12 59 12t55 -12v-350q-52 -10 -58 -11q-6 0 -63 11v67q0 80 -52 136q-52 57 -138 57t-134 -33q-138 -95 -138 -324q0 -172 80 -258t198 -88q152 0 301 162v-162q-119 -119 -331 -121 q-78 0 -157 37t-131 99zM580 281q183 -187 453 -187t451 188t181 468q0 139 -49 258q-99 240 -335 342q-116 49 -250 49q-271 0 -451 -186q-185 -187 -185 -467t185 -465zM238 749q0 169 63 312t172 247t253 163t305 59t304 -58q298 -122 424 -411q63 -143 63 -312t-62 -313 q-64 -144 -173 -250q-109 -104 -252 -163t-304 -59t-305 58q-144 60 -253 164t-172 249t-63 314z"/>
    <glyph glyph-name="ordfeminine" unicode="ª" horiz-adv-x="798" d="M262 760h606l-24 -117h-606zM541 952q43 0 86 35q85 69 129 202q20 61 20 121t-32 93t-78 33q-92 0 -158 -99t-67 -242t100 -143zM725 967q-97 -121 -207 -121t-157 68q-48 68 -49 176q-2 199 139 350q90 90 211 90q38 0 84 -18t75 -68l43 67h80l-117 -559h80q2 -8 2 -15 v-13q0 -32 -20 -60h-184z"/>
    <glyph glyph-name="guillemotleft" unicode="«" horiz-adv-x="1003" d="M158 518l393 461h180l-403 -469l207 -453h-168zM575 518l394 461h180l-404 -469l207 -453h-168z"/>
    <glyph glyph-name="logicalnot" unicode="¬" horiz-adv-x="1110" d="M176 958h1004v-546h-146v401h-858v145z"/>
    <glyph glyph-name="uni00AD" unicode="­" horiz-adv-x="661" d="M688 568q0 -47 -33 -103h-456q-4 20 -4 67t32 103h457q4 -20 4 -67z"/>
    <glyph glyph-name="registered" unicode="®" horiz-adv-x="1759" d="M1233 946q0 143 -156 141h-209v-290h203q162 0 162 149zM645 355q0 28 12 53h86v686h-88q-10 30 -10 54t12 50h453q122 0 190 -73t68 -165t-28 -142q-54 -94 -146 -120l158 -290h90q8 -27 8 -53t-8 -52h-199l-188 383h-187v-278h109q8 -27 8 -53t-8 -52h-320 q-12 24 -12 52zM580 281q183 -187 453 -187t451 188t181 468q0 139 -49 258q-99 240 -335 342q-116 49 -250 49q-271 0 -451 -186q-185 -187 -185 -467t185 -465zM238 749q0 169 63 312t172 247t253 163t305 59t304 -58q298 -122 424 -411q63 -143 63 -312t-62 -313 q-64 -144 -173 -250q-109 -104 -252 -163t-304 -59t-305 58q-144 60 -253 164t-172 249t-63 314z"/>
    <glyph glyph-name="macron" unicode="¯" horiz-adv-x="700" d="M309 1368h629l-27 -133h-628z"/>
    <glyph glyph-name="degree" unicode="°" horiz-adv-x="819" d="M649 1010q74 0 125 53t51 131t-51 131t-125 53t-125 -53t-51 -131t51 -131t125 -53zM435 980q-85 85 -85 213t85 214t213 86t215 -85q87 -87 86 -215t-86 -213t-213 -85t-215 85z"/>
    <glyph glyph-name="plusminus" unicode="±" horiz-adv-x="1110" d="M190 227h1000v-145h-1000v145zM186 877h430v409h146v-414h428v-141h-428v-409h-146v409h-430v146z"/>
    <glyph glyph-name="twosuperior" unicode="²" horiz-adv-x="733" d="M664 1208q0 80 -101 80q-68 0 -128 -28t-140 -86l24 139q47 29 109 57t158 29q96 0 163 -45t67 -132t-89 -161q-60 -52 -160 -109t-147 -90t-78 -71h270l23 96q23 10 55 10q31 0 76 -12l-43 -201h-571q42 183 271 320q167 100 204 132t37 72z"/>
    <glyph glyph-name="threesuperior" unicode="³" horiz-adv-x="733" d="M637 912q0 58 -41 72q-41 13 -90 13h-51q-23 51 16 109h66q84 0 128 60q13 19 13 46q0 78 -119 77t-237 -91l30 131q122 70 236 70t176 -44t61 -115q0 -71 -40 -117t-91 -70q92 -41 91 -138t-83 -172t-239 -73q-88 0 -153 24t-99 49l25 125q104 -86 227 -86q74 0 124 36 t50 94z"/>
    <glyph glyph-name="acute" unicode="´" horiz-adv-x="700" d="M627 1456h213l-303 -278h-144z"/>
    <glyph glyph-name="mu" unicode="µ" horiz-adv-x="1214" d="M488 -29q-62 0 -94 23t-40 37l-75 -375h-170l256 1264h-152q-13 69 25 118h317l-127 -635q-23 -109 -24 -167t23 -89t83 -31q115 1 231 167t158 376l78 379h166l-185 -919h132q17 -66 -25 -119h-270l55 279q-90 -187 -240 -274q-60 -34 -122 -34z"/>
    <glyph glyph-name="paragraph" unicode="¶" horiz-adv-x="1241" d="M283 1033q0 222 149 341t381 119h545l-373 -1862h-160l349 1735h-234l-348 -1735h-160l219 1096q-180 6 -274 95t-94 211z"/>
    <glyph glyph-name="periodcentered" unicode="·" horiz-adv-x="550" d="M449 971q41 0 69 -30t27 -74q0 -45 -30 -81t-70 -36q-41 0 -71 26t-30 76q0 49 32 84t73 35z"/>
    <glyph glyph-name="cedilla" unicode="¸" horiz-adv-x="700" d="M205 -354q40 0 75 6t56 33q20 26 20 55q0 69 -80 72q-37 0 -79 -21l-27 39l162 170h106l-110 -119q20 4 45 4q73 0 105 -38t32 -87q0 -91 -79 -149q-79 -57 -180 -57t-190 43l39 79q65 -30 105 -30z"/>
    <glyph glyph-name="onesuperior" unicode="¹" horiz-adv-x="733" d="M410 1328q0 28 24 56h279l-123 -593h127q6 -25 6 -49t-23 -58h-407q-6 20 -6 43t22 64h144l100 489h-137q-6 20 -6 48z"/>
    <glyph glyph-name="ordmasculine" unicode="º" horiz-adv-x="788" d="M262 762h606l-24 -119h-606zM461 1129q-1 -181 129 -181q70 0 112 36q80 70 104 192q11 55 11 92q0 161 -135 164q-109 0 -173 -125q-48 -95 -48 -178zM574 848q-96 0 -166 72t-70 209t87 257q104 144 267 144q128 0 197 -90q51 -69 51 -155q0 -177 -99 -307 q-98 -130 -267 -130z"/>
    <glyph glyph-name="guillemotright" unicode="»" horiz-adv-x="1003" d="M465 526l-207 453h168l209 -461l-393 -461h-181zM883 526l-207 453h168l209 -461l-394 -461h-180z"/>
    <glyph glyph-name="onequarter" unicode="¼" horiz-adv-x="1765" d="M420 1328q0 28 24 56h279l-123 -593h127q6 -25 6 -49t-22 -58h-408q-6 20 -6 43t22 64h144l100 489h-137q-6 20 -6 48zM1405 1399h154l-1080 -1432h-153zM1319 246l53 266l-268 -266h215zM1565 210q-1 -24 -9 -41t-12 -26h-108l-31 -157h-137l30 157h-348l27 115l446 436 h125l-92 -448h105q4 -12 4 -36z"/>
    <glyph glyph-name="onehalf" unicode="½" horiz-adv-x="1765" d="M410 1328q0 28 24 56h279l-123 -593h127q6 -25 6 -49t-23 -58h-407q-6 20 -6 43t22 64h144l100 489h-137q-6 20 -6 48zM1395 1399h153l-1079 -1432h-154zM1622 528q0 -125 -185 -235q-54 -33 -148 -88t-140 -113h270l23 96q26 11 59 11t72 -13l-43 -200h-572 q42 181 272 319q162 97 202 131q39 33 38 80q0 72 -100 74q-68 0 -128 -28t-140 -87l24 139q46 29 108 58q62 28 158 28t164 -45q66 -45 66 -127z"/>
    <glyph glyph-name="threequarters" unicode="¾" horiz-adv-x="1765" d="M545 782q74 0 124 36t50 94t-41 72q-41 13 -90 13h-51q-23 51 16 109h65q87 0 128 60q13 19 14 46q0 78 -118 77t-239 -91l31 131q122 70 236 70t176 -44t61 -115q0 -71 -40 -117t-91 -70q92 -41 91 -138t-83 -172t-239 -73q-88 0 -153 24t-99 49l24 125q104 -86 228 -86 zM1456 1399h154l-1080 -1432h-153zM1370 246l53 266l-268 -266h215zM1616 207q0 -27 -21 -64h-108l-31 -157h-137l31 157h-349l27 115l447 436h124l-92 -448h105q4 -12 4 -39z"/>
    <glyph glyph-name="questiondown" unicode="¿" horiz-adv-x="1103" d="M137 -56q0 176 174 336q53 48 126 104q139 107 181 164t66 144h174q-27 -111 -64 -167q-69 -105 -215 -217q-146 -111 -186 -157q-71 -84 -71 -174q0 -89 35 -129q65 -73 183 -73q213 0 441 209l-35 -183q-213 -167 -444 -170q-173 0 -269 94q-96 95 -96 219zM802 797 q-52 1 -86 35t-34 90t38 101q38 44 88 44t89 -32t39 -93t-41 -103t-93 -42z"/>
    <glyph glyph-name="Agrave" unicode="À" horiz-adv-x="1458" d="M1059 618l-55 472q-23 161 -23 262q-48 -109 -131 -262l-250 -472h459zM25 23v39q0 26 24 71h133l748 1378h190l174 -1378h131q2 -10 2 -23v-30q0 -35 -24 -80h-483q-2 10 -2 23v30q0 35 24 80h176l-41 346h-553l-184 -346h158q2 -10 2 -23v-30q0 -36 -25 -80h-448 q-2 10 -2 23zM778 1890h213l123 -278h-133z"/>
    <glyph glyph-name="Aacute" unicode="Á" horiz-adv-x="1458" d="M1059 618l-55 472q-23 161 -23 262q-48 -109 -131 -262l-250 -472h459zM25 23v39q0 26 24 71h133l748 1378h190l174 -1378h131q2 -10 2 -23v-30q0 -35 -24 -80h-483q-2 10 -2 23v30q0 35 24 80h176l-41 346h-553l-184 -346h158q2 -10 2 -23v-30q0 -36 -25 -80h-448 q-2 10 -2 23zM1188 1890h213l-303 -278h-144z"/>
    <glyph glyph-name="Acircumflex" unicode="Â" horiz-adv-x="1458" d="M1059 618l-55 472q-23 161 -23 262q-48 -109 -131 -262l-250 -472h459zM25 23v39q0 26 24 71h133l748 1378h190l174 -1378h131q2 -10 2 -23v-30q0 -35 -24 -80h-483q-2 10 -2 23v30q0 35 24 80h176l-41 346h-553l-184 -346h158q2 -10 2 -23v-30q0 -36 -25 -80h-448 q-2 10 -2 23zM995 1890h176l142 -278h-146l-98 196l-178 -196h-148z"/>
    <glyph glyph-name="Atilde" unicode="Ã" horiz-adv-x="1458" d="M1059 618l-55 472q-23 161 -23 262q-48 -109 -131 -262l-250 -472h459zM25 23v39q0 26 24 71h133l748 1378h190l174 -1378h131q2 -10 2 -23v-30q0 -35 -24 -80h-483q-2 10 -2 23v30q0 35 24 80h176l-41 346h-553l-184 -346h158q2 -10 2 -23v-30q0 -36 -25 -80h-448 q-2 10 -2 23zM786 1642h-112q29 94 75 140q79 78 179 80q61 0 96 -16q137 -61 178 -60q41 0 62 24q20 24 28 38q8 15 15 26h112q-78 -219 -254 -219q-41 0 -77 13t-94 38q-59 25 -113 26t-95 -90z"/>
    <glyph glyph-name="Adieresis" unicode="Ä" horiz-adv-x="1458" d="M1059 618l-55 472q-23 161 -23 262q-48 -109 -131 -262l-250 -472h459zM25 23v39q0 26 24 71h133l748 1378h190l174 -1378h131q2 -10 2 -23v-30q0 -35 -24 -80h-483q-2 10 -2 23v30q0 35 24 80h176l-41 346h-553l-184 -346h158q2 -10 2 -23v-30q0 -36 -25 -80h-448 q-2 10 -2 23zM848 1841q40 1 68 -27t28 -72t-30 -79t-69 -35q-40 0 -71 25t-31 73t32 82q32 33 73 33zM1204 1841q40 1 69 -27q27 -28 27 -72t-30 -79t-69 -35q-40 0 -71 25q-30 25 -30 73t32 82q32 33 72 33z"/>
    <glyph glyph-name="Aring" unicode="Å" horiz-adv-x="1458" d="M1059 618l-55 472q-23 161 -23 262q-48 -109 -131 -262l-250 -472h459zM1028 1513q49 0 87 38t38 87t-38 87t-87 38t-87 -38t-38 -87t38 -87t87 -38zM25 23v39q0 26 24 71h133l723 1331q-41 29 -65 75q-25 46 -25 94q1 95 63 157q62 61 150 61t151 -62q62 -62 62 -136 q0 -136 -113 -203l166 -1317h131q2 -10 2 -23v-30q0 -35 -24 -80h-483q-2 10 -2 23v30q0 35 24 80h176l-41 346h-553l-184 -346h158q2 -10 2 -23v-30q0 -36 -25 -80h-448q-2 10 -2 23z"/>
    <glyph glyph-name="AE" unicode="Æ" horiz-adv-x="2033" d="M1135 643l143 703h-131l-469 -703h457zM12 23v39q0 27 25 71h135l829 1227h-190q-2 10 -2 23v30q0 36 25 80h1374l-88 -438q-65 -22 -154 4l62 287h-572l-102 -504h559q4 -10 4 -22v-25q0 -59 -27 -101h-567l-109 -547h580l61 297q33 11 71 11t83 -15l-88 -440h-1063 q-2 10 -2 23v30q0 36 25 80h151l74 369h-522l-246 -369h180q2 -10 2 -23v-30q0 -35 -24 -80h-482q-2 10 -2 23z"/>
    <glyph glyph-name="Ccedilla" unicode="Ç" horiz-adv-x="1392" d="M627 -354q40 0 75 6t56 33q20 26 20 55q0 69 -80 72q-37 0 -80 -21l-26 39l129 137q-256 22 -386 221q-102 157 -102 358q0 406 219 688q103 134 247 215t321 81q261 0 360 -172l31 137q37 12 67 12t78 -12l-116 -575q-90 -29 -154 2q10 66 18 108t9 89q0 113 -72 187 t-215 74q-268 0 -433 -239t-165 -558q0 -320 223 -426q72 -34 158 -34q214 0 413 148q54 42 101 83l-45 -237q-72 -53 -188 -101t-265 -51l-75 -84q20 4 45 4q73 0 105 -38t32 -87q0 -91 -79 -149q-79 -57 -180 -57t-190 43l39 79q65 -30 105 -30z"/>
    <glyph glyph-name="Egrave" unicode="È" horiz-adv-x="1251" d="M66 23v39q0 26 24 71h152l247 1227h-147q-2 10 -2 23v30q0 36 25 80h1069l-88 -438q-65 -22 -154 4l61 287h-587l-103 -504h584q4 -10 4 -22v-25q0 -59 -27 -101h-592l-108 -547h596l61 297q33 11 71 11t83 -15l-88 -440h-1079q-2 10 -2 23zM762 1890h213l123 -278h-133z "/>
    <glyph glyph-name="Eacute" unicode="É" horiz-adv-x="1251" d="M66 23v39q0 26 24 71h152l247 1227h-147q-2 10 -2 23v30q0 36 25 80h1069l-88 -438q-65 -22 -154 4l61 287h-587l-103 -504h584q4 -10 4 -22v-25q0 -59 -27 -101h-592l-108 -547h596l61 297q33 11 71 11t83 -15l-88 -440h-1079q-2 10 -2 23zM1106 1890h213l-303 -278 h-144z"/>
    <glyph glyph-name="Ecircumflex" unicode="Ê" horiz-adv-x="1251" d="M66 23v39q0 26 24 71h152l247 1227h-147q-2 10 -2 23v30q0 36 25 80h1069l-88 -438q-65 -22 -154 4l61 287h-587l-103 -504h584q4 -10 4 -22v-25q0 -59 -27 -101h-592l-108 -547h596l61 297q33 11 71 11t83 -15l-88 -440h-1079q-2 10 -2 23zM954 1890h176l142 -278h-146 l-98 196l-178 -196h-148z"/>
    <glyph glyph-name="Edieresis" unicode="Ë" horiz-adv-x="1251" d="M66 23v39q0 26 24 71h152l247 1227h-147q-2 10 -2 23v30q0 36 25 80h1069l-88 -438q-65 -22 -154 4l61 287h-587l-103 -504h584q4 -10 4 -22v-25q0 -59 -27 -101h-592l-108 -547h596l61 297q33 11 71 11t83 -15l-88 -440h-1079q-2 10 -2 23zM815 1841q41 1 69 -27t28 -72 t-30 -79t-70 -35t-71 25t-31 73t32 82q32 33 73 33zM1168 1628q-40 0 -70 25t-31 73q0 48 32 82q33 33 73 33q40 1 68 -27t28 -72t-30 -79t-70 -35z"/>
    <glyph glyph-name="Igrave" unicode="Ì" horiz-adv-x="645" d="M82 23v39q0 26 24 71h152l248 1227h-148q-2 10 -2 23v30q0 36 25 80h479q2 -10 2 -23v-30q0 -35 -24 -80h-154l-246 -1227h148q2 -10 2 -23v-30q0 -36 -25 -80h-479q-2 10 -2 23zM414 1890h213l123 -278h-134z"/>
    <glyph glyph-name="Iacute" unicode="Í" horiz-adv-x="645" d="M82 23v39q0 26 24 71h152l248 1227h-148q-2 10 -2 23v30q0 36 25 80h479q2 -10 2 -23v-30q0 -35 -24 -80h-154l-246 -1227h148q2 -10 2 -23v-30q0 -36 -25 -80h-479q-2 10 -2 23zM803 1890h213l-303 -278h-144z"/>
    <glyph glyph-name="Icircumflex" unicode="Î" horiz-adv-x="645" d="M82 23v39q0 26 24 71h152l248 1227h-148q-2 10 -2 23v30q0 36 25 80h479q2 -10 2 -23v-30q0 -35 -24 -80h-154l-246 -1227h148q2 -10 2 -23v-30q0 -36 -25 -80h-479q-2 10 -2 23zM598 1890h176l141 -278h-145l-98 196l-178 -196h-148z"/>
    <glyph glyph-name="Idieresis" unicode="Ï" horiz-adv-x="645" d="M82 23v39q0 26 24 71h152l248 1227h-148q-2 10 -2 23v30q0 36 25 80h479q2 -10 2 -23v-30q0 -35 -24 -80h-154l-246 -1227h148q2 -10 2 -23v-30q0 -36 -25 -80h-479q-2 10 -2 23zM477 1841q41 1 69 -27t28 -72t-30 -79t-70 -35t-71 25t-31 73t32 82q32 33 73 33z M830 1628q-40 0 -70 25t-31 73q0 48 32 82q32 33 73 33q40 1 68 -27t28 -72t-30 -79t-70 -35z"/>
    <glyph glyph-name="Eth" unicode="Ð" horiz-adv-x="1431" d="M737 147q246 0 407 214t161 552q0 302 -197 398q-72 35 -178 35h-266l-103 -510h320l-27 -134h-319l-113 -555h315zM66 23v39q0 26 24 71h152l114 569h-161l26 134h162l106 524h-147q-2 10 -2 23v30q0 36 25 80h573q319 0 457 -183q108 -144 107 -386q-2 -471 -296 -742 q-207 -182 -485 -182h-653q-2 10 -2 23z"/>
    <glyph glyph-name="Ntilde" unicode="Ñ" horiz-adv-x="1472" d="M66 23v39q0 26 24 71h152l247 1227h-147q-2 10 -2 23v30q0 36 25 80h358l364 -1051q28 -84 64 -258q20 122 27 160q8 37 13 65t7 33l178 918h-143q-2 10 -2 23v30q0 35 24 80h453q2 -10 2 -23v-30q0 -35 -24 -80h-154l-270 -1378h-183l-385 1110q-47 145 -65 268 q-18 -145 -49 -305l-183 -922h148q2 -10 2 -23v-30q0 -36 -25 -80h-454q-2 10 -2 23zM1249 1786q61 0 99 62q8 15 14 26h113q-78 -219 -254 -219q-41 0 -77 13q-36 14 -84 34q-115 49 -157 21q-42 -27 -61 -81h-113q29 94 75 140q79 78 179 80q61 0 96 -16q136 -60 170 -60z "/>
    <glyph glyph-name="Ograve" unicode="Ò" horiz-adv-x="1523" d="M836 111q90 0 194 60q214 124 312 431q48 152 48 334t-85 303q-102 143 -299 143q-126 0 -230 -63t-180 -173q-162 -234 -162 -571q0 -246 124 -368q97 -96 278 -96zM818 -37q-178 0 -284 57q-208 110 -268 350q-53 203 -6 435t181 419q135 187 346 266q108 40 243 40 q134 0 240 -45q316 -135 317 -582q0 -151 -49 -323t-148 -310q-98 -138 -246 -222q-148 -85 -326 -85zM899 1890h213l123 -278h-133z"/>
    <glyph glyph-name="Oacute" unicode="Ó" horiz-adv-x="1523" d="M836 111q90 0 194 60q214 124 312 431q48 152 48 334t-85 303q-102 143 -299 143q-126 0 -230 -63t-180 -173q-162 -234 -162 -571q0 -246 124 -368q97 -96 278 -96zM818 -37q-178 0 -284 57q-208 110 -268 350q-53 203 -6 435t181 419q135 187 346 266q108 40 243 40 q134 0 240 -45q316 -135 317 -582q0 -151 -49 -323t-148 -310q-98 -138 -246 -222q-148 -85 -326 -85zM1202 1890h213l-303 -278h-143z"/>
    <glyph glyph-name="Ocircumflex" unicode="Ô" horiz-adv-x="1523" d="M836 111q90 0 194 60q214 124 312 431q48 152 48 334t-85 303q-102 143 -299 143q-126 0 -230 -63t-180 -173q-162 -234 -162 -571q0 -246 124 -368q97 -96 278 -96zM818 -37q-178 0 -284 57q-208 110 -268 350q-53 203 -6 435t181 419q135 187 346 266q108 40 243 40 q134 0 240 -45q316 -135 317 -582q0 -151 -49 -323t-148 -310q-98 -138 -246 -222q-148 -85 -326 -85zM1049 1890h176l141 -278h-145l-99 196l-178 -196h-147z"/>
    <glyph glyph-name="Otilde" unicode="Õ" horiz-adv-x="1523" d="M836 111q90 0 194 60q214 124 312 431q48 152 48 334t-85 303q-102 143 -299 143q-126 0 -230 -63t-180 -173q-162 -234 -162 -571q0 -246 124 -368q97 -96 278 -96zM818 -37q-178 0 -284 57q-208 110 -268 350q-53 203 -6 435t181 419q135 187 346 266q108 40 243 40 q134 0 240 -45q316 -135 317 -582q0 -151 -49 -323t-148 -310q-98 -138 -246 -222q-148 -85 -326 -85zM1483 1874q-78 -219 -254 -219q-41 0 -77 13q-36 14 -84 34q-115 49 -157 21q-42 -27 -61 -81h-113q29 94 75 140q79 78 179 80q61 0 96 -16q137 -61 179 -60q53 0 90 62 q8 15 14 26h113z"/>
    <glyph glyph-name="Odieresis" unicode="Ö" horiz-adv-x="1523" d="M836 111q90 0 194 60q214 124 312 431q48 152 48 334t-85 303q-102 143 -299 143q-126 0 -230 -63t-180 -173q-162 -234 -162 -571q0 -246 124 -368q97 -96 278 -96zM818 -37q-178 0 -284 57q-208 110 -268 350q-53 203 -6 435t181 419q135 187 346 266q108 40 243 40 q134 0 240 -45q316 -135 317 -582q0 -151 -49 -323t-148 -310q-98 -138 -246 -222q-148 -85 -326 -85zM932 1841q40 1 68 -27t28 -72t-30 -79t-69 -35q-40 0 -71 25t-31 73t32 82q32 33 73 33zM1288 1841q41 1 69 -27q27 -28 27 -72t-30 -79t-69 -35q-40 0 -71 25 q-30 25 -30 73t31 82q32 33 73 33z"/>
    <glyph glyph-name="multiply" unicode="×" horiz-adv-x="1110" d="M573 684l-313 313l102 105l316 -314l313 314l99 -98l-314 -314l314 -315l-105 -103l-313 314l-314 -314l-98 99z"/>
    <glyph glyph-name="Oslash" unicode="Ø" horiz-adv-x="1523" d="M535 233q101 -124 278 -122q113 0 217 60q214 124 312 431q48 152 49 334q0 76 -15 131zM434 575q0 -120 31 -215l860 848q-98 174 -319 174q-126 0 -230 -63t-180 -173q-162 -234 -162 -571zM238 592q0 348 201 631q137 188 348 267q108 40 235 40q289 0 438 -187 l182 181l99 -99l-209 -206q55 -127 55 -297t-49 -342q-104 -365 -395 -532q-147 -85 -344 -85q-243 0 -389 148l-183 -181l-98 99l197 194q-88 161 -88 369z"/>
    <glyph glyph-name="Ugrave" unicode="Ù" horiz-adv-x="1474" d="M1714 1470v-39q0 -26 -24 -71h-150l-176 -887q-49 -225 -160 -336q-165 -174 -440 -174q-230 0 -351 112q-120 112 -120 304q0 46 12 121l172 860h-139q-2 10 -2 23v30q0 35 24 80h478q2 -10 2 -23v-30q0 -36 -25 -80h-160l-168 -842q-14 -56 -14 -130q0 -141 89 -207 t224 -66q177 0 278 96t140 297l170 852h-149q-2 10 -2 23v30q0 35 24 80h465q2 -10 2 -23zM823 1890h213l123 -278h-133z"/>
    <glyph glyph-name="Uacute" unicode="Ú" horiz-adv-x="1474" d="M1714 1470v-39q0 -26 -24 -71h-150l-176 -887q-49 -225 -160 -336q-165 -174 -440 -174q-230 0 -351 112q-120 112 -120 304q0 46 12 121l172 860h-139q-2 10 -2 23v30q0 35 24 80h478q2 -10 2 -23v-30q0 -36 -25 -80h-160l-168 -842q-14 -56 -14 -130q0 -141 89 -207 t224 -66q177 0 278 96t140 297l170 852h-149q-2 10 -2 23v30q0 35 24 80h465q2 -10 2 -23zM1198 1890h213l-303 -278h-143z"/>
    <glyph glyph-name="Ucircumflex" unicode="Û" horiz-adv-x="1474" d="M1714 1470v-39q0 -26 -24 -71h-150l-176 -887q-49 -225 -160 -336q-165 -174 -440 -174q-230 0 -351 112q-120 112 -120 304q0 46 12 121l172 860h-139q-2 10 -2 23v30q0 35 24 80h478q2 -10 2 -23v-30q0 -36 -25 -80h-160l-168 -842q-14 -56 -14 -130q0 -141 89 -207 t224 -66q177 0 278 96t140 297l170 852h-149q-2 10 -2 23v30q0 35 24 80h465q2 -10 2 -23zM1024 1890h176l141 -278h-145l-98 196l-178 -196h-148z"/>
    <glyph glyph-name="Udieresis" unicode="Ü" horiz-adv-x="1474" d="M1714 1470v-39q0 -26 -24 -71h-150l-176 -887q-49 -225 -160 -336q-165 -174 -440 -174q-230 0 -351 112q-120 112 -120 304q0 46 12 121l172 860h-139q-2 10 -2 23v30q0 35 24 80h478q2 -10 2 -23v-30q0 -36 -25 -80h-160l-168 -842q-14 -56 -14 -130q0 -141 89 -207 t224 -66q177 0 278 96t140 297l170 852h-149q-2 10 -2 23v30q0 35 24 80h465q2 -10 2 -23zM887 1841q41 1 69 -27t27 -72q1 -44 -29 -79t-70 -35t-71 25t-31 73t32 82q32 33 73 33zM1243 1841q41 1 69 -27t28 -72t-30 -79t-70 -35t-71 25t-31 73t32 82q32 33 73 33z"/>
    <glyph glyph-name="Yacute" unicode="Ý" horiz-adv-x="1400" d="M453 23v39q0 26 24 71h154l92 467l-315 760h-107q-2 10 -2 23v30q0 36 25 80h473q2 -10 2 -23v-30q0 -36 -25 -80h-184l250 -621l520 621h-178q-2 10 -2 23v30q0 35 24 80h471q2 -10 2 -23v-30q0 -35 -24 -80h-111l-639 -760l-94 -467h168q2 -10 2 -23v-30q0 -36 -25 -80 h-499q-2 10 -2 23zM1141 1890h213l-303 -278h-144z"/>
    <glyph glyph-name="Thorn" unicode="Þ" horiz-adv-x="1239" d="M805 477q154 0 252 85t98 251q0 105 -50 161t-167 56h-340l-113 -553h320zM940 1178q403 0 403 -363q0 -209 -142 -347t-384 -138h-362l-39 -197h168q2 -10 2 -23v-30q0 -36 -25 -80h-493q-2 10 -2 23v39q0 26 24 71h152l247 1227h-147q-2 10 -2 23v30q0 36 25 80h493 q2 -10 2 -23v-30q0 -35 -24 -80h-172l-35 -182h311z"/>
    <glyph glyph-name="germandbls" unicode="ß" horiz-adv-x="1146" d="M24 -231q122 0 156 192l201 1165q53 309 296 412q83 35 182 35q175 0 273 -105q78 -84 78 -190q0 -176 -104 -302q-73 -88 -166 -130q86 -31 145 -112t59 -208q1 -251 -135 -404q-137 -153 -339 -153q-126 0 -219 45l24 152q64 -51 187 -51t212 101t89 292 q0 264 -279 264h-63q-15 76 24 135h66q144 0 237 100q94 100 92 234q0 81 -25 119q-49 76 -169 78q-208 0 -284 -245q-24 -77 -38 -171l-174 -1051q-31 -182 -123 -261t-193 -79t-163 31l27 131q64 -24 126 -24z"/>
    <glyph glyph-name="agrave" unicode="à" d="M352 381q0 -262 186 -262q64 0 134 58q70 57 124 147t87 195t33 207t-53 159q-52 57 -134 57q-83 0 -153 -50t-119 -130q-105 -171 -105 -381zM1106 71q0 -44 -29 -71h-272l53 256q-90 -192 -256 -259q-61 -26 -137 -26t-132 32q-107 61 -146 205q-17 67 -17 138 q0 344 221 578q134 145 330 145q125 0 204 -79q30 -30 48 -75l78 123h106l-186 -919h133q2 -4 2 -48zM645 1456h213l123 -278h-133z"/>
    <glyph glyph-name="aacute" unicode="á" d="M352 381q0 -262 186 -262q64 0 134 58q70 57 124 147t87 195t33 207t-53 159q-52 57 -134 57q-83 0 -153 -50t-119 -130q-105 -171 -105 -381zM1106 71q0 -44 -29 -71h-272l53 256q-90 -192 -256 -259q-61 -26 -137 -26t-132 32q-107 61 -146 205q-17 67 -17 138 q0 344 221 578q134 145 330 145q125 0 204 -79q30 -30 48 -75l78 123h106l-186 -919h133q2 -4 2 -48zM963 1456h213l-304 -278h-143z"/>
    <glyph glyph-name="acircumflex" unicode="â" d="M352 381q0 -262 186 -262q64 0 134 58q70 57 124 147t87 195t33 207t-53 159q-52 57 -134 57q-83 0 -153 -50t-119 -130q-105 -171 -105 -381zM1106 71q0 -44 -29 -71h-272l53 256q-90 -192 -256 -259q-61 -26 -137 -26t-132 32q-107 61 -146 205q-17 67 -17 138 q0 344 221 578q134 145 330 145q125 0 204 -79q30 -30 48 -75l78 123h106l-186 -919h133q2 -4 2 -48zM805 1456h176l141 -278h-145l-98 196l-179 -196h-147z"/>
    <glyph glyph-name="atilde" unicode="ã" d="M352 381q0 -262 186 -262q64 0 134 58q70 57 124 147t87 195t33 207t-53 159q-52 57 -134 57q-83 0 -153 -50t-119 -130q-105 -171 -105 -381zM1106 71q0 -44 -29 -71h-272l53 256q-90 -192 -256 -259q-61 -26 -137 -26t-132 32q-107 61 -146 205q-17 67 -17 138 q0 344 221 578q134 145 330 145q125 0 204 -79q30 -30 48 -75l78 123h106l-186 -919h133q2 -4 2 -48zM717 1427q61 0 96 -15q140 -60 176 -60q61 0 92 62q8 15 15 26h112q-78 -219 -254 -219q-40 0 -76 13q-36 12 -96 38t-113 26t-94 -90h-112q29 94 75 140q80 79 179 79z "/>
    <glyph glyph-name="adieresis" unicode="ä" d="M352 381q0 -262 186 -262q64 0 134 58q70 57 124 147t87 195t33 207t-53 159q-52 57 -134 57q-83 0 -153 -50t-119 -130q-105 -171 -105 -381zM1106 71q0 -44 -29 -71h-272l53 256q-90 -192 -256 -259q-61 -26 -137 -26t-132 32q-107 61 -146 205q-17 67 -17 138 q0 344 221 578q134 145 330 145q125 0 204 -79q30 -30 48 -75l78 123h106l-186 -919h133q2 -4 2 -48zM658 1194q-40 0 -70 25t-31 73q0 48 32 82q32 33 73 33q40 0 68 -28q28 -27 28 -71t-30 -79t-70 -35zM1018 1407q40 0 68 -28q28 -27 28 -71t-30 -79t-69 -35 q-40 0 -71 25t-31 73t32 82q32 33 73 33z"/>
    <glyph glyph-name="aring" unicode="å" d="M352 381q0 -262 186 -262q64 0 134 58q70 57 124 147t87 195t33 207t-53 159q-52 57 -134 57q-83 0 -153 -50t-119 -130q-105 -171 -105 -381zM1106 71q0 -44 -29 -71h-272l53 256q-90 -192 -256 -259q-61 -26 -137 -26t-132 32q-107 61 -146 205q-17 67 -17 138 q0 344 221 578q134 145 330 145q125 0 204 -79q30 -30 48 -75l78 123h106l-186 -919h133q2 -4 2 -48zM866 1262q49 0 87 38t38 86q0 50 -38 88t-87 38t-87 -38t-38 -88t38 -86q38 -38 87 -38zM1017 1537q62 -63 62 -151t-62 -150t-152 -62t-151 62t-61 150q1 88 63 150 t150 63q88 0 151 -62z"/>
    <glyph glyph-name="ae" unicode="æ" horiz-adv-x="1648" d="M538 119q64 0 133.5 58.5t124 147.5t87 194.5t32.5 207t-52 158.5t-134 57t-152.5 -50t-119.5 -130q-105 -171 -105 -361q0 -191 88 -257q34 -26 98 -25zM1573 811q0 61 -35 100t-118 39q-151 0 -259 -150q-79 -109 -102 -241h10q258 -2 381 66.5t123 185.5zM1047 403 q0 -143 64.5 -213.5t170.5 -70.5q158 0 284 94q34 25 58 47l-37 -194q-155 -95 -321 -95t-254 71t-123 194q-92 -125 -159 -173q-127 -92 -269 -92t-216.5 111t-74.5 284q0 321 221 558q134 145 330 145q63 0 135 -30.5t119 -123.5l74 123h98l-27 -133q72 99 230 147 q50 16 104 15q137 0 209 -73.5t72 -167.5q0 -183 -167 -284.5t-503 -101.5h-18v-37z"/>
    <glyph glyph-name="ccedilla" unicode="ç" horiz-adv-x="972" d="M354 430q0 -311 248 -307q78 0 130 20q99 38 220 148l-37 -193q-125 -114 -315 -125l-86 -92q20 4 45 4q72 0 105 -38q32 -38 32 -87q-1 -93 -79 -150q-79 -56 -180 -56t-189 43l39 79q66 -30 105 -30q147 0 151 94q0 69 -80 72q-37 0 -80 -21l-27 39l142 150 q-168 20 -247 132t-79 285q0 229 125 430q90 146 233 208q74 32 171 32t148 -32q52 -32 83 -87l20 88q64 25 121 0l-86 -415q-66 -26 -131 0q21 128 21 145q0 78 -42 127q-41 49 -133 49t-153 -50q-122 -100 -171 -296q-24 -92 -24 -166z"/>
    <glyph glyph-name="egrave" unicode="è" horiz-adv-x="956" d="M881 811q0 61 -36 100t-121 39t-150 -44q-66 -44 -108 -106q-80 -117 -99 -241h10q260 -2 382 67t122 185zM354 403q0 -143 65 -214t171 -70q182 0 342 141l-37 -194q-155 -95 -341 -95q-187 0 -284 119q-96 119 -96 323t126 405q93 150 252 215q83 34 187 34 q154 0 229 -74q74 -74 74 -167q-1 -183 -167 -285q-166 -101 -502 -101h-19v-37zM614 1456h213l123 -278h-133z"/>
    <glyph glyph-name="eacute" unicode="é" horiz-adv-x="956" d="M881 811q0 61 -36 100t-121 39t-150 -44q-66 -44 -108 -106q-80 -117 -99 -241h10q260 -2 382 67t122 185zM354 403q0 -143 65 -214t171 -70q182 0 342 141l-37 -194q-155 -95 -341 -95q-187 0 -284 119q-96 119 -96 323t126 405q93 150 252 215q83 34 187 34 q154 0 229 -74q74 -74 74 -167q-1 -183 -167 -285q-166 -101 -502 -101h-19v-37zM918 1456h212l-303 -278h-143z"/>
    <glyph glyph-name="ecircumflex" unicode="ê" horiz-adv-x="956" d="M881 811q0 61 -36 100t-121 39t-150 -44q-66 -44 -108 -106q-80 -117 -99 -241h10q260 -2 382 67t122 185zM354 403q0 -143 65 -214t171 -70q182 0 342 141l-37 -194q-155 -95 -341 -95q-187 0 -284 119q-96 119 -96 323t126 405q93 150 252 215q83 34 187 34 q154 0 229 -74q74 -74 74 -167q-1 -183 -167 -285q-166 -101 -502 -101h-19v-37zM743 1456h177l141 -278h-146l-98 196l-178 -196h-147z"/>
    <glyph glyph-name="edieresis" unicode="ë" horiz-adv-x="956" d="M881 811q0 61 -36 100t-121 39t-150 -44q-66 -44 -108 -106q-80 -117 -99 -241h10q260 -2 382 67t122 185zM354 403q0 -143 65 -214t171 -70q182 0 342 141l-37 -194q-155 -95 -341 -95q-187 0 -284 119q-96 119 -96 323t126 405q93 150 252 215q83 34 187 34 q154 0 229 -74q74 -74 74 -167q-1 -183 -167 -285q-166 -101 -502 -101h-19v-37zM623 1194q-41 0 -71 25t-30 73t32 82q32 33 73 33t69 -28q28 -27 27 -71q0 -44 -30 -79t-70 -35zM980 1194q-40 0 -71 25t-31 73t32 82q32 33 73 33t69 -28q28 -27 28 -71t-30 -79t-70 -35z "/>
    <glyph glyph-name="igrave" unicode="ì" horiz-adv-x="571" d="M526 74q0 -39 -26 -74h-299l186 920h-131q-2 6 -2 45t27 73h297l-187 -919h133q2 -6 2 -45zM252 1456h213l123 -278h-133z"/>
    <glyph glyph-name="iacute" unicode="í" horiz-adv-x="571" d="M526 74q0 -39 -26 -74h-299l186 920h-131q-2 6 -2 45t27 73h297l-187 -919h133q2 -6 2 -45zM627 1456h213l-303 -278h-144z"/>
    <glyph glyph-name="icircumflex" unicode="î" horiz-adv-x="571" d="M526 74q0 -39 -26 -74h-299l186 920h-131q-2 6 -2 45t27 73h297l-187 -919h133q2 -6 2 -45zM430 1456h176l142 -278h-146l-98 196l-178 -196h-148z"/>
    <glyph glyph-name="idieresis" unicode="ï" horiz-adv-x="571" d="M526 74q0 -39 -26 -74h-299l186 920h-131q-2 6 -2 45t27 73h297l-187 -919h133q2 -6 2 -45zM292 1194q-40 0 -71 25t-31 73t32 82q32 33 73 33t69 -28q28 -27 28 -71t-30 -79t-70 -35zM648 1194q-40 0 -70 25t-31 73q0 48 32 82q33 33 73 33t68 -28q28 -27 28 -71 t-30 -79t-70 -35z"/>
    <glyph glyph-name="eth" unicode="ð" horiz-adv-x="1099" d="M599 109q85 0 155 59q128 108 172 314q18 88 18 136t-7 95q-16 106 -100 160q-46 30 -120 30q-128 0 -230 -111t-134 -314q-7 -50 -7 -98q0 -193 123 -250q45 -21 130 -21zM1137 745q0 -308 -149 -530q-162 -244 -442 -244q-154 -1 -264 105q-108 106 -108 309 q0 102 34 217q73 248 270 373q101 63 211 63q109 0 183 -41t99 -96q-23 201 -148 377l-207 -148l-55 87l197 139q-70 70 -162 119l57 98q115 -57 211 -141l203 143l59 -84l-192 -135q203 -236 203 -611z"/>
    <glyph glyph-name="ntilde" unicode="ñ" d="M938 805q0 117 -121 117q-102 0 -219 -159t-170 -405l-74 -358h-166l185 920h-131q-2 6 -2 45t26 73h271l-56 -278q50 108 154 207q104 100 231 100q126 0 186 -65t60 -150t-14 -145l-142 -588h152q2 -6 2 -45t-27 -74h-317l147 635q25 118 25 170zM713 1427q61 0 96 -15 q140 -60 176 -60q61 0 92 62q8 15 15 26h112q-78 -219 -254 -219q-41 0 -77 13q-36 12 -96 38t-112 26q-53 0 -94 -90h-112q29 94 75 140q80 79 179 79z"/>
    <glyph glyph-name="ograve" unicode="ò" horiz-adv-x="1079" d="M346 410q0 -301 236 -301q102 0 172 61q129 112 172 324q18 92 18 139t-7 96q-16 111 -100 171q-46 32 -120 32q-130 0 -231 -116t-133 -322q-7 -51 -7 -84zM584 -29q-108 0 -178 29q-72 29 -123 84t-80 134t-29 181q0 103 34 221q73 254 277 381q105 66 231 66t200 -41 q200 -110 200 -360q0 -129 -38 -254q-80 -260 -284 -380q-102 -60 -210 -61zM594 1456h213l123 -278h-133z"/>
    <glyph glyph-name="oacute" unicode="ó" horiz-adv-x="1079" d="M346 410q0 -301 236 -301q102 0 172 61q129 112 172 324q18 92 18 139t-7 96q-16 111 -100 171q-46 32 -120 32q-130 0 -231 -116t-133 -322q-7 -51 -7 -84zM584 -29q-108 0 -178 29q-72 29 -123 84t-80 134t-29 181q0 103 34 221q73 254 277 381q105 66 231 66t200 -41 q200 -110 200 -360q0 -129 -38 -254q-80 -260 -284 -380q-102 -60 -210 -61zM918 1456h212l-303 -278h-143z"/>
    <glyph glyph-name="ocircumflex" unicode="ô" horiz-adv-x="1079" d="M346 410q0 -301 236 -301q102 0 172 61q129 112 172 324q18 92 18 139t-7 96q-16 111 -100 171q-46 32 -120 32q-130 0 -231 -116t-133 -322q-7 -51 -7 -84zM584 -29q-108 0 -178 29q-72 29 -123 84t-80 134t-29 181q0 103 34 221q73 254 277 381q105 66 231 66t200 -41 q200 -110 200 -360q0 -129 -38 -254q-80 -260 -284 -380q-102 -60 -210 -61zM743 1456h177l141 -278h-146l-98 196l-178 -196h-147z"/>
    <glyph glyph-name="otilde" unicode="õ" horiz-adv-x="1079" d="M346 410q0 -301 236 -301q102 0 172 61q129 112 172 324q18 92 18 139t-7 96q-16 111 -100 171q-46 32 -120 32q-130 0 -231 -116t-133 -322q-7 -51 -7 -84zM584 -29q-108 0 -178 29q-72 29 -123 84t-80 134t-29 181q0 103 34 221q73 254 277 381q105 66 231 66t200 -41 q200 -110 200 -360q0 -129 -38 -254q-80 -260 -284 -380q-102 -60 -210 -61zM684 1427q61 0 96 -15q107 -46 133 -53q27 -7 49 -7q52 0 87 62q8 15 14 26h113q-78 -219 -254 -219q-41 0 -77 13q-36 12 -96 38t-94 26q-79 0 -112 -90h-113q29 94 75 140q80 79 179 79z"/>
    <glyph glyph-name="odieresis" unicode="ö" horiz-adv-x="1079" d="M346 410q0 -301 236 -301q102 0 172 61q129 112 172 324q18 92 18 139t-7 96q-16 111 -100 171q-46 32 -120 32q-130 0 -231 -116t-133 -322q-7 -51 -7 -84zM584 -29q-108 0 -178 29q-72 29 -123 84t-80 134t-29 181q0 103 34 221q73 254 277 381q105 66 231 66t200 -41 q200 -110 200 -360q0 -129 -38 -254q-80 -260 -284 -380q-102 -60 -210 -61zM644 1194q-40 0 -71 25t-31 73t32 82q32 33 73 33t69 -28q28 -27 28 -71t-30 -79t-70 -35zM1000 1194q-40 0 -70 25t-31 73q0 48 32 82q32 33 73 33q40 0 68 -28q28 -27 28 -71t-30 -79t-70 -35z "/>
    <glyph glyph-name="divide" unicode="÷" horiz-adv-x="1110" d="M541 271q0 59 42 99t98 40t97 -41t41 -83q0 -104 -85 -144q-26 -11 -68 -11t-83 41q-42 41 -42 99zM176 758h1004v-146h-1004v146zM541 1105q0 58 42 98t98 40t97 -41t41 -83q0 -104 -85 -143q-26 -11 -68 -11t-83 41q-42 41 -42 99z"/>
    <glyph glyph-name="oslash" unicode="ø" horiz-adv-x="1079" d="M576 109q108 0 178 61q129 112 172 324q18 92 18 128v53q0 15 -4 32l-530 -527q58 -71 166 -71zM905 827q-61 105 -189 105t-230 -116q-101 -116 -133 -322q-7 -50 -7 -100t12 -107zM729 1067q187 0 293 -125l129 129l78 -80l-148 -147q35 -90 35 -198t-38 -234 q-79 -260 -283 -380q-102 -60 -249 -60t-249 100l-127 -127l-78 80l137 135q-55 98 -55 220q0 261 137 457q70 99 174 165t244 65z"/>
    <glyph glyph-name="ugrave" unicode="ù" d="M1092 75q0 -40 -27 -75h-270l55 279q-68 -127 -129 -185q-128 -123 -255 -123q-128 0 -187 65q-91 100 -46 296l142 588h-152q-2 4 -2 44t27 74h317l-147 -635q-25 -118 -25 -170q0 -118 121 -116q103 0 220 159t169 404l74 358h166l-185 -919h132q2 -4 2 -44zM563 1456 h213l123 -278h-133z"/>
    <glyph glyph-name="uacute" unicode="ú" d="M1092 75q0 -40 -27 -75h-270l55 279q-68 -127 -129 -185q-128 -123 -255 -123q-128 0 -187 65q-91 100 -46 296l142 588h-152q-2 4 -2 44t27 74h317l-147 -635q-25 -118 -25 -170q0 -118 121 -116q103 0 220 159t169 404l74 358h166l-185 -919h132q2 -4 2 -44zM928 1456 h213l-303 -278h-144z"/>
    <glyph glyph-name="ucircumflex" unicode="û" d="M1092 75q0 -40 -27 -75h-270l55 279q-68 -127 -129 -185q-128 -123 -255 -123q-128 0 -187 65q-91 100 -46 296l142 588h-152q-2 4 -2 44t27 74h317l-147 -635q-25 -118 -25 -170q0 -118 121 -116q103 0 220 159t169 404l74 358h166l-185 -919h132q2 -4 2 -44zM754 1456 h176l141 -278h-145l-99 196l-178 -196h-147z"/>
    <glyph glyph-name="udieresis" unicode="ü" d="M1092 75q0 -40 -27 -75h-270l55 279q-68 -127 -129 -185q-128 -123 -255 -123q-128 0 -187 65q-91 100 -46 296l142 588h-152q-2 4 -2 44t27 74h317l-147 -635q-25 -118 -25 -170q0 -118 121 -116q103 0 220 159t169 404l74 358h166l-185 -919h132q2 -4 2 -44zM631 1407 q41 0 69 -28q28 -27 27 -71q1 -44 -29 -79t-70 -35t-71 25t-31 73t32 82q32 33 73 33zM984 1194q-40 0 -71 25t-31 73t32 82q32 33 73 33t69 -28q28 -27 28 -71t-30 -79t-70 -35z"/>
    <glyph glyph-name="yacute" unicode="ý" horiz-adv-x="983" d="M173 -225q161 0 335 260q-151 615 -252 885h-127q-2 6 -2 45t27 73h239q50 -119 131 -414t109 -413q106 169 178 345t73 260t-5 104h-144q-2 6 -2 45t27 73h268q25 -55 25 -150q0 -185 -147 -477q-147 -291 -328 -515q-106 -133 -206 -199t-229 -66q-47 1 -88 11t-57 22 l31 148q65 -37 144 -37zM809 1456h213l-303 -278h-144z"/>
    <glyph glyph-name="thorn" unicode="þ" horiz-adv-x="1136" d="M806 922q-124 0 -227 -138q-147 -198 -147 -432q0 -62 20 -110q56 -137 185 -136q83 0 149 52t112 134q97 171 96 356t-87 248q-35 26 -101 26zM-16 -300q0 38 26 75h133l334 1659h-131q-2 6 -2 45t27 73h297l-140 -682q136 197 346 197q156 0 235 -117q65 -95 67 -258 q0 -234 -120 -458q-38 -69 -87 -119q-135 -146 -328 -146q-95 0 -167 55t-89 123l-76 -372h152q2 -6 2 -45t-27 -74h-450q-2 6 -2 44z"/>
    <glyph glyph-name="ydieresis" unicode="ÿ" horiz-adv-x="983" d="M173 -225q161 0 335 260q-151 615 -252 885h-127q-2 6 -2 45t27 73h239q50 -119 131 -414t109 -413q106 169 178 345t73 260t-5 104h-144q-2 6 -2 45t27 73h268q25 -55 25 -150q0 -185 -147 -477q-147 -291 -328 -515q-106 -133 -206 -199t-229 -66q-47 1 -88 11t-57 22 l31 148q65 -37 144 -37zM494 1194q-40 0 -70 25t-31 73q0 48 32 82q32 33 73 33q40 0 68 -28q28 -27 28 -71t-30 -79t-70 -35zM851 1194q-40 0 -71 25q-30 25 -30 73t31 82q32 33 73 33t69 -28q27 -27 27 -71t-30 -79t-69 -35z"/>
    <glyph glyph-name="Amacron" unicode="Ā" horiz-adv-x="1458" d="M1059 618l-55 472q-23 161 -23 262q-48 -109 -131 -262l-250 -472h459zM25 23v39q0 26 24 71h133l748 1378h190l174 -1378h131q2 -10 2 -23v-30q0 -35 -24 -80h-483q-2 10 -2 23v30q0 35 24 80h176l-41 346h-553l-184 -346h158q2 -10 2 -23v-30q0 -36 -25 -80h-448 q-2 10 -2 23zM774 1802h629l-27 -133h-628z"/>
    <glyph glyph-name="amacron" unicode="ā" d="M352 381q0 -262 186 -262q64 0 134 58q70 57 124 147t87 195t33 207t-53 159q-52 57 -134 57q-83 0 -153 -50t-119 -130q-105 -171 -105 -381zM1106 71q0 -44 -29 -71h-272l53 256q-90 -192 -256 -259q-61 -26 -137 -26t-132 32q-107 61 -146 205q-17 67 -17 138 q0 344 221 578q134 145 330 145q125 0 204 -79q30 -30 48 -75l78 123h106l-186 -919h133q2 -4 2 -48zM528 1368h629l-27 -133h-628z"/>
    <glyph glyph-name="Abreve" unicode="Ă" horiz-adv-x="1458" d="M1059 618l-55 472q-23 161 -23 262q-48 -109 -131 -262l-250 -472h459zM25 23v39q0 26 24 71h133l748 1378h190l174 -1378h131q2 -10 2 -23v-30q0 -35 -24 -80h-483q-2 10 -2 23v30q0 35 24 80h176l-41 346h-553l-184 -346h158q2 -10 2 -23v-30q0 -36 -25 -80h-448 q-2 10 -2 23zM1030 1735q133 0 192 102q15 27 25 49h117q-50 -178 -204 -244q-62 -26 -148 -26q-151 1 -212 70q-46 51 -46 151v25q0 12 2 24h116q6 -66 25 -94q41 -57 133 -57z"/>
    <glyph glyph-name="abreve" unicode="ă" d="M352 381q0 -262 186 -262q64 0 134 58q70 57 124 147t87 195t33 207t-53 159q-52 57 -134 57q-83 0 -153 -50t-119 -130q-105 -171 -105 -381zM1106 71q0 -44 -29 -71h-272l53 256q-90 -192 -256 -259q-61 -26 -137 -26t-132 32q-107 61 -146 205q-17 67 -17 138 q0 344 221 578q134 145 330 145q125 0 204 -79q30 -30 48 -75l78 123h106l-186 -919h133q2 -4 2 -48zM573 1403q0 36 2 49h117q6 -68 25 -95q41 -56 133 -57q132 0 191 103q15 27 26 49h117q-49 -177 -204 -244q-62 -26 -148 -26q-217 1 -249 140q-10 45 -10 81z"/>
    <glyph glyph-name="Aogonek" unicode="Ą" horiz-adv-x="1458" d="M1059 618l-55 472q-23 161 -23 262q-48 -109 -131 -262l-250 -472h459zM989 -296q0 146 166 246q53 32 121 50h-356q-2 10 -2 23v30q0 35 24 80h176l-41 346h-553l-184 -346h158q2 -10 2 -23v-30q0 -36 -25 -80h-448q-2 10 -2 23v30q0 35 24 80h133l748 1378h190 l174 -1378h131q2 -10 2 -23v-30q0 -35 -24 -80q-129 -55 -194 -123t-64 -133q0 -96 102 -94q55 0 123 24l21 -77q-99 -43 -205 -43q-107 0 -152 48t-45 102z"/>
    <glyph glyph-name="aogonek" unicode="ą" d="M352 381q0 -262 186 -262q64 0 134 58q70 57 124 147t87 195t33 207t-53 159q-52 57 -134 57q-83 0 -153 -50t-119 -130q-105 -171 -105 -381zM664 -296q0 99 80 181t206 115h-145l53 256q-90 -192 -256 -259q-61 -26 -137 -26t-132 32q-107 61 -146 205q-17 67 -17 138 q0 344 221 578q134 145 330 145q125 0 204 -79q30 -30 48 -75l78 123h106l-186 -919h133q2 -4 2 -48t-29 -71q-129 -55 -193 -123t-65 -133q0 -96 103 -94q54 0 122 24l21 -77q-99 -43 -205 -43q-108 0 -152 48t-44 102z"/>
    <glyph glyph-name="Cacute" unicode="Ć" horiz-adv-x="1392" d="M1020 1530q261 0 360 -172l31 137q37 12 67 12t78 -12l-116 -575q-90 -29 -154 2q10 66 18 108t9 89q0 113 -72 187t-215 74q-268 0 -433 -239t-165 -558q0 -320 223 -426q72 -34 158 -34q214 0 413 148q54 42 101 83l-45 -237q-76 -57 -200 -105t-286 -49 q-162 1 -270 59q-209 112 -263 338q-26 104 -26 197q-1 191 57 367t162 310t247 215q144 81 321 81zM1219 1890h213l-304 -278h-143z"/>
    <glyph glyph-name="cacute" unicode="ć" horiz-adv-x="972" d="M354 430q0 -311 248 -307q78 0 130 20q99 38 220 148l-37 -193q-80 -72 -175 -98t-169 -27q-205 0 -302 116t-97 327t125 411q90 146 233 208q74 32 171 32t148 -32q52 -32 83 -87l20 88q64 25 121 0l-86 -415q-66 -26 -131 0q21 128 21 145q0 78 -42 127q-41 49 -133 49 t-153 -50q-122 -100 -171 -296q-24 -92 -24 -166zM926 1456h213l-303 -278h-144z"/>
    <glyph glyph-name="Ccircumflex" unicode="Ĉ" horiz-adv-x="1392" d="M1020 1530q261 0 360 -172l31 137q37 12 67 12t78 -12l-116 -575q-90 -29 -154 2q10 66 18 108t9 89q0 113 -72 187t-215 74q-268 0 -433 -239t-165 -558q0 -320 223 -426q72 -34 158 -34q214 0 413 148q54 42 101 83l-45 -237q-76 -57 -200 -105t-286 -49 q-162 1 -270 59q-209 112 -263 338q-26 104 -26 197q-1 191 57 367t162 310t247 215q144 81 321 81zM1044 1890h177l141 -278h-145l-99 196l-178 -196h-147z"/>
    <glyph glyph-name="ccircumflex" unicode="ĉ" horiz-adv-x="972" d="M354 430q0 -311 248 -307q78 0 130 20q99 38 220 148l-37 -193q-80 -72 -175 -98t-169 -27q-205 0 -302 116t-97 327t125 411q90 146 233 208q74 32 171 32t148 -32q52 -32 83 -87l20 88q64 25 121 0l-86 -415q-66 -26 -131 0q21 128 21 145q0 78 -42 127q-41 49 -133 49 t-153 -50q-122 -100 -171 -296q-24 -92 -24 -166zM731 1456h176l142 -278h-146l-98 196l-178 -196h-148z"/>
    <glyph glyph-name="Cdotaccent" unicode="Ċ" horiz-adv-x="1392" d="M1020 1530q261 0 360 -172l31 137q37 12 67 12t78 -12l-116 -575q-90 -29 -154 2q10 66 18 108t9 89q0 113 -72 187t-215 74q-268 0 -433 -239t-165 -558q0 -320 223 -426q72 -34 158 -34q214 0 413 148q54 42 101 83l-45 -237q-76 -57 -200 -105t-286 -49 q-162 1 -270 59q-209 112 -263 338q-26 104 -26 197q-1 191 57 367t162 310t247 215q144 81 321 81zM1119 1624q-41 0 -71 27t-30 75t32 84q32 35 72 35q40 1 69 -29q28 -30 28 -74t-30 -81t-70 -37z"/>
    <glyph glyph-name="cdotaccent" unicode="ċ" horiz-adv-x="972" d="M354 430q0 -311 248 -307q78 0 130 20q99 38 220 148l-37 -193q-80 -72 -175 -98t-169 -27q-205 0 -302 116t-97 327t125 411q90 146 233 208q74 32 171 32t148 -32q52 -32 83 -87l20 88q64 25 121 0l-86 -415q-66 -26 -131 0q21 128 21 145q0 78 -42 127q-41 49 -133 49 t-153 -50q-122 -100 -171 -296q-24 -92 -24 -166zM810 1190q-40 0 -71 27t-31 75t32 84q32 35 73 35t69 -30q28 -29 28 -73t-30 -81t-70 -37z"/>
    <glyph glyph-name="Ccaron" unicode="Č" horiz-adv-x="1392" d="M1020 1530q261 0 360 -172l31 137q37 12 67 12t78 -12l-116 -575q-90 -29 -154 2q10 66 18 108t9 89q0 113 -72 187t-215 74q-268 0 -433 -239t-165 -558q0 -320 223 -426q72 -34 158 -34q214 0 413 148q54 42 101 83l-45 -237q-76 -57 -200 -105t-286 -49 q-162 1 -270 59q-209 112 -263 338q-26 104 -26 197q-1 191 57 367t162 310t247 215q144 81 321 81zM864 1890h158l94 -184l168 184h158l-252 -278h-184z"/>
    <glyph glyph-name="ccaron" unicode="č" horiz-adv-x="972" d="M354 430q0 -311 248 -307q78 0 130 20q99 38 220 148l-37 -193q-80 -72 -175 -98t-169 -27q-205 0 -302 116t-97 327t125 411q90 146 233 208q74 32 171 32t148 -32q52 -32 83 -87l20 88q64 25 121 0l-86 -415q-66 -26 -131 0q21 128 21 145q0 78 -42 127q-41 49 -133 49 t-153 -50q-122 -100 -171 -296q-24 -92 -24 -166zM551 1456h158l94 -184l168 184h157l-251 -278h-185z"/>
    <glyph glyph-name="Dcaron" unicode="Ď" horiz-adv-x="1431" d="M737 147q246 0 407 214t161 552q0 302 -197 398q-72 35 -178 35h-266l-242 -1199h315zM66 23v39q0 26 24 71h152l247 1227h-147q-2 10 -2 23v30q0 36 25 80h573q319 0 457 -183q108 -144 107 -386q-2 -471 -296 -742q-207 -182 -485 -182h-653q-2 10 -2 23zM719 1890h158 l94 -184l168 184h157l-252 -278h-184z"/>
    <glyph glyph-name="dcaron" unicode="ď" d="M352 381q0 -262 186 -262q64 0 134 58q70 57 124 147t87 195t33 207t-53 159q-52 57 -134 57q-83 0 -153 -50t-119 -130q-105 -171 -105 -381zM1106 74q0 -39 -27 -74h-274l53 256q-89 -183 -254 -257q-61 -28 -138 -28t-133 32q-107 61 -146 205q-17 67 -17 138 q0 344 221 578q134 145 330 145q120 0 202 -77q30 -28 46 -68l102 510h-135q-2 6 -2 45t27 73h301l-291 -1433h133q2 -6 2 -45zM1384 1552h179l-144 -368h-112z"/>
    <glyph glyph-name="Dcroat" unicode="Đ" horiz-adv-x="1431" d="M737 147q246 0 407 214t161 552q0 302 -197 398q-72 35 -178 35h-266l-103 -510h320l-27 -134h-319l-113 -555h315zM66 23v39q0 26 24 71h152l114 569h-161l26 134h162l106 524h-147q-2 10 -2 23v30q0 36 25 80h573q319 0 457 -183q108 -144 107 -386q-2 -471 -296 -742 q-207 -182 -485 -182h-653q-2 10 -2 23z"/>
    <glyph glyph-name="dcroat" unicode="đ" d="M352 381q0 -262 186 -262q64 0 134 58q70 57 124 147t87 195t33 207t-53 159q-52 57 -134 57q-83 0 -153 -50t-119 -130q-105 -171 -105 -381zM1106 74q0 -39 -27 -74h-274l53 256q-89 -183 -254 -257q-61 -28 -138 -28t-133 32q-107 61 -146 205q-17 67 -17 138 q0 344 221 578q134 145 330 145q120 0 202 -77q30 -28 46 -68l51 258h-320l27 127h320l24 125h-135q-2 6 -2 45t27 73h301l-50 -243h144l-27 -127h-143l-215 -1063h133q2 -6 2 -45z"/>
    <glyph glyph-name="Emacron" unicode="Ē" horiz-adv-x="1251" d="M66 23v39q0 26 24 71h152l247 1227h-147q-2 10 -2 23v30q0 36 25 80h1069l-88 -438q-65 -22 -154 4l61 287h-587l-103 -504h584q4 -10 4 -22v-25q0 -59 -27 -101h-592l-108 -547h596l61 297q33 11 71 11t83 -15l-88 -440h-1079q-2 10 -2 23zM670 1802h628l-26 -133h-629z "/>
    <glyph glyph-name="emacron" unicode="ē" horiz-adv-x="956" d="M881 811q0 61 -36 100t-121 39t-150 -44q-66 -44 -108 -106q-80 -117 -99 -241h10q260 -2 382 67t122 185zM354 403q0 -143 65 -214t171 -70q182 0 342 141l-37 -194q-155 -95 -341 -95q-187 0 -284 119q-96 119 -96 323t126 405q93 150 252 215q83 34 187 34 q154 0 229 -74q74 -74 74 -167q-1 -183 -167 -285q-166 -101 -502 -101h-19v-37zM498 1368h628l-26 -133h-629z"/>
    <glyph glyph-name="Ebreve" unicode="Ĕ" horiz-adv-x="1251" d="M66 23v39q0 26 24 71h152l247 1227h-147q-2 10 -2 23v30q0 36 25 80h1069l-88 -438q-65 -22 -154 4l61 287h-587l-103 -504h584q4 -10 4 -22v-25q0 -59 -27 -101h-592l-108 -547h596l61 297q33 11 71 11t83 -15l-88 -440h-1079q-2 10 -2 23zM987 1735q133 0 192 102 q15 27 25 49h117q-50 -178 -204 -244q-62 -26 -148 -26q-151 1 -212 70q-46 51 -46 151v25q0 12 2 24h116q6 -66 25 -94q41 -57 133 -57z"/>
    <glyph glyph-name="ebreve" unicode="ĕ" horiz-adv-x="956" d="M881 811q0 61 -36 100t-121 39t-150 -44q-66 -44 -108 -106q-80 -117 -99 -241h10q260 -2 382 67t122 185zM354 403q0 -143 65 -214t171 -70q182 0 342 141l-37 -194q-155 -95 -341 -95q-187 0 -284 119q-96 119 -96 323t126 405q93 150 252 215q83 34 187 34 q154 0 229 -74q74 -74 74 -167q-1 -183 -167 -285q-166 -101 -502 -101h-19v-37zM543 1388v39q0 12 2 25h117q6 -68 25 -94q40 -56 132 -58q133 0 192 103q15 27 25 49h117q-50 -178 -204 -244q-62 -26 -148 -26q-258 2 -258 206z"/>
    <glyph glyph-name="Edotaccent" unicode="Ė" horiz-adv-x="1251" d="M66 23v39q0 26 24 71h152l247 1227h-147q-2 10 -2 23v30q0 36 25 80h1069l-88 -438q-65 -22 -154 4l61 287h-587l-103 -504h584q4 -10 4 -22v-25q0 -59 -27 -101h-592l-108 -547h596l61 297q33 11 71 11t83 -15l-88 -440h-1079q-2 10 -2 23zM959 1624q-41 0 -71 27 t-30 75t32 84q32 35 73 35q41 1 69 -29t27 -74q0 -44 -30 -81t-70 -37z"/>
    <glyph glyph-name="edotaccent" unicode="ė" horiz-adv-x="956" d="M881 811q0 61 -36 100t-121 39t-150 -44q-66 -44 -108 -106q-80 -117 -99 -241h10q260 -2 382 67t122 185zM354 403q0 -143 65 -214t171 -70q182 0 342 141l-37 -194q-155 -95 -341 -95q-187 0 -284 119q-96 119 -96 323t126 405q93 150 252 215q83 34 187 34 q154 0 229 -74q74 -74 74 -167q-1 -183 -167 -285q-166 -101 -502 -101h-19v-37zM781 1190q-41 0 -71 27t-30 75t32 84q32 35 72 35t69 -30q28 -29 28 -73t-30 -81t-70 -37z"/>
    <glyph glyph-name="Eogonek" unicode="Ę" horiz-adv-x="1251" d="M733 -296q0 146 166 246q53 32 121 50h-952q-2 10 -2 23v30q0 35 24 80h152l247 1227h-147q-2 10 -2 23v30q0 36 25 80h1069l-88 -438q-65 -22 -154 4l61 287h-587l-103 -504h584q4 -10 4 -22v-25q0 -59 -27 -101h-592l-108 -547h596l61 297q33 11 71 11t83 -15l-88 -440 q-129 -55 -194 -123t-64 -133q0 -96 102 -94q55 0 123 24l21 -77q-99 -43 -205 -43q-107 0 -152 48t-45 102z"/>
    <glyph glyph-name="eogonek" unicode="ę" horiz-adv-x="956" d="M881 811q0 61 -36 100t-121 39t-150 -44q-66 -44 -108 -106q-80 -117 -99 -241h10q260 -2 382 67t122 185zM291 -282q0 68 55 141q55 72 156 116q-164 16 -245 132t-82 314q-1 197 125 397q93 150 252 215q83 34 187 34q154 0 229 -74q74 -74 74 -167q-1 -183 -167 -285 q-166 -101 -502 -101h-19v-37q0 -143 65 -214t171 -70q182 0 342 141l-37 -194q-100 -63 -238 -86q-106 -52 -158 -114t-53 -122q0 -96 103 -94q53 0 123 24l20 -77q-99 -43 -205 -43t-151 48t-45 116z"/>
    <glyph glyph-name="Ecaron" unicode="Ě" horiz-adv-x="1251" d="M66 23v39q0 26 24 71h152l247 1227h-147q-2 10 -2 23v30q0 36 25 80h1069l-88 -438q-65 -22 -154 4l61 287h-587l-103 -504h584q4 -10 4 -22v-25q0 -59 -27 -101h-592l-108 -547h596l61 297q33 11 71 11t83 -15l-88 -440h-1079q-2 10 -2 23zM731 1890h158l94 -184 l168 184h158l-252 -278h-185z"/>
    <glyph glyph-name="ecaron" unicode="ě" horiz-adv-x="956" d="M881 811q0 61 -36 100t-121 39t-150 -44q-66 -44 -108 -106q-80 -117 -99 -241h10q260 -2 382 67t122 185zM354 403q0 -143 65 -214t171 -70q182 0 342 141l-37 -194q-155 -95 -341 -95q-187 0 -284 119q-96 119 -96 323t126 405q93 150 252 215q83 34 187 34 q154 0 229 -74q74 -74 74 -167q-1 -183 -167 -285q-166 -101 -502 -101h-19v-37zM543 1456h157l95 -184l168 184h157l-252 -278h-184z"/>
    <glyph glyph-name="Gcircumflex" unicode="Ĝ" horiz-adv-x="1472" d="M430 586q0 -243 130 -371q104 -102 253 -100q111 0 181 16t145 49l82 408h-199q-2 10 -2 23v30q0 34 24 80h502q2 -10 2 -23v-30q0 -35 -24 -80h-127l-99 -484q-204 -141 -501 -141t-446 205q-117 159 -115 389q0 191 57 367t161 310t247 215q144 81 321 81 q244 0 356 -162l29 127q37 12 67 12t78 -12l-110 -528q-90 -29 -154 2q59 238 -45 339q-74 72 -216 72q-266 0 -432 -239q-165 -238 -165 -555zM1042 1890h177l141 -278h-146l-98 196l-178 -196h-147z"/>
    <glyph glyph-name="gcircumflex" unicode="ĝ" horiz-adv-x="1110" d="M354 395q0 -248 190 -248q64 1 133 55t122 137t85 184t32 203t-53 159q-52 57 -134 57q-81 0 -151 -48t-120 -125q-104 -160 -104 -374zM172 379q0 313 219 545q134 145 330 145q125 0 204 -79q30 -30 48 -75l78 123h106l-186 -921q-81 -387 -343 -462q-84 -24 -182 -24 t-195 32t-147 73l35 149q143 -114 305 -113q163 1 243 87q81 86 126 295l12 59q-140 -213 -350 -213q-150 0 -226 104q-77 104 -77 275zM780 1456h176l142 -278h-146l-98 196l-178 -196h-148z"/>
    <glyph glyph-name="Gbreve" unicode="Ğ" horiz-adv-x="1472" d="M430 586q0 -243 130 -371q104 -102 253 -100q111 0 181 16t145 49l82 408h-199q-2 10 -2 23v30q0 34 24 80h502q2 -10 2 -23v-30q0 -35 -24 -80h-127l-99 -484q-204 -141 -501 -141t-446 205q-117 159 -115 389q0 191 57 367t161 310t247 215q144 81 321 81 q244 0 356 -162l29 127q37 12 67 12t78 -12l-110 -528q-90 -29 -154 2q59 238 -45 339q-74 72 -216 72q-266 0 -432 -239q-165 -238 -165 -555zM1122 1735q133 0 192 102q15 27 25 49h117q-50 -178 -204 -244q-62 -26 -148 -26q-151 1 -212 70q-46 51 -46 151v25q0 12 2 24 h117q6 -68 25 -94q40 -57 132 -57z"/>
    <glyph glyph-name="gbreve" unicode="ğ" horiz-adv-x="1110" d="M354 395q0 -248 190 -248q64 1 133 55t122 137t85 184t32 203t-53 159q-52 57 -134 57q-81 0 -151 -48t-120 -125q-104 -160 -104 -374zM172 379q0 313 219 545q134 145 330 145q125 0 204 -79q30 -30 48 -75l78 123h106l-186 -921q-81 -387 -343 -462q-84 -24 -182 -24 t-195 32t-147 73l35 149q143 -114 305 -113q163 1 243 87q81 86 126 295l12 59q-140 -213 -350 -213q-150 0 -226 104q-77 104 -77 275zM559 1388v39q0 12 2 25h117q6 -68 25 -95q41 -56 133 -57q132 0 191 103q15 27 26 49h116q-49 -177 -203 -244q-62 -26 -148 -26 q-258 0 -259 206z"/>
    <glyph glyph-name="Gdotaccent" unicode="Ġ" horiz-adv-x="1472" d="M430 586q0 -243 130 -371q104 -102 253 -100q111 0 181 16t145 49l82 408h-199q-2 10 -2 23v30q0 34 24 80h502q2 -10 2 -23v-30q0 -35 -24 -80h-127l-99 -484q-204 -141 -501 -141t-446 205q-117 159 -115 389q0 191 57 367t161 310t247 215q144 81 321 81 q244 0 356 -162l29 127q37 12 67 12t78 -12l-110 -528q-90 -29 -154 2q59 238 -45 339q-74 72 -216 72q-266 0 -432 -239q-165 -238 -165 -555zM1084 1624q-40 0 -70 27t-31 75q0 48 32 84q33 35 73 35q40 1 68 -29t28 -74t-30 -81t-70 -37z"/>
    <glyph glyph-name="gdotaccent" unicode="ġ" horiz-adv-x="1110" d="M354 395q0 -248 190 -248q64 1 133 55t122 137t85 184t32 203t-53 159q-52 57 -134 57q-81 0 -151 -48t-120 -125q-104 -160 -104 -374zM172 379q0 313 219 545q134 145 330 145q125 0 204 -79q30 -30 48 -75l78 123h106l-186 -921q-81 -387 -343 -462q-84 -24 -182 -24 t-195 32t-147 73l35 149q143 -114 305 -113q163 1 243 87q81 86 126 295l12 59q-140 -213 -350 -213q-150 0 -226 104q-77 104 -77 275zM822 1190q-40 0 -70 27t-31 75q0 48 32 84q33 35 73 35t68 -30q28 -29 28 -73t-30 -81t-70 -37z"/>
    <glyph glyph-name="Gcommaaccent" unicode="Ģ" horiz-adv-x="1472" d="M430 586q0 -243 130 -371q104 -102 253 -100q111 0 181 16t145 49l82 408h-199q-2 10 -2 23v30q0 34 24 80h502q2 -10 2 -23v-30q0 -35 -24 -80h-127l-99 -484q-204 -141 -501 -141t-446 205q-117 159 -115 389q0 191 57 367t161 310t247 215q144 81 321 81 q244 0 356 -162l29 127q37 12 67 12t78 -12l-110 -528q-90 -29 -154 2q59 238 -45 339q-74 72 -216 72q-266 0 -432 -239q-165 -238 -165 -555zM700 -283h-12q-38 0 -60 23q-22 24 -22 64t31 68t79 28t79 -28t31 -82q-1 -97 -71 -160q-70 -62 -169 -76l12 88q35 6 71 28 t46 49q-9 -2 -15 -2z"/>
    <glyph glyph-name="gcommaaccent" unicode="ģ" horiz-adv-x="1110" d="M354 395q0 -248 190 -248q64 1 133 55t122 137t85 184t32 203t-53 159q-52 57 -134 57q-81 0 -151 -48t-120 -125q-104 -160 -104 -374zM172 379q0 313 219 545q134 145 330 145q125 0 204 -79q30 -30 48 -75l78 123h106l-186 -921q-81 -387 -343 -462q-84 -24 -182 -24 t-195 32t-147 73l35 149q143 -114 305 -113q163 1 243 87q81 86 126 295l12 59q-140 -213 -350 -213q-150 0 -226 104q-77 104 -77 275zM882 1360h11q39 0 61 -23t21 -63q0 -40 -31 -69q-31 -27 -79 -27t-79 28q-30 28 -30 81q1 98 70 160q69 61 169 77l-12 -88 q-35 -6 -71 -28t-46 -50q10 2 16 2z"/>
    <glyph glyph-name="Hcircumflex" unicode="Ĥ" horiz-adv-x="1488" d="M1217 1360q-3 15 -3 51t25 82h477q2 -10 2 -23v-30q0 -35 -24 -80h-152l-246 -1227h148q2 -10 2 -23v-30q0 -36 -25 -80h-477q-2 10 -2 23v30q0 36 25 80h151l117 580h-698l-117 -580h147q2 -10 2 -23v-30q0 -35 -24 -80h-477q-2 10 -2 23v39q0 26 24 71h152l247 1227 h-147q-2 10 -2 23v30q0 36 25 80h479q2 -10 2 -23v-30q0 -36 -25 -80h-153l-101 -500h697l100 500h-147zM1028 1890h176l142 -278h-146l-98 196l-178 -196h-148z"/>
    <glyph glyph-name="hcircumflex" unicode="ĥ" horiz-adv-x="1128" d="M926 805q0 117 -121 117q-49 0 -107 -41q-120 -85 -211 -293q-45 -104 -71 -230l-74 -358h-166l289 1434h-131q-2 6 -2 45t26 73h297l-147 -723q159 241 350 238q123 0 182 -65q60 -65 60 -152t-15 -143l-141 -588h152q2 -6 2 -45t-27 -74h-317l147 635q25 118 25 170z M489 1890h177l141 -278h-145l-99 196l-178 -196h-147z"/>
    <glyph glyph-name="Hbar" unicode="Ħ" horiz-adv-x="1488" d="M1264 860l36 184h-696l-37 -184h697zM1217 1360q-3 15 -3 51t25 82h477q2 -10 2 -23v-30q0 -35 -24 -80h-152l-37 -182h164l-27 -134h-163l-183 -911h148q2 -10 2 -23v-30q0 -36 -25 -80h-477q-2 10 -2 23v30q0 36 25 80h151l117 580h-698l-117 -580h147q2 -10 2 -23v-30 q0 -35 -24 -80h-477q-2 10 -2 23v39q0 26 24 71h152l184 911h-162l27 134h162l36 182h-147q-2 10 -2 23v30q0 36 25 80h479q2 -10 2 -23v-30q0 -36 -25 -80h-153l-37 -182h696l37 182h-147z"/>
    <glyph glyph-name="hbar" unicode="ħ" horiz-adv-x="1128" d="M926 805q0 117 -121 117q-49 0 -107 -41q-120 -85 -211 -293q-45 -104 -71 -230l-74 -358h-166l238 1182h-144l27 127h141l27 125h-131q-2 6 -2 45t26 73h297l-51 -243h322l-27 -127h-319l-72 -353q159 241 350 238q123 0 182 -65q60 -65 60 -152t-15 -143l-141 -588h152 q2 -6 2 -45t-27 -74h-317l147 635q25 118 25 170z"/>
    <glyph glyph-name="Itilde" unicode="Ĩ" horiz-adv-x="645" d="M82 23v39q0 26 24 71h152l248 1227h-148q-2 10 -2 23v30q0 36 25 80h479q2 -10 2 -23v-30q0 -35 -24 -80h-154l-246 -1227h148q2 -10 2 -23v-30q0 -36 -25 -80h-479q-2 10 -2 23zM762 1655q-41 0 -77 13q-36 14 -84 34q-115 49 -157 21q-42 -27 -61 -81h-113 q29 94 75 140q79 78 179 80q60 0 96 -16q105 -46 133 -53q27 -7 49 -7q50 0 87 62q8 15 14 26h113q-78 -219 -254 -219z"/>
    <glyph glyph-name="itilde" unicode="ĩ" horiz-adv-x="571" d="M526 74q0 -39 -26 -74h-299l186 920h-131q-2 6 -2 45t27 73h297l-187 -919h133q2 -6 2 -45zM104 1208q68 219 259 219q55 0 91 -15q36 -16 93 -38t84 -22t49 12t37 39q14 26 20 37h113q-78 -219 -254 -219q-41 0 -77 13q-36 12 -96 38t-94 26q-79 0 -112 -90h-113z"/>
    <glyph glyph-name="Imacron" unicode="Ī" horiz-adv-x="645" d="M82 23v39q0 26 24 71h152l248 1227h-148q-2 10 -2 23v30q0 36 25 80h479q2 -10 2 -23v-30q0 -35 -24 -80h-154l-246 -1227h148q2 -10 2 -23v-30q0 -36 -25 -80h-479q-2 10 -2 23zM367 1802h628l-26 -133h-629z"/>
    <glyph glyph-name="imacron" unicode="ī" horiz-adv-x="571" d="M526 74q0 -39 -26 -74h-299l186 920h-131q-2 6 -2 45t27 73h297l-187 -919h133q2 -6 2 -45zM186 1368h629l-27 -133h-628z"/>
    <glyph glyph-name="Ibreve" unicode="Ĭ" horiz-adv-x="645" d="M82 23v39q0 26 24 71h152l248 1227h-148q-2 10 -2 23v30q0 36 25 80h479q2 -10 2 -23v-30q0 -35 -24 -80h-154l-246 -1227h148q2 -10 2 -23v-30q0 -36 -25 -80h-479q-2 10 -2 23zM660 1735q133 0 191 102q15 27 26 49h116q-49 -177 -203 -244q-62 -26 -148 -26 q-152 1 -213 70q-46 51 -46 151v25q0 12 2 24h117q6 -68 28 -98q37 -53 130 -53z"/>
    <glyph glyph-name="ibreve" unicode="ĭ" horiz-adv-x="571" d="M526 74q0 -39 -26 -74h-299l186 920h-131q-2 6 -2 45t27 73h297l-187 -919h133q2 -6 2 -45zM221 1388v39q0 12 2 25h117q6 -68 25 -95q41 -56 133 -57q132 0 191 103q15 27 26 49h116q-49 -177 -203 -244q-62 -26 -148 -26q-258 0 -259 206z"/>
    <glyph glyph-name="Iogonek" unicode="Į" horiz-adv-x="645" d="M250 -446q-107 0 -152 48t-45 102q0 146 166 246q53 32 121 50h-256q-2 10 -2 23v30q0 35 24 80h152l248 1227h-148q-2 10 -2 23v30q0 36 25 80h479q2 -10 2 -23v-30q0 -35 -24 -80h-154l-246 -1227h148q2 -10 2 -23v-30q0 -36 -25 -80h-96q-129 -55 -194 -123t-64 -133 q0 -96 102 -94q55 0 123 24l21 -77q-98 -43 -205 -43z"/>
    <glyph glyph-name="iogonek" unicode="į" horiz-adv-x="571" d="M532 1255q-42 0 -70 32t-28 82t33 87t75 37t68 -32t27 -80q0 -48 -31 -87t-74 -39zM76 -296q0 146 166 246q53 32 120 50h-161l186 920h-131q-2 4 -2 44t27 74h297l-187 -919h133q2 -4 2 -44t-26 -75h-11q-129 -55 -193 -123t-65 -133q0 -96 103 -94q53 0 123 24l20 -77 q-99 -43 -205 -43q-108 0 -152 48t-44 102z"/>
    <glyph glyph-name="Idotaccent" unicode="İ" horiz-adv-x="645" d="M82 23v39q0 26 24 71h152l248 1227h-148q-2 10 -2 23v30q0 36 25 80h479q2 -10 2 -23v-30q0 -35 -24 -80h-154l-246 -1227h148q2 -10 2 -23v-30q0 -36 -25 -80h-479q-2 10 -2 23zM658 1624q-40 0 -70 27t-31 75q0 48 32 84q32 35 73 35q40 1 68 -29t28 -74t-30 -81 t-70 -37z"/>
    <glyph glyph-name="dotlessi" unicode="ı" horiz-adv-x="571" d="M526 74q0 -39 -26 -74h-299l186 920h-131q-2 6 -2 45t27 73h297l-187 -919h133q2 -6 2 -45z"/>
    <glyph glyph-name="IJ" unicode="Ĳ" horiz-adv-x="645" d="M82 23v39q0 26 24 71h152l248 1227h-148q-2 10 -2 23v30q0 36 25 80h479q2 -10 2 -23v-30q0 -35 -24 -80h-154l-246 -1227h148q2 -10 2 -23v-30q0 -36 -25 -80h-479q-2 10 -2 23zM1046 123q138 0 204 74t93 221l191 942h-174q-2 10 -2 23v30q0 35 24 80h506q2 -10 2 -23 v-30q0 -35 -24 -80h-154l-188 -938q-92 -447 -467 -447q-155 0 -281 81q-31 19 -47 36l35 176q144 -145 282 -145z"/>
    <glyph glyph-name="ij" unicode="ĳ" horiz-adv-x="571" d="M526 75q0 -40 -26 -75h-299l186 920h-131q-2 4 -2 44t27 74h297l-187 -919h133q2 -4 2 -44zM532 1255q-42 0 -70 32t-28 82t33 87t75 37t68 -32t27 -80q0 -48 -31 -87t-74 -39zM825 965q0 39 27 73h297l-211 -1042q-41 -201 -129 -283t-190 -82t-164 31l26 131 q65 -24 127 -24q120 0 160 202l190 949h-131q-2 6 -2 45zM1103 1493q43 0 69 -32t26 -80t-30 -87t-74 -39q-43 0 -71 32t-28 82t33 87t75 37z"/>
    <glyph glyph-name="Jcircumflex" unicode="Ĵ" horiz-adv-x="1003" d="M402 123q138 0 202 74q66 74 94 221l191 942h-174q-2 10 -2 23v30q0 35 24 80h506q2 -10 2 -23v-30q0 -35 -24 -80h-154l-188 -938q-92 -447 -467 -447q-155 0 -281 81q-31 19 -47 36l35 176q145 -145 283 -145zM969 1890h176l141 -278h-145l-99 196l-178 -196h-147z"/>
    <glyph glyph-name="jcircumflex" unicode="ĵ" horiz-adv-x="522" d="M37 -231q118 0 160 202l190 949h-131q-2 6 -2 45t27 73h297l-211 -1042q-41 -201 -129 -283t-207 -82q-83 0 -148 31l27 131q65 -24 127 -24zM408 1456h176l141 -278h-145l-99 196l-178 -196h-147z"/>
    <glyph glyph-name="Kcommaaccent" unicode="Ķ" horiz-adv-x="1366" d="M66 23v39q0 26 24 71h152l247 1227h-147q-2 10 -2 23v30q0 36 25 80h481q2 -10 2 -23v-30q0 -36 -25 -80h-155l-119 -594l678 594h-174q-2 10 -2 23v30q0 35 24 80h506q2 -10 2 -23v-30q0 -35 -24 -80h-134l-518 -451l330 -776h133q2 -10 2 -23v-30q0 -35 -24 -80h-512 q-2 10 -2 23v30q0 35 24 80h182l-270 658l-264 -230l-86 -428h149q2 -10 2 -23v-30q0 -35 -24 -80h-479q-2 10 -2 23zM673 -283h-11q-39 0 -61 23q-21 24 -21 64t30 68q31 28 79 28t79 -28t31 -82q0 -96 -70 -159t-170 -77l12 88q35 6 71 28t46 49q-10 -2 -15 -2z"/>
    <glyph glyph-name="kcommaaccent" unicode="ķ" horiz-adv-x="1026" d="M1081 74q0 -39 -26 -74h-267l-194 526l-174 -143l-78 -383h-166l289 1434h-131q-2 6 -2 45t26 73h297l-200 -993l444 369h-147q-2 6 -2 13v13q0 49 26 84h418q2 -6 2 -45t-27 -73h-104l-340 -283l201 -518h153q2 -6 2 -45zM546 -283h-11q-39 0 -61 23q-22 24 -22 64 t31 68t79 28t79 -28t31 -82q0 -96 -70 -159t-170 -77l12 88q35 6 71 28t46 49q-10 -2 -15 -2z"/>
    <glyph glyph-name="kgreenlandic" unicode="ĸ" horiz-adv-x="1026" d="M1081 74q0 -39 -26 -74h-267l-194 526l-174 -143l-78 -383h-166l184 920h-131q-2 6 -2 45t27 73h297l-96 -479l444 369h-147q-2 6 -2 13v13q0 49 26 84h418q2 -6 2 -45t-27 -73h-104l-340 -283l201 -518h153q2 -6 2 -45z"/>
    <glyph glyph-name="Lacute" unicode="Ĺ" horiz-adv-x="1146" d="M66 23v39q0 26 24 71h152l247 1227h-147q-2 10 -2 23v30q0 36 25 80h499q2 -10 2 -23v-30q0 -35 -24 -80h-174l-246 -1213h536l70 355q30 10 68 10t86 -14l-101 -498h-1013q-2 10 -2 23zM788 1890h213l-303 -278h-143z"/>
    <glyph glyph-name="lacute" unicode="ĺ" horiz-adv-x="559" d="M522 74q0 -39 -26 -74h-308l291 1434h-133q-2 6 -2 45t27 73h299l-291 -1433h141q2 -6 2 -45zM719 1890h213l-303 -278h-144z"/>
    <glyph glyph-name="Lcommaaccent" unicode="Ļ" horiz-adv-x="1146" d="M66 23v39q0 26 24 71h152l247 1227h-147q-2 10 -2 23v30q0 36 25 80h499q2 -10 2 -23v-30q0 -35 -24 -80h-174l-246 -1213h536l70 355q30 10 68 10t86 -14l-101 -498h-1013q-2 10 -2 23zM554 -283h-11q-39 0 -61 23q-22 24 -22 64t32 68q30 28 78 28t79 -28t31 -82 q0 -96 -70 -159t-170 -77l13 88q35 6 71 28t45 49q-10 -2 -15 -2z"/>
    <glyph glyph-name="lcommaaccent" unicode="ļ" horiz-adv-x="559" d="M522 74q0 -39 -26 -74h-308l291 1434h-133q-2 6 -2 45t27 73h299l-291 -1433h141q2 -6 2 -45zM298 -283h-11q-39 0 -61 23q-22 24 -22 64t32 68q30 28 78 28t79 -28t31 -82q0 -96 -70 -159t-170 -77l13 88q35 6 71 28t45 49q-10 -2 -15 -2z"/>
    <glyph glyph-name="Lcaron" unicode="Ľ" horiz-adv-x="1146" d="M66 23v39q0 26 24 71h152l247 1227h-147q-2 10 -2 23v30q0 36 25 80h499q2 -10 2 -23v-30q0 -35 -24 -80h-174l-246 -1213h536l70 355q30 10 68 10t86 -14l-101 -498h-1013q-2 10 -2 23zM1049 1552h178l-144 -368h-112z"/>
    <glyph glyph-name="lcaron" unicode="ľ" horiz-adv-x="559" d="M522 74q0 -39 -26 -74h-308l291 1434h-133q-2 6 -2 45t27 73h299l-291 -1433h141q2 -6 2 -45zM791 1552h178l-144 -368h-112z"/>
    <glyph glyph-name="Ldot" unicode="Ŀ" horiz-adv-x="1146" d="M66 23v39q0 26 24 71h152l247 1227h-147q-2 10 -2 23v30q0 36 25 80h499q2 -10 2 -23v-30q0 -35 -24 -80h-174l-246 -1213h536l70 355q30 10 68 10t86 -14l-101 -498h-1013q-2 10 -2 23zM891 975q41 0 69 -30t27 -74q1 -45 -29 -81t-70 -36t-71 26t-31 76q0 49 32 84 t73 35z"/>
    <glyph glyph-name="ldot" unicode="ŀ" horiz-adv-x="559" d="M522 74q0 -39 -26 -74h-308l291 1434h-133q-2 6 -2 45t27 73h299l-291 -1433h141q2 -6 2 -45zM842 871q0 -45 -30 -81t-70 -36t-70 26t-31 76q0 49 32 84q33 35 73 35t68 -30t28 -74z"/>
    <glyph glyph-name="Lslash" unicode="Ł" horiz-adv-x="1146" d="M66 23v39q0 26 24 71h152l88 434l-203 -145l35 178l203 145l124 615h-147q-2 10 -2 23v30q0 36 25 80h499q2 -10 2 -23v-30q0 -35 -24 -80h-174l-95 -465l306 219l-35 -178l-307 -219l-115 -570h536l70 355q30 10 68 10t86 -14l-101 -498h-1013q-2 10 -2 23z"/>
    <glyph glyph-name="lslash" unicode="ł" horiz-adv-x="559" d="M522 74q0 -39 -26 -74h-308l136 668l-189 -136l29 148l190 137l125 617h-133q-2 6 -2 45t27 73h299l-121 -596l188 136l-30 -148l-189 -135l-139 -690h141q2 -6 2 -45z"/>
    <glyph glyph-name="Nacute" unicode="Ń" horiz-adv-x="1472" d="M66 23v39q0 26 24 71h152l247 1227h-147q-2 10 -2 23v30q0 36 25 80h358l364 -1051q28 -84 64 -258q20 122 27 160q8 37 13 65t7 33l178 918h-143q-2 10 -2 23v30q0 35 24 80h453q2 -10 2 -23v-30q0 -35 -24 -80h-154l-270 -1378h-183l-385 1110q-47 145 -65 268 q-18 -145 -49 -305l-183 -922h148q2 -10 2 -23v-30q0 -36 -25 -80h-454q-2 10 -2 23zM1176 1890h213l-304 -278h-143z"/>
    <glyph glyph-name="nacute" unicode="ń" d="M938 805q0 117 -121 117q-102 0 -219 -159t-170 -405l-74 -358h-166l185 920h-131q-2 6 -2 45t26 73h271l-56 -278q50 108 154 207q104 100 231 100q126 0 186 -65t60 -150t-14 -145l-142 -588h152q2 -6 2 -45t-27 -74h-317l147 635q25 118 25 170zM928 1456h213 l-303 -278h-144z"/>
    <glyph glyph-name="Ncommaaccent" unicode="Ņ" horiz-adv-x="1472" d="M66 23v39q0 26 24 71h152l247 1227h-147q-2 10 -2 23v30q0 36 25 80h358l364 -1051q28 -84 64 -258q20 122 27 160q8 37 13 65t7 33l178 918h-143q-2 10 -2 23v30q0 35 24 80h453q2 -10 2 -23v-30q0 -35 -24 -80h-154l-270 -1378h-183l-385 1110q-47 145 -65 268 q-18 -145 -49 -305l-183 -922h148q2 -10 2 -23v-30q0 -36 -25 -80h-454q-2 10 -2 23zM710 -283h-12q-38 0 -60 23q-22 24 -22 64t31 68t79 28t79 -28t31 -82q0 -96 -70 -159t-170 -77l12 88q35 6 71 28t46 49q-10 -2 -15 -2z"/>
    <glyph glyph-name="ncommaaccent" unicode="ņ" d="M938 805q0 117 -121 117q-102 0 -219 -159t-170 -405l-74 -358h-166l185 920h-131q-2 6 -2 45t26 73h271l-56 -278q50 108 154 207q104 100 231 100q126 0 186 -65t60 -150t-14 -145l-142 -588h152q2 -6 2 -45t-27 -74h-317l147 635q25 118 25 170zM542 -283h-12 q-38 0 -60 23q-22 24 -22 64t31 68t79 28t79 -28t31 -82q0 -96 -70 -159t-170 -77l12 88q35 6 71 28t46 49q-10 -2 -15 -2z"/>
    <glyph glyph-name="Ncaron" unicode="Ň" horiz-adv-x="1472" d="M66 23v39q0 26 24 71h152l247 1227h-147q-2 10 -2 23v30q0 36 25 80h358l364 -1051q28 -84 64 -258q20 122 27 160q8 37 13 65t7 33l178 918h-143q-2 10 -2 23v30q0 35 24 80h453q2 -10 2 -23v-30q0 -35 -24 -80h-154l-270 -1378h-183l-385 1110q-47 145 -65 268 q-18 -145 -49 -305l-183 -922h148q2 -10 2 -23v-30q0 -36 -25 -80h-454q-2 10 -2 23zM827 1890h158l94 -184l168 184h158l-252 -278h-184z"/>
    <glyph glyph-name="ncaron" unicode="ň" d="M938 805q0 117 -121 117q-102 0 -219 -159t-170 -405l-74 -358h-166l185 920h-131q-2 6 -2 45t26 73h271l-56 -278q50 108 154 207q104 100 231 100q126 0 186 -65t60 -150t-14 -145l-142 -588h152q2 -6 2 -45t-27 -74h-317l147 635q25 118 25 170zM553 1456h158l94 -184 l168 184h157l-251 -278h-185z"/>
    <glyph glyph-name="napostrophe" unicode="ŉ" d="M938 805q0 117 -121 117q-102 0 -219 -159t-170 -405l-74 -358h-166l185 920h-131q-2 6 -2 45t26 73h271l-56 -278q50 108 154 207q104 100 231 100q126 0 186 -65t60 -150t-14 -145l-142 -588h152q2 -6 2 -45t-27 -74h-317l147 635q25 118 25 170zM184 1418q0 48 32 80 t80 32t79 -40t31 -110q0 -132 -86 -221q-86 -90 -193 -110l18 94q61 29 97 62q35 34 47 98q-105 7 -105 115z"/>
    <glyph glyph-name="Eng" unicode="Ŋ" horiz-adv-x="1472" d="M1710 1470v-39q0 -26 -24 -71h-154l-252 -1282q-49 -242 -165 -344t-302 -103q-125 0 -210 27t-118 47l33 164q45 -45 188 -79q50 -11 105 -11q217 0 272 209l-389 1104q-47 145 -65 268q-18 -145 -49 -305l-183 -922h148q2 -10 2 -23v-30q0 -36 -25 -80h-454 q-2 10 -2 23v30q0 35 24 80h152l247 1227h-147q-2 10 -2 23v30q0 36 25 80h358l364 -1051q28 -84 64 -258q20 122 27 160q8 37 13 65t7 33l178 918h-143q-2 10 -2 23v30q0 35 24 80h453q2 -10 2 -23z"/>
    <glyph glyph-name="eng" unicode="ŋ" d="M588 -231q70 0 106 43t58 129l161 694q25 118 25 170q0 117 -121 117q-102 0 -219 -159t-170 -405l-74 -358h-166l185 920h-131q-2 6 -2 45t26 73h271l-56 -278q50 108 154 207q104 100 231 100q126 0 186 -65t60 -150t-14 -145l-185 -773q-41 -166 -123 -234t-181 -69 q-100 0 -165 31l27 131q47 -24 117 -24z"/>
    <glyph glyph-name="Omacron" unicode="Ō" horiz-adv-x="1523" d="M836 111q90 0 194 60q214 124 312 431q48 152 48 334t-85 303q-102 143 -299 143q-126 0 -230 -63t-180 -173q-162 -234 -162 -571q0 -246 124 -368q97 -96 278 -96zM818 -37q-178 0 -284 57q-208 110 -268 350q-53 203 -6 435t181 419q135 187 346 266q108 40 243 40 q134 0 240 -45q316 -135 317 -582q0 -151 -49 -323t-148 -310q-98 -138 -246 -222q-148 -85 -326 -85zM807 1802h629l-27 -133h-629z"/>
    <glyph glyph-name="omacron" unicode="ō" horiz-adv-x="1079" d="M346 410q0 -301 236 -301q102 0 172 61q129 112 172 324q18 92 18 139t-7 96q-16 111 -100 171q-46 32 -120 32q-130 0 -231 -116t-133 -322q-7 -51 -7 -84zM584 -29q-108 0 -178 29q-72 29 -123 84t-80 134t-29 181q0 103 34 221q73 254 277 381q105 66 231 66t200 -41 q200 -110 200 -360q0 -129 -38 -254q-80 -260 -284 -380q-102 -60 -210 -61zM498 1368h628l-26 -133h-629z"/>
    <glyph glyph-name="Obreve" unicode="Ŏ" horiz-adv-x="1523" d="M836 111q90 0 194 60q214 124 312 431q48 152 48 334t-85 303q-102 143 -299 143q-126 0 -230 -63t-180 -173q-162 -234 -162 -571q0 -246 124 -368q97 -96 278 -96zM818 -37q-178 0 -284 57q-208 110 -268 350q-53 203 -6 435t181 419q135 187 346 266q108 40 243 40 q134 0 240 -45q316 -135 317 -582q0 -151 -49 -323t-148 -310q-98 -138 -246 -222q-148 -85 -326 -85zM1104 1735q132 0 191 102q15 27 26 49h117q-49 -177 -204 -244q-62 -26 -148 -26q-152 1 -213 70q-43 48 -46 151v25q0 12 2 24h117q6 -68 25 -95q42 -56 133 -56z"/>
    <glyph glyph-name="obreve" unicode="ŏ" horiz-adv-x="1079" d="M346 410q0 -301 236 -301q102 0 172 61q129 112 172 324q18 92 18 139t-7 96q-16 111 -100 171q-46 32 -120 32q-130 0 -231 -116t-133 -322q-7 -51 -7 -84zM584 -29q-108 0 -178 29q-72 29 -123 84t-80 134t-29 181q0 103 34 221q73 254 277 381q105 66 231 66t200 -41 q200 -110 200 -360q0 -129 -38 -254q-80 -260 -284 -380q-102 -60 -210 -61zM522 1388v39q0 12 2 25h117q6 -68 25 -95q41 -56 133 -57q132 0 191 103q15 27 26 49h117q-49 -177 -204 -244q-63 -26 -149 -26q-258 0 -258 206z"/>
    <glyph glyph-name="Ohungarumlaut" unicode="Ő" horiz-adv-x="1523" d="M836 111q90 0 194 60q214 124 312 431q48 152 48 334t-85 303q-102 143 -299 143q-126 0 -230 -63t-180 -173q-162 -234 -162 -571q0 -246 124 -368q97 -96 278 -96zM818 -37q-178 0 -284 57q-208 110 -268 350q-53 203 -6 435t181 419q135 187 346 266q108 40 243 40 q134 0 240 -45q316 -135 317 -582q0 -151 -49 -323t-148 -310q-98 -138 -246 -222q-148 -85 -326 -85zM1081 1890h201l-285 -278h-125zM1389 1890h200l-284 -278h-125z"/>
    <glyph glyph-name="ohungarumlaut" unicode="ő" horiz-adv-x="1079" d="M346 410q0 -301 236 -301q102 0 172 61q129 112 172 324q18 92 18 139t-7 96q-16 111 -100 171q-46 32 -120 32q-130 0 -231 -116t-133 -322q-7 -51 -7 -84zM584 -29q-108 0 -178 29q-72 29 -123 84t-80 134t-29 181q0 103 34 221q73 254 277 381q105 66 231 66t200 -41 q200 -110 200 -360q0 -129 -38 -254q-80 -260 -284 -380q-102 -60 -210 -61zM776 1456h201l-285 -278h-125zM1083 1456h201l-285 -278h-125z"/>
    <glyph glyph-name="OE" unicode="Œ" horiz-adv-x="2248" d="M850 135q163 0 268 21l236 1183q-33 1 -62 5q-95 12 -243 12q-277 0 -446 -219t-169 -562q0 -241 135 -355q98 -82 246 -85h35zM2005 795q0 -59 -27 -101h-575l-109 -547h580l61 297q33 11 71 11t83 -15l-88 -440h-731q-146 0 -242 -7t-235 -7q-141 0 -251 53t-178 139 q-129 164 -126 414q0 162 51 324t152 294q101 131 252 214t351 83q140 0 233 -7t241 -7h770l-88 -438q-65 -22 -154 4l61 287h-571l-102 -504h567q4 -10 4 -22v-25z"/>
    <glyph glyph-name="oe" unicode="œ" horiz-adv-x="1691" d="M944 633q0 299 -231 299q-125 0 -229 -118t-131 -320q-7 -52 -7 -84q0 -301 236 -301q102 0 171.5 61t111.5 146t60.5 177.5t18.5 139.5zM1616 811q0 61 -36 100t-121 39q-153 0 -257 -150q-77 -112 -100 -241h10q258 -2 381 66.5t123 185.5zM1475 1067 q154 0 228.5 -73.5t74.5 -167.5q0 -183 -167 -284.5t-503 -101.5h-18v-37q0 -143 64.5 -213.5t170.5 -70.5q157 0 283 94q34 25 59 47l-37 -194q-155 -95 -340 -95q-244 0 -334 217q-156 -217 -393 -217q-175 0 -282 114.5t-107 314.5q0 102 34 219.5t103.5 217t174 165 t243.5 65.5t219 -63.5t121 -153.5q152 217 406 217z"/>
    <glyph glyph-name="Racute" unicode="Ŕ" horiz-adv-x="1361" d="M1237 1135q0 208 -244 211h-334l-108 -541h346q166 0 253 85t87 245zM1343 133q3 -15 3 -51t-25 -82h-281l-178 657h-340l-106 -524h178q2 -10 2 -23v-30q0 -36 -25 -80h-503q-2 10 -2 23v39q0 26 24 71h152l247 1227h-147q-2 10 -2 23v30q0 36 25 80h657q221 0 321 -118 q80 -92 80 -236q0 -185 -103 -307t-284 -160l168 -539h139zM1079 1890h213l-303 -278h-143z"/>
    <glyph glyph-name="racute" unicode="ŕ" horiz-adv-x="733" d="M242 965q0 39 26 73h271l-52 -258q38 92 99 149q61 58 112 84q85 43 176 16q31 -9 50 -21l-64 -154q-87 50 -187 -9q-99 -59 -175 -238q-39 -91 -64 -214l-78 -393h-166l185 920h-131q-2 6 -2 45zM786 1456h213l-303 -278h-143z"/>
    <glyph glyph-name="Rcommaaccent" unicode="Ŗ" horiz-adv-x="1361" d="M1237 1135q0 208 -244 211h-334l-108 -541h346q166 0 253 85t87 245zM1343 133q3 -15 3 -51t-25 -82h-281l-178 657h-340l-106 -524h178q2 -10 2 -23v-30q0 -36 -25 -80h-503q-2 10 -2 23v39q0 26 24 71h152l247 1227h-147q-2 10 -2 23v30q0 36 25 80h657q221 0 321 -118 q80 -92 80 -236q0 -185 -103 -307t-284 -160l168 -539h139zM675 -283h-11q-39 0 -61 23q-21 24 -21 64t30 68q31 28 79 28t79 -28t31 -82q0 -96 -70 -159t-170 -77l12 88q35 6 71 28t46 49q-10 -2 -15 -2z"/>
    <glyph glyph-name="rcommaaccent" unicode="ŗ" horiz-adv-x="733" d="M242 965q0 39 26 73h271l-52 -258q38 92 99 149q61 58 112 84q85 43 176 16q31 -9 50 -21l-64 -154q-87 50 -187 -9q-99 -59 -175 -238q-39 -91 -64 -214l-78 -393h-166l185 920h-131q-2 6 -2 45zM234 -283h-11q-39 0 -61 23q-22 24 -21 64q0 40 31 68t79 28t79 -28 q30 -28 30 -82q-1 -97 -70 -160q-70 -62 -169 -76l12 88q35 6 71 28t46 49q-10 -2 -16 -2z"/>
    <glyph glyph-name="Rcaron" unicode="Ř" horiz-adv-x="1361" d="M1237 1135q0 208 -244 211h-334l-108 -541h346q166 0 253 85t87 245zM1343 133q3 -15 3 -51t-25 -82h-281l-178 657h-340l-106 -524h178q2 -10 2 -23v-30q0 -36 -25 -80h-503q-2 10 -2 23v39q0 26 24 71h152l247 1227h-147q-2 10 -2 23v30q0 36 25 80h657q221 0 321 -118 q80 -92 80 -236q0 -185 -103 -307t-284 -160l168 -539h139zM723 1890h158l94 -184l168 184h157l-251 -278h-185z"/>
    <glyph glyph-name="rcaron" unicode="ř" horiz-adv-x="733" d="M242 965q0 39 26 73h271l-52 -258q38 92 99 149q61 58 112 84q85 43 176 16q31 -9 50 -21l-64 -154q-87 50 -187 -9q-99 -59 -175 -238q-39 -91 -64 -214l-78 -393h-166l185 920h-131q-2 6 -2 45zM401 1456h158l94 -184l168 184h158l-252 -278h-184z"/>
    <glyph glyph-name="Sacute" unicode="Ś" horiz-adv-x="1257" d="M242 0q-37 -12 -67 -12t-81 12l109 539q37 12 77 12t70 -14l-5 -35q-3 -20 -5 -40t-4 -36t-2 -48t24 -85t70 -94q105 -92 283 -91q178 0 273 76t95 211q0 93 -45 153t-157 99l-236 80q-163 52 -234 137q-71 84 -71 230q0 70 31 146q68 168 257 248q100 42 212 42 q254 0 362 -116q29 -32 43 -62l29 143q37 12 67 12t80 -12l-102 -506q-37 -12 -78 -12t-72 14q17 51 17 126q0 194 -186 253q-62 20 -143 20q-148 1 -247 -82q-90 -80 -90 -204q0 -74 37 -122t152 -87l243 -82q180 -59 253 -153t73 -234q0 -196 -139 -327 q-147 -134 -390 -134q-376 0 -471 197zM1090 1890h213l-304 -278h-143z"/>
    <glyph glyph-name="sacute" unicode="ś" horiz-adv-x="976" d="M856 766q0 174 -219 174q-99 0 -157 -48t-58 -134q0 -54 44 -84t105 -49l146 -43q231 -69 231 -269q0 -158 -110 -250t-276 -92t-265 89q-29 26 -41 55l-27 -109q-24 -12 -60 -12t-60 12l84 404q31 10 59 10t63 -10q-14 -96 -14 -123t22 -64q21 -37 57 -63 q71 -53 169 -55q98 -1 164 39t65 139q0 110 -162 163l-147 48q-80 27 -141 87q-62 60 -62 148q-1 156 102 242q102 86 239 87q136 1 203 -36t91 -94l21 108q68 25 122 0l-73 -377q-31 -10 -63 -10t-62 13q10 58 10 104zM846 1456h213l-303 -278h-144z"/>
    <glyph glyph-name="Scircumflex" unicode="Ŝ" horiz-adv-x="1257" d="M242 0q-37 -12 -67 -12t-81 12l109 539q37 12 77 12t70 -14l-5 -35q-3 -20 -5 -40t-4 -36t-2 -48t24 -85t70 -94q105 -92 283 -91q178 0 273 76t95 211q0 93 -45 153t-157 99l-236 80q-163 52 -234 137q-71 84 -71 230q0 70 31 146q68 168 257 248q100 42 212 42 q254 0 362 -116q29 -32 43 -62l29 143q37 12 67 12t80 -12l-102 -506q-37 -12 -78 -12t-72 14q17 51 17 126q0 194 -186 253q-62 20 -143 20q-148 1 -247 -82q-90 -80 -90 -204q0 -74 37 -122t152 -87l243 -82q180 -59 253 -153t73 -234q0 -196 -139 -327 q-147 -134 -390 -134q-376 0 -471 197zM915 1890h177l141 -278h-146l-98 196l-178 -196h-147z"/>
    <glyph glyph-name="scircumflex" unicode="ŝ" horiz-adv-x="976" d="M856 766q0 174 -219 174q-99 0 -157 -48t-58 -134q0 -54 44 -84t105 -49l146 -43q231 -69 231 -269q0 -158 -110 -250t-276 -92t-265 89q-29 26 -41 55l-27 -109q-24 -12 -60 -12t-60 12l84 404q31 10 59 10t63 -10q-14 -96 -14 -123t22 -64q21 -37 57 -63 q71 -53 169 -55q98 -1 164 39t65 139q0 110 -162 163l-147 48q-80 27 -141 87q-62 60 -62 148q-1 156 102 242q102 86 239 87q136 1 203 -36t91 -94l21 108q68 25 122 0l-73 -377q-31 -10 -63 -10t-62 13q10 58 10 104zM682 1456h176l141 -278h-145l-98 196l-178 -196h-148z "/>
    <glyph glyph-name="Scedilla" unicode="Ş" horiz-adv-x="1257" d="M513 -354q40 0 75 6t55 33q20 26 21 55q0 69 -80 72q-37 0 -80 -21l-27 39l135 143q-265 31 -338 189l-32 -162q-37 -12 -67 -12t-81 12l109 539q37 12 77 12t70 -14l-5 -35q-3 -20 -5 -40t-4 -36t-2 -48t24 -85t70 -94q105 -92 283 -91q178 0 273 76t95 211 q0 93 -45 153t-157 99l-236 80q-163 52 -234 137q-71 84 -71 230q0 70 31 146q68 168 257 248q100 42 212 42q254 0 362 -116q29 -32 43 -62l29 143q37 12 67 12t80 -12l-102 -506q-37 -12 -78 -12t-72 14q17 51 17 126q0 194 -186 253q-62 20 -143 20q-148 1 -247 -82 q-90 -80 -90 -204q0 -74 37 -122t152 -87l243 -82q180 -59 253 -153t73 -234q0 -196 -139 -327q-147 -134 -390 -134h-32l-78 -84q20 4 45 4q72 0 104 -38t33 -87q0 -93 -79 -149q-79 -57 -181 -57t-188 43l39 79q65 -30 105 -30z"/>
    <glyph glyph-name="scedilla" unicode="ş" horiz-adv-x="976" d="M355 -354q40 0 75 6t56 33q20 26 20 55q0 69 -80 72q-37 0 -80 -21l-27 39l142 150q-72 16 -129 53t-76 82l-27 -109q-24 -12 -60 -12t-60 12l84 404q31 10 59 10t63 -10q-14 -96 -14 -123t22 -64q21 -37 57 -63q71 -53 169 -55q98 -1 164 39t65 139q0 110 -162 163 l-147 48q-80 27 -141 87q-62 60 -62 148q-1 156 102 242q102 86 239 87q136 1 203 -36t91 -94l21 108q68 25 122 0l-73 -377q-31 -10 -63 -10t-62 13q10 58 10 104q0 174 -219 174q-99 0 -157 -48t-58 -134q0 -54 44 -84t105 -49l146 -43q231 -69 231 -269q0 -157 -106 -247 t-281 -95l-84 -90q20 4 45 4q72 0 105 -38t33 -87q-1 -92 -80 -149q-78 -57 -179 -57t-190 43l39 79q65 -30 105 -30z"/>
    <glyph glyph-name="Scaron" unicode="Š" horiz-adv-x="1257" d="M242 0q-37 -12 -67 -12t-81 12l109 539q37 12 77 12t70 -14l-5 -35q-3 -20 -5 -40t-4 -36t-2 -48t24 -85t70 -94q105 -92 283 -91q178 0 273 76t95 211q0 93 -45 153t-157 99l-236 80q-163 52 -234 137q-71 84 -71 230q0 70 31 146q68 168 257 248q100 42 212 42 q254 0 362 -116q29 -32 43 -62l29 143q37 12 67 12t80 -12l-102 -506q-37 -12 -78 -12t-72 14q17 51 17 126q0 194 -186 253q-62 20 -143 20q-148 1 -247 -82q-90 -80 -90 -204q0 -74 37 -122t152 -87l243 -82q180 -59 253 -153t73 -234q0 -196 -139 -327 q-147 -134 -390 -134q-376 0 -471 197zM735 1890h158l94 -184l168 184h158l-252 -278h-184z"/>
    <glyph glyph-name="scaron" unicode="š" horiz-adv-x="976" d="M856 766q0 174 -219 174q-99 0 -157 -48t-58 -134q0 -54 44 -84t105 -49l146 -43q231 -69 231 -269q0 -158 -110 -250t-276 -92t-265 89q-29 26 -41 55l-27 -109q-24 -12 -60 -12t-60 12l84 404q31 10 59 10t63 -10q-14 -96 -14 -123t22 -64q21 -37 57 -63 q71 -53 169 -55q98 -1 164 39t65 139q0 110 -162 163l-147 48q-80 27 -141 87q-62 60 -62 148q-1 156 102 242q102 86 239 87q136 1 203 -36t91 -94l21 108q68 25 122 0l-73 -377q-31 -10 -63 -10t-62 13q10 58 10 104zM512 1456h158l94 -184l168 184h158l-252 -278h-185z "/>
    <glyph glyph-name="uni0162" unicode="Ţ" horiz-adv-x="1304" d="M401 23v39q0 27 25 71h164l246 1213h-359l-63 -320q-30 -10 -66 -10t-86 14l92 463h1196l-92 -467q-30 -10 -66 -10t-85 14l63 316h-356l-246 -1213h178q2 -10 2 -23v-30q0 -35 -24 -80h-521q-2 10 -2 23zM601 -283h-11q-39 0 -61 23q-21 24 -21 64t31 68t79 28t78 -28 q31 -28 31 -82q0 -98 -70 -160t-170 -76l13 88q34 6 70 28t46 49q-10 -2 -15 -2z"/>
    <glyph glyph-name="uni0163" unicode="ţ" horiz-adv-x="647" d="M401 203q0 -80 86 -80t160 41l-26 -139q-72 -39 -169 -39t-157 54q-59 54 -59 153v4q0 35 6 71l129 641h-144q-2 9 -2 17v16q0 64 27 96h145l49 252l189 94l-72 -346h228q2 -8 2 -16v-16q0 -62 -27 -97h-229l-129 -643q-7 -25 -7 -63zM337 -283h-11q-39 0 -61 23 q-21 24 -21 64t30 68q31 28 79 28t79 -28t31 -82q0 -96 -70 -159t-170 -77l13 88q34 6 70 28t46 49q-10 -2 -15 -2z"/>
    <glyph glyph-name="Tcaron" unicode="Ť" horiz-adv-x="1304" d="M401 23v39q0 27 25 71h164l246 1213h-359l-63 -320q-30 -10 -66 -10t-86 14l92 463h1196l-92 -467q-30 -10 -66 -10t-85 14l63 316h-356l-246 -1213h178q2 -10 2 -23v-30q0 -35 -24 -80h-521q-2 10 -2 23zM737 1890h158l94 -184l168 184h158l-252 -278h-184z"/>
    <glyph glyph-name="tcaron" unicode="ť" horiz-adv-x="647" d="M401 203q0 -80 86 -80t160 41l-26 -139q-72 -39 -169 -39t-157 54q-59 54 -59 153v4q0 35 6 71l129 641h-144q-2 9 -2 17v16q0 64 27 96h145l49 252l189 94l-72 -346h228q2 -8 2 -16v-16q0 -62 -27 -97h-229l-129 -643q-7 -25 -7 -63zM782 1552h179l-144 -368h-112z"/>
    <glyph glyph-name="Tbar" unicode="Ŧ" horiz-adv-x="1304" d="M401 23v39q0 27 25 71h164l112 557h-333l26 133h334l107 523h-359l-63 -320q-30 -10 -66 -10t-86 14l92 463h1196l-92 -467q-30 -10 -66 -10t-85 14l63 316h-356l-107 -523h336l-26 -133h-336l-113 -557h178q2 -10 2 -23v-30q0 -35 -24 -80h-521q-2 10 -2 23z"/>
    <glyph glyph-name="tbar" unicode="ŧ" horiz-adv-x="647" d="M401 203q0 -80 86 -80t160 41l-26 -139q-72 -39 -169 -39t-157 54q-59 54 -59 153v4q0 35 6 71l49 244h-158l27 127h155l56 270h-144q-2 9 -2 17v16q0 64 27 96h145l49 252l189 94l-72 -346h228q2 -8 2 -16v-16q0 -62 -27 -97h-229l-56 -270h262l-26 -127h-260l-49 -246 q-7 -25 -7 -63z"/>
    <glyph glyph-name="Utilde" unicode="Ũ" horiz-adv-x="1474" d="M1714 1470v-39q0 -26 -24 -71h-150l-176 -887q-49 -225 -160 -336q-165 -174 -440 -174q-230 0 -351 112q-120 112 -120 304q0 46 12 121l172 860h-139q-2 10 -2 23v30q0 35 24 80h478q2 -10 2 -23v-30q0 -36 -25 -80h-160l-168 -842q-14 -56 -14 -130q0 -141 89 -207 t224 -66q177 0 278 96t140 297l170 852h-149q-2 10 -2 23v30q0 35 24 80h465q2 -10 2 -23zM1247 1786q62 0 99 62q8 15 14 26h113q-78 -219 -254 -219q-41 0 -77 13q-36 14 -84 34q-115 49 -157 21q-42 -27 -61 -81h-113q29 94 75 140q79 78 179 80q61 0 96 -16 q137 -60 170 -60z"/>
    <glyph glyph-name="utilde" unicode="ũ" d="M1092 75q0 -40 -27 -75h-270l55 279q-68 -127 -129 -185q-128 -123 -255 -123q-128 0 -187 65q-91 100 -46 296l142 588h-152q-2 4 -2 44t27 74h317l-147 -635q-25 -118 -25 -170q0 -118 121 -116q103 0 220 159t169 404l74 358h166l-185 -919h132q2 -4 2 -44zM667 1298 q-79 0 -112 -90h-113q29 94 75 140q80 79 179 79q60 0 96 -15q111 -47 136 -54q24 -6 46 -6t44 12t37 39q14 26 20 37h113q-78 -219 -254 -219q-41 0 -77 13q-36 12 -96 38q-59 26 -94 26z"/>
    <glyph glyph-name="Umacron" unicode="Ū" horiz-adv-x="1474" d="M1714 1470v-39q0 -26 -24 -71h-150l-176 -887q-49 -225 -160 -336q-165 -174 -440 -174q-230 0 -351 112q-120 112 -120 304q0 46 12 121l172 860h-139q-2 10 -2 23v30q0 35 24 80h478q2 -10 2 -23v-30q0 -36 -25 -80h-160l-168 -842q-14 -56 -14 -130q0 -141 89 -207 t224 -66q177 0 278 96t140 297l170 852h-149q-2 10 -2 23v30q0 35 24 80h465q2 -10 2 -23zM782 1802h629l-27 -133h-628z"/>
    <glyph glyph-name="umacron" unicode="ū" d="M1092 75q0 -40 -27 -75h-270l55 279q-68 -127 -129 -185q-128 -123 -255 -123q-128 0 -187 65q-91 100 -46 296l142 588h-152q-2 4 -2 44t27 74h317l-147 -635q-25 -118 -25 -170q0 -118 121 -116q103 0 220 159t169 404l74 358h166l-185 -919h132q2 -4 2 -44zM508 1368 h629l-27 -133h-629z"/>
    <glyph glyph-name="Ubreve" unicode="Ŭ" horiz-adv-x="1474" d="M1714 1470v-39q0 -26 -24 -71h-150l-176 -887q-49 -225 -160 -336q-165 -174 -440 -174q-230 0 -351 112q-120 112 -120 304q0 46 12 121l172 860h-139q-2 10 -2 23v30q0 35 24 80h478q2 -10 2 -23v-30q0 -36 -25 -80h-160l-168 -842q-14 -56 -14 -130q0 -141 89 -207 t224 -66q177 0 278 96t140 297l170 852h-149q-2 10 -2 23v30q0 35 24 80h465q2 -10 2 -23zM780 1862q0 12 2 24h117q6 -68 25 -95q42 -56 133 -56q132 0 191 102q15 27 26 49h117q-49 -177 -204 -244q-63 -26 -149 -26q-152 1 -212 70q-43 48 -46 151v25z"/>
    <glyph glyph-name="ubreve" unicode="ŭ" d="M1092 75q0 -40 -27 -75h-270l55 279q-68 -127 -129 -185q-128 -123 -255 -123q-128 0 -187 65q-91 100 -46 296l142 588h-152q-2 4 -2 44t27 74h317l-147 -635q-25 -118 -25 -170q0 -118 121 -116q103 0 220 159t169 404l74 358h166l-185 -919h132q2 -4 2 -44zM532 1403 q0 36 3 49h116q6 -68 25 -95q41 -56 134 -56q92 -1 151 53q30 27 65 98h117q-49 -177 -204 -244q-63 -26 -149 -26q-217 1 -248 140q-10 45 -10 81z"/>
    <glyph glyph-name="Uring" unicode="Ů" horiz-adv-x="1474" d="M1714 1470v-39q0 -26 -24 -71h-150l-176 -887q-49 -225 -160 -336q-165 -174 -440 -174q-230 0 -351 112q-120 112 -120 304q0 46 12 121l172 860h-139q-2 10 -2 23v30q0 35 24 80h478q2 -10 2 -23v-30q0 -36 -25 -80h-160l-168 -842q-14 -56 -14 -130q0 -141 89 -207 t224 -66q177 0 278 96t140 297l170 852h-149q-2 10 -2 23v30q0 35 24 80h465q2 -10 2 -23zM1073 1696q49 0 87 38t38 87t-38 87t-87 38t-87 -38t-38 -87t38 -87t87 -38zM1224 1670q-62 -62 -152 -62t-151 62t-61 152q0 89 62 149q62 61 150 62q90 1 152 -61t62 -152 q0 -88 -62 -150z"/>
    <glyph glyph-name="uring" unicode="ů" d="M1092 75q0 -40 -27 -75h-270l55 279q-68 -127 -129 -185q-128 -123 -255 -123q-128 0 -187 65q-91 100 -46 296l142 588h-152q-2 4 -2 44t27 74h317l-147 -635q-25 -118 -25 -170q0 -118 121 -116q103 0 220 159t169 404l74 358h166l-185 -919h132q2 -4 2 -44zM797 1262 q49 0 87 38t38 86q0 50 -38 88t-87 38t-87 -38t-38 -88t38 -86q38 -38 87 -38zM646 1537q62 62 152 62t149 -61q60 -61 62 -150q1 -90 -61 -152t-152 -62q-88 0 -150 62t-62 150t62 151z"/>
    <glyph glyph-name="Uhungarumlaut" unicode="Ű" horiz-adv-x="1474" d="M1714 1470v-39q0 -26 -24 -71h-150l-176 -887q-49 -225 -160 -336q-165 -174 -440 -174q-230 0 -351 112q-120 112 -120 304q0 46 12 121l172 860h-139q-2 10 -2 23v30q0 35 24 80h478q2 -10 2 -23v-30q0 -36 -25 -80h-160l-168 -842q-14 -56 -14 -130q0 -141 89 -207 t224 -66q177 0 278 96t140 297l170 852h-149q-2 10 -2 23v30q0 35 24 80h465q2 -10 2 -23zM1040 1890h201l-285 -278h-125zM1348 1890h200l-284 -278h-125z"/>
    <glyph glyph-name="uhungarumlaut" unicode="ű" d="M1092 75q0 -40 -27 -75h-270l55 279q-68 -127 -129 -185q-128 -123 -255 -123q-128 0 -187 65q-91 100 -46 296l142 588h-152q-2 4 -2 44t27 74h317l-147 -635q-25 -118 -25 -170q0 -118 121 -116q103 0 220 159t169 404l74 358h166l-185 -919h132q2 -4 2 -44zM766 1456 h201l-285 -278h-125zM1073 1456h201l-285 -278h-125z"/>
    <glyph glyph-name="Uogonek" unicode="Ų" horiz-adv-x="1474" d="M530 -284q0 66 50 134t141 115q-321 18 -403 252q-40 114 -13 283l172 860h-139q-2 10 -2 23v30q0 35 24 80h478q2 -10 2 -23v-30q0 -36 -25 -80h-160l-168 -842q-14 -56 -14 -130q0 -141 89 -207t224 -66q177 0 278 96t140 297l170 852h-149q-2 10 -2 23v30q0 35 24 80 h465q2 -10 2 -23v-30q0 -35 -24 -80h-150l-176 -887q-49 -225 -160 -336q-123 -131 -317 -164q-201 -100 -201 -229q0 -96 102 -94q55 0 123 24l21 -77q-99 -43 -205 -43q-107 0 -152 48t-45 114z"/>
    <glyph glyph-name="uogonek" unicode="ų" d="M594 -296q0 146 166 246q53 32 121 50h-86l55 279q-68 -127 -129 -185q-128 -123 -255 -123q-128 0 -187 65q-91 100 -46 296l142 588h-152q-2 4 -2 44t27 74h317l-147 -635q-25 -118 -25 -170q0 -118 121 -116q103 0 220 159t169 404l74 358h166l-185 -919h132 q2 -4 2 -44t-27 -75h-57q-129 -55 -194 -123t-64 -133q0 -96 102 -94q53 0 123 24l20 -77q-99 -43 -205 -43t-151 48t-45 102z"/>
    <glyph glyph-name="Wcircumflex" unicode="Ŵ" horiz-adv-x="1992" d="M2271 1470v-39q0 -26 -24 -71h-136l-634 -1378h-187l-35 1038v43q0 151 9 223q-10 -24 -24 -60t-42 -105q-27 -69 -43 -101l-473 -1038h-186l-66 1378h-129q-2 10 -2 23v30q0 36 25 80h471q2 -10 2 -23v-30q0 -36 -25 -80h-172l37 -979v-53q0 -78 -6 -152q50 151 92 238 l491 1079h191l35 -1112v-37q0 -86 -8 -168q26 100 92 238l430 946h-168q-2 10 -2 23v30q0 35 24 80h461q2 -10 2 -23zM1286 1890h176l142 -278h-146l-98 196l-178 -196h-148z"/>
    <glyph glyph-name="wcircumflex" unicode="ŵ" horiz-adv-x="1570" d="M1632 800q0 -154 -49 -314t-133 -274t-194 -177t-218 -63t-166 52q-58 54 -59 132v17q0 7 2 17q-27 -65 -121 -142t-219 -77q-124 0 -188 68q-63 68 -63 154t14 139l139 588h-135q-2 4 -2 44t26 74h301l-149 -637q-4 -12 -7 -32t-9 -56t-5 -81q0 -46 30 -84 q29 -38 103 -38q131 1 231 201q68 135 109 336l78 391h166l-137 -680q-14 -77 -14 -126q0 -123 116 -121q84 -1 154 65q140 131 200 376q47 192 15 368h-139q-2 4 -2 44t26 74h266q33 -84 33 -238zM973 1456h176l141 -278h-145l-98 196l-179 -196h-147z"/>
    <glyph glyph-name="Ycircumflex" unicode="Ŷ" horiz-adv-x="1400" d="M453 23v39q0 26 24 71h154l92 467l-315 760h-107q-2 10 -2 23v30q0 36 25 80h473q2 -10 2 -23v-30q0 -36 -25 -80h-184l250 -621l520 621h-178q-2 10 -2 23v30q0 35 24 80h471q2 -10 2 -23v-30q0 -35 -24 -80h-111l-639 -760l-94 -467h168q2 -10 2 -23v-30q0 -36 -25 -80 h-499q-2 10 -2 23zM977 1890h176l141 -278h-145l-98 196l-179 -196h-147z"/>
    <glyph glyph-name="ycircumflex" unicode="ŷ" horiz-adv-x="983" d="M173 -225q161 0 335 260q-151 615 -252 885h-127q-2 6 -2 45t27 73h239q50 -119 131 -414t109 -413q106 169 178 345t73 260t-5 104h-144q-2 6 -2 45t27 73h268q25 -55 25 -150q0 -185 -147 -477q-147 -291 -328 -515q-106 -133 -206 -199t-229 -66q-47 1 -88 11t-57 22 l31 148q65 -37 144 -37zM621 1456h176l141 -278h-145l-99 196l-178 -196h-147z"/>
    <glyph glyph-name="Ydieresis" unicode="Ÿ" horiz-adv-x="1400" d="M453 23v39q0 26 24 71h154l92 467l-315 760h-107q-2 10 -2 23v30q0 36 25 80h473q2 -10 2 -23v-30q0 -36 -25 -80h-184l250 -621l520 621h-178q-2 10 -2 23v30q0 35 24 80h471q2 -10 2 -23v-30q0 -35 -24 -80h-111l-639 -760l-94 -467h168q2 -10 2 -23v-30q0 -36 -25 -80 h-499q-2 10 -2 23zM867 1628q-41 0 -71 25t-30 73t32 82q32 33 72 33q40 1 69 -27q28 -28 28 -72t-30 -79t-70 -35zM1227 1841q41 1 69 -27t27 -72q1 -44 -29 -79t-70 -35t-71 25t-31 73t32 82q32 33 73 33z"/>
    <glyph glyph-name="Zacute" unicode="Ź" horiz-adv-x="1220" d="M457 1047q-29 -11 -67 -11t-83 15l88 442h1035l-33 -160l-1104 -1186h751l60 306q28 10 66 10q39 0 85 -14l-90 -449h-1110l33 160l1104 1186h-676zM1071 1890h213l-303 -278h-143z"/>
    <glyph glyph-name="zacute" unicode="ź" horiz-adv-x="880" d="M276 686q-33 0 -65 12l68 340h749l-29 -139l-737 -770h465l41 209q37 12 70 12t67 -12l-69 -338h-793l29 137l737 772h-422l-43 -211q-35 -12 -68 -12zM819 1456h213l-303 -278h-143z"/>
    <glyph glyph-name="Zdotaccent" unicode="Ż" horiz-adv-x="1220" d="M457 1047q-29 -11 -67 -11t-83 15l88 442h1035l-33 -160l-1104 -1186h751l60 306q28 10 66 10q39 0 85 -14l-90 -449h-1110l33 160l1104 1186h-676zM953 1624q-41 0 -71 27t-30 75t32 84q32 35 72 35q40 1 69 -29q28 -30 28 -74t-30 -81t-70 -37z"/>
    <glyph glyph-name="zdotaccent" unicode="ż" horiz-adv-x="880" d="M276 686q-33 0 -65 12l68 340h749l-29 -139l-737 -770h465l41 209q37 12 70 12t67 -12l-69 -338h-793l29 137l737 772h-422l-43 -211q-35 -12 -68 -12zM685 1190q-40 0 -71 27q-30 27 -30 75t31 84q32 35 73 35t69 -30q27 -29 27 -73t-30 -81t-69 -37z"/>
    <glyph glyph-name="Zcaron" unicode="Ž" horiz-adv-x="1220" d="M457 1047q-29 -11 -67 -11t-83 15l88 442h1035l-33 -160l-1104 -1186h751l60 306q28 10 66 10q39 0 85 -14l-90 -449h-1110l33 160l1104 1186h-676zM696 1890h158l94 -184l168 184h158l-252 -278h-184z"/>
    <glyph glyph-name="zcaron" unicode="ž" horiz-adv-x="880" d="M276 686q-33 0 -65 12l68 340h749l-29 -139l-737 -770h465l41 209q37 12 70 12t67 -12l-69 -338h-793l29 137l737 772h-422l-43 -211q-35 -12 -68 -12zM444 1456h158l94 -184l168 184h158l-252 -278h-184z"/>
    <glyph glyph-name="longs" unicode="ſ" horiz-adv-x="503" d="M895 1397q-162 78 -256 -16q-55 -53 -80 -179l-203 -1194q-53 -310 -236 -361q-145 -40 -259 17l33 127q40 -25 114 -26t116 53t64 184l197 1167q36 227 157 327q86 72 199 74q113 1 189 -36z"/>
    <glyph glyph-name="florin" unicode="ƒ" horiz-adv-x="1110" d="M393 926v16q0 67 27 96h227l21 131q36 227 154 327q86 73 201 74t189 -36l-34 -137q-119 53 -199 21q-64 -23 -105 -106q-20 -44 -32 -110l-29 -164h256q2 -8 2 -16v-16q0 -65 -27 -97h-253l-152 -901q-53 -311 -237 -361q-140 -39 -259 17l33 127q40 -25 114 -26 q75 -1 117 53t64 184l154 907h-230q-2 9 -2 17z"/>
    <glyph glyph-name="Acaron" unicode="Ǎ" horiz-adv-x="1458" d="M1059 618l-55 472q-23 161 -23 262q-48 -109 -131 -262l-250 -472h459zM25 23v39q0 26 24 71h133l748 1378h190l174 -1378h131q2 -10 2 -23v-30q0 -35 -24 -80h-483q-2 10 -2 23v30q0 35 24 80h176l-41 346h-553l-184 -346h158q2 -10 2 -23v-30q0 -36 -25 -80h-448 q-2 10 -2 23zM805 1890h158l94 -184l168 184h157l-252 -278h-184z"/>
    <glyph glyph-name="acaron" unicode="ǎ" d="M352 381q0 -262 186 -262q64 0 134 58q70 57 124 147t87 195t33 207t-53 159q-52 57 -134 57q-83 0 -153 -50t-119 -130q-105 -171 -105 -381zM1106 71q0 -44 -29 -71h-272l53 256q-90 -192 -256 -259q-61 -26 -137 -26t-132 32q-107 61 -146 205q-17 67 -17 138 q0 344 221 578q134 145 330 145q125 0 204 -79q30 -30 48 -75l78 123h106l-186 -919h133q2 -4 2 -48zM553 1456h158l94 -184l168 184h157l-251 -278h-185z"/>
    <glyph glyph-name="I.caron.precomp" unicode="Ǐ" horiz-adv-x="645" d="M82 23v39q0 26 24 71h152l248 1227h-148q-2 10 -2 23v30q0 36 25 80h479q2 -10 2 -23v-30q0 -35 -24 -80h-154l-246 -1227h148q2 -10 2 -23v-30q0 -36 -25 -80h-479q-2 10 -2 23zM397 1890h158l94 -184l168 184h158l-252 -278h-184z"/>
    <glyph glyph-name="i.dot.precomp" unicode="ǐ" horiz-adv-x="598" d="M526 74q0 -39 -26 -74h-299l186 920h-131q-2 6 -2 45t27 73h297l-187 -919h133q2 -6 2 -45zM523 1190q-41 0 -71 27t-30 75t32 84q32 35 72 35t69 -30q28 -29 28 -73t-30 -81t-70 -37z"/>
    <glyph glyph-name="uni01D1" unicode="Ǒ" horiz-adv-x="1523" d="M836 111q90 0 194 60q214 124 312 431q48 152 48 334t-85 303q-102 143 -299 143q-126 0 -230 -63t-180 -173q-162 -234 -162 -571q0 -246 124 -368q97 -96 278 -96zM818 -37q-178 0 -284 57q-208 110 -268 350q-53 203 -6 435t181 419q135 187 346 266q108 40 243 40 q134 0 240 -45q316 -135 317 -582q0 -151 -49 -323t-148 -310q-98 -138 -246 -222q-148 -85 -326 -85zM821 1890h158l94 -184l168 184h158l-252 -278h-184z"/>
    <glyph glyph-name="uni01D2" unicode="ǒ" horiz-adv-x="1079" d="M346 410q0 -301 236 -301q102 0 172 61q129 112 172 324q18 92 18 139t-7 96q-16 111 -100 171q-46 32 -120 32q-130 0 -231 -116t-133 -322q-7 -51 -7 -84zM584 -29q-108 0 -178 29q-72 29 -123 84t-80 134t-29 181q0 103 34 221q73 254 277 381q105 66 231 66t200 -41 q200 -110 200 -360q0 -129 -38 -254q-80 -260 -284 -380q-102 -60 -210 -61zM571 1456h158l94 -184l168 184h158l-252 -278h-184z"/>
    <glyph glyph-name="U.caron.precomp" unicode="Ǔ" horiz-adv-x="1474" d="M1714 1470v-39q0 -26 -24 -71h-150l-176 -887q-49 -225 -160 -336q-165 -174 -440 -174q-230 0 -351 112q-120 112 -120 304q0 46 12 121l172 860h-139q-2 10 -2 23v30q0 35 24 80h478q2 -10 2 -23v-30q0 -36 -25 -80h-160l-168 -842q-14 -56 -14 -130q0 -141 89 -207 t224 -66q177 0 278 96t140 297l170 852h-149q-2 10 -2 23v30q0 35 24 80h465q2 -10 2 -23zM829 1890h158l94 -184l168 184h158l-252 -278h-184z"/>
    <glyph glyph-name="u.caron.precomp" unicode="ǔ" d="M1092 75q0 -40 -27 -75h-270l55 279q-68 -127 -129 -185q-128 -123 -255 -123q-128 0 -187 65q-91 100 -46 296l142 588h-152q-2 4 -2 44t27 74h317l-147 -635q-25 -118 -25 -170q0 -118 121 -116q103 0 220 159t169 404l74 358h166l-185 -919h132q2 -4 2 -44zM520 1456 h158l94 -184l168 184h158l-252 -278h-184z"/>
    <glyph glyph-name="O.ogonek.precomp" unicode="Ǫ" horiz-adv-x="1523" d="M836 111q90 0 194 60q214 124 312 431q48 152 48 334t-85 303q-102 143 -299 143q-126 0 -230 -63t-180 -173q-162 -234 -162 -571q0 -246 124 -368q97 -96 278 -96zM770 -446q-107 0 -152 48t-45 114q-1 66 49 134t142 115q-269 11 -411 212q-117 168 -115 415 q0 348 201 631q137 188 348 267q108 40 243 40q134 0 240 -45q316 -135 317 -575q0 -144 -41 -301q-86 -329 -327 -513q-123 -92 -287 -121q-203 -105 -203 -231q0 -96 102 -94q55 0 123 24l21 -77q-98 -43 -205 -43z"/>
    <glyph glyph-name="o.ogonek.precomp" unicode="ǫ" horiz-adv-x="1079" d="M346 410q0 -301 236 -301q102 0 172 61q129 112 172 324q18 92 18 139t-7 96q-16 111 -100 171q-46 32 -120 32q-130 0 -231 -116t-133 -322q-7 -51 -7 -84zM287 -282q0 68 55 141q55 72 160 116q-147 18 -238 128q-90 110 -90 296q0 103 34 221q73 254 277 381 q105 66 231 66t200 -41q200 -110 200 -356t-122 -443q-58 -93 -144 -159t-193 -86q-213 -103 -215 -238q0 -96 103 -94q53 0 123 24l20 -77q-99 -43 -205 -43q-107 0 -151 48t-45 116z"/>
    <glyph glyph-name="j.caron.precomp" unicode="ǰ" horiz-adv-x="567" d="M37 -231q118 0 160 202l190 949h-131q-2 6 -2 45t27 73h297l-211 -1042q-41 -201 -129 -283t-207 -82q-83 0 -148 31l27 131q65 -24 127 -24zM254 1456h158l94 -184l168 184h157l-251 -278h-185z"/>
    <glyph glyph-name="N.grave.precomp" unicode="Ǹ" horiz-adv-x="1472" d="M66 23v39q0 26 24 71h152l247 1227h-147q-2 10 -2 23v30q0 36 25 80h358l364 -1051q28 -84 64 -258q20 122 27 160q8 37 13 65t7 33l178 918h-143q-2 10 -2 23v30q0 35 24 80h453q2 -10 2 -23v-30q0 -35 -24 -80h-154l-270 -1378h-183l-385 1110q-47 145 -65 268 q-18 -145 -49 -305l-183 -922h148q2 -10 2 -23v-30q0 -36 -25 -80h-454q-2 10 -2 23zM786 1890h213l123 -278h-133z"/>
    <glyph glyph-name="n.grave.precomp" unicode="ǹ" d="M938 805q0 117 -121 117q-102 0 -219 -159t-170 -405l-74 -358h-166l185 920h-131q-2 6 -2 45t26 73h271l-56 -278q50 108 154 207q104 100 231 100q126 0 186 -65t60 -150t-14 -145l-142 -588h152q2 -6 2 -45t-27 -74h-317l147 635q25 118 25 170zM594 1456h213 l123 -278h-133z"/>
    <glyph glyph-name="Scommaaccent" unicode="Ș" horiz-adv-x="1257" d="M242 0q-37 -12 -67 -12t-81 12l109 539q37 12 77 12t70 -14l-5 -35q-3 -20 -5 -40t-4 -36t-2 -48t24 -85t70 -94q105 -92 283 -91q178 0 273 76t95 211q0 93 -45 153t-157 99l-236 80q-163 52 -234 137q-71 84 -71 230q0 70 31 146q68 168 257 248q100 42 212 42 q254 0 362 -116q29 -32 43 -62l29 143q37 12 67 12t80 -12l-102 -506q-37 -12 -78 -12t-72 14q17 51 17 126q0 194 -186 253q-62 20 -143 20q-148 1 -247 -82q-90 -80 -90 -204q0 -74 37 -122t152 -87l243 -82q180 -59 253 -153t73 -234q0 -196 -139 -327 q-147 -134 -390 -134q-376 0 -471 197zM640 -283h-11q-39 0 -61 23q-22 24 -22 64t32 68q30 28 78 28t79 -28t31 -82q0 -96 -70 -159t-170 -77l13 88q35 6 71 28t45 49q-10 -2 -15 -2z"/>
    <glyph glyph-name="scommaaccent" unicode="ș" horiz-adv-x="976" d="M856 766q0 174 -219 174q-99 0 -157 -48t-58 -134q0 -54 44 -84t105 -49l146 -43q231 -69 231 -269q0 -158 -110 -250t-276 -92t-265 89q-29 26 -41 55l-27 -109q-24 -12 -60 -12t-60 12l84 404q31 10 59 10t63 -10q-14 -96 -14 -123t22 -64q21 -37 57 -63 q71 -53 169 -55q98 -1 164 39t65 139q0 110 -162 163l-147 48q-80 27 -141 87q-62 60 -62 148q-1 156 102 242q102 86 239 87q136 1 203 -36t91 -94l21 108q68 25 122 0l-73 -377q-31 -10 -63 -10t-62 13q10 58 10 104zM464 -283h-11q-39 0 -61 23q-22 24 -22 64t31 68 t79 28t79 -28t31 -82q0 -96 -70 -159t-170 -77l12 88q35 6 71 28t46 49q-10 -2 -15 -2z"/>
    <glyph glyph-name="uni021A" unicode="Ț" horiz-adv-x="1304" d="M401 23v39q0 27 25 71h164l246 1213h-359l-63 -320q-30 -10 -66 -10t-86 14l92 463h1196l-92 -467q-30 -10 -66 -10t-85 14l63 316h-356l-246 -1213h178q2 -10 2 -23v-30q0 -35 -24 -80h-521q-2 10 -2 23zM601 -283h-11q-39 0 -61 23q-21 24 -21 64t31 68t79 28t78 -28 q31 -28 31 -82q0 -98 -70 -160t-170 -76l13 88q34 6 70 28t46 49q-10 -2 -15 -2z"/>
    <glyph glyph-name="uni021B" unicode="ț" horiz-adv-x="647" d="M401 203q0 -80 86 -80t160 41l-26 -139q-72 -39 -169 -39t-157 54q-59 54 -59 153v4q0 35 6 71l129 641h-144q-2 9 -2 17v16q0 64 27 96h145l49 252l189 94l-72 -346h228q2 -8 2 -16v-16q0 -62 -27 -97h-229l-129 -643q-7 -25 -7 -63zM337 -283h-11q-39 0 -61 23 q-21 24 -21 64t30 68q31 28 79 28t79 -28t31 -82q0 -96 -70 -159t-170 -77l13 88q34 6 70 28t46 49q-10 -2 -15 -2z"/>
    <glyph glyph-name="A.dot" unicode="Ȧ" horiz-adv-x="1458" d="M1059 618l-55 472q-23 161 -23 262q-48 -109 -131 -262l-250 -472h459zM25 23v39q0 26 24 71h133l748 1378h190l174 -1378h131q2 -10 2 -23v-30q0 -35 -24 -80h-483q-2 10 -2 23v30q0 35 24 80h176l-41 346h-553l-184 -346h158q2 -10 2 -23v-30q0 -36 -25 -80h-448 q-2 10 -2 23zM1043 1624q-41 0 -71 27t-30 75t32 84q32 35 73 35q41 1 69 -29t27 -74q0 -44 -30 -81t-70 -37z"/>
    <glyph glyph-name="a.dot.precomp" unicode="ȧ" d="M352 381q0 -262 186 -262q64 0 134 58q70 57 124 147t87 195t33 207t-53 159q-52 57 -134 57q-83 0 -153 -50t-119 -130q-105 -171 -105 -381zM1106 71q0 -44 -29 -71h-272l53 256q-90 -192 -256 -259q-61 -26 -137 -26t-132 32q-107 61 -146 205q-17 67 -17 138 q0 344 221 578q134 145 330 145q125 0 204 -79q30 -30 48 -75l78 123h106l-186 -919h133q2 -4 2 -48zM818 1190q-40 0 -70 27t-31 75q0 48 32 84q33 35 73 35t68 -30q28 -29 28 -73t-30 -81t-70 -37z"/>
    <glyph glyph-name="uni022E" unicode="Ȯ" horiz-adv-x="1523" d="M836 111q90 0 194 60q214 124 312 431q48 152 48 334t-85 303q-102 143 -299 143q-126 0 -230 -63t-180 -173q-162 -234 -162 -571q0 -246 124 -368q97 -96 278 -96zM818 -37q-178 0 -284 57q-208 110 -268 350q-53 203 -6 435t181 419q135 187 346 266q108 40 243 40 q134 0 240 -45q316 -135 317 -582q0 -151 -49 -323t-148 -310q-98 -138 -246 -222q-148 -85 -326 -85zM1110 1845q41 1 69 -29q27 -30 27 -74t-30 -81t-69 -37q-40 0 -71 27q-30 27 -30 75t31 84q32 35 73 35z"/>
    <glyph glyph-name="o.dot.precomp" unicode="ȯ" horiz-adv-x="1079" d="M346 410q0 -301 236 -301q102 0 172 61q129 112 172 324q18 92 18 139t-7 96q-16 111 -100 171q-46 32 -120 32q-130 0 -231 -116t-133 -322q-7 -51 -7 -84zM584 -29q-108 0 -178 29q-72 29 -123 84t-80 134t-29 181q0 103 34 221q73 254 277 381q105 66 231 66t200 -41 q200 -110 200 -360q0 -129 -38 -254q-80 -260 -284 -380q-102 -60 -210 -61zM838 1190q-40 0 -70 27t-31 75q0 48 32 84q32 35 73 35q40 0 68 -30q28 -29 28 -73t-30 -81t-70 -37z"/>
    <glyph glyph-name="dotlessj" unicode="ȷ" horiz-adv-x="522" d="M37 -231q118 0 160 202l190 949h-131q-2 6 -2 45t27 73h297l-211 -1042q-41 -201 -129 -283t-207 -82q-83 0 -148 31l27 131q65 -24 127 -24z"/>
    <glyph glyph-name="uni0248" unicode="Ɉ" horiz-adv-x="591" d="M543 1255q-43 0 -71 32t-28 82t33 87t75 37t69 -32t27 -80t-32 -87q-30 -39 -73 -39zM537 75q0 -40 -27 -75h-299l98 492h-164l23 116h166l63 312h-131q-2 4 -2 44t27 74h297l-88 -430h153l-22 -116h-154l-76 -373h134q2 -4 2 -44z"/>
    <glyph glyph-name="uni0249" unicode="ɉ" horiz-adv-x="532" d="M522 1255q-42 0 -70 32t-28 82t33 87t75 37t68 -32q27 -32 27 -80t-31 -87t-74 -39zM37 -231q118 0 160 202l104 521h-176l22 116h177l63 312h-131q-2 6 -2 45t27 73h297l-89 -430h144l-23 -116h-143l-100 -496q-41 -201 -129 -283t-207 -82q-83 0 -148 31l27 131 q65 -24 127 -24z"/>
    <glyph glyph-name="apostrophe" unicode="ʼ" horiz-adv-x="550" d="M301 1418q0 48 32 80t80 32t79 -40q30 -40 30 -110q-1 -133 -85 -222q-85 -89 -193 -109l18 94q61 29 96 63t48 97q-105 7 -105 115z"/>
    <glyph glyph-name="circumflex" unicode="ˆ" horiz-adv-x="700" d="M555 1456h176l141 -278h-145l-98 196l-178 -196h-148z"/>
    <glyph glyph-name="caron" unicode="ˇ" horiz-adv-x="700" d="M354 1456h158l94 -184l168 184h158l-252 -278h-184z"/>
    <glyph glyph-name="uni02C9" unicode="ˉ" horiz-adv-x="700" d="M309 1368h629l-27 -133h-628z"/>
    <glyph glyph-name="breve" unicode="˘" horiz-adv-x="700" d="M334 1388v39q0 12 2 25h117q6 -68 25 -94q40 -56 132 -58q133 0 192 103q15 27 25 49h117q-50 -178 -204 -244q-62 -26 -148 -26q-258 2 -258 206z"/>
    <glyph glyph-name="dotaccent" unicode="˙" horiz-adv-x="700" d="M613 1190q-41 0 -71 27t-30 75t32 84q32 35 72 35t69 -30q28 -29 28 -73t-30 -81t-70 -37z"/>
    <glyph glyph-name="ring" unicode="˚" horiz-adv-x="700" d="M627 1262q49 0 87 38t38 86q0 50 -38 88t-87 38t-87 -38t-38 -88t38 -86q38 -38 87 -38zM476 1537q62 62 152 62t149 -61q60 -61 62 -150q1 -90 -61 -152t-152 -62q-88 0 -150 62t-62 150t62 151z"/>
    <glyph glyph-name="ogonek" unicode="˛" horiz-adv-x="700" d="M278 -446q-106 0 -151 48t-45 102q0 146 166 246q53 32 121 50h127q-129 -55 -194 -123t-64 -133q0 -96 102 -94q53 0 123 24l20 -77q-99 -43 -205 -43z"/>
    <glyph glyph-name="tilde" unicode="˜" horiz-adv-x="700" d="M498 1427q61 0 96 -15q140 -60 176 -60q61 0 92 62q8 15 15 26h112q-78 -219 -254 -219q-41 0 -77 13q-36 12 -96 38t-112 26q-53 0 -94 -90h-112q29 94 75 140q80 79 179 79z"/>
    <glyph glyph-name="hungarumlaut" unicode="˝" horiz-adv-x="700" d="M465 1456h201l-285 -278h-125zM772 1456h201l-285 -278h-125z"/>
    <glyph glyph-name="grave.comb" unicode="̀" horiz-adv-x="0" d="M-166 1456h213l123 -278h-133z"/>
    <glyph glyph-name="acute.comb" unicode="́" horiz-adv-x="0" d="M12 1456h213l-303 -278h-143z"/>
    <glyph glyph-name="circumflex.comb" unicode="̂" horiz-adv-x="0" d="M-31 1456h176l142 -278h-146l-98 196l-178 -196h-148z"/>
    <glyph glyph-name="tilde.comb" unicode="̃" horiz-adv-x="0" d="M-146 1298q-79 0 -112 -90h-113q68 219 254 219q61 0 96 -15t91.5 -37.5t84.5 -22.5t44 9t28.5 23.5t20.5 30t14 25.5h113q-78 -219 -254 -219q-41 0 -77 13t-95.5 38.5t-94.5 25.5z"/>
    <glyph glyph-name="macron.comb" unicode="̄" horiz-adv-x="0" d="M-299 1368h629l-27 -133h-629z"/>
    <glyph glyph-name="dotaccent.comb" unicode="̇" horiz-adv-x="0" d="M3 1190q-40 0 -70.5 26.5t-30.5 75.5t31.5 84t72.5 35t68.5 -29.5t27.5 -73.5t-29.5 -81t-69.5 -37z"/>
    <glyph glyph-name="dieresis.comb" unicode="̈" horiz-adv-x="0" d="M-175 1194q-40 0 -70.5 24.5t-30.5 73.5t31.5 82t72.5 33t68.5 -27.5t27.5 -71.5t-29.5 -79t-69.5 -35zM181 1194q-40 0 -70.5 24.5t-30.5 73.5t31.5 82t72.5 33t69 -27.5t28 -71.5t-30 -79t-70 -35z"/>
    <glyph glyph-name="caron.comb" unicode="̌" horiz-adv-x="0" d="M-287 1456h158l94 -184l168 184h158l-252 -278h-184z"/>
    <glyph glyph-name="lineabove.comb" unicode="̍" horiz-adv-x="0" d="M-608 1784h137l-133 -580h-111z"/>
    <glyph glyph-name="cedilla.comb" unicode="̧" horiz-adv-x="0" d="M-143 -354q151 0 151 94q0 72 -80 72q-37 0 -80 -21l-26 39l162 170h106l-110 -119q20 4 45 4q72 0 104.5 -37.5t32.5 -87t-21.5 -86t-58.5 -63.5q-78 -57 -179 -57t-190 43l39 79q65 -30 105 -30z"/>
    <glyph glyph-name="ogonek.comb" unicode="̨" horiz-adv-x="0" d="M-70.5 -446q-106.5 0 -151 48t-44.5 102q0 97 79 179.5t207 116.5h127q-129 -55 -193.5 -122.5t-64.5 -133.5q0 -94 103 -94q53 0 123 24l20 -77q-99 -43 -205.5 -43z"/>
    <glyph glyph-name="a.comb" unicode="ͣ" horiz-adv-x="0" d="M-565 1702q-76 0 -127 -86.5t-51 -173.5t23.5 -117.5t64.5 -30.5q79 0 130.5 84t51.5 226q0 43 -24.5 70.5t-67.5 27.5zM-328 1273v-26q0 -19 -26 -45h-170l20 84q-72 -96 -172 -96t-146 62.5t-46 149.5q0 166 86 281t217 115q96 0 141 -72l25 58h90l-94 -498h71 q4 -6 4 -13z"/>
    <glyph glyph-name="e.comb" unicode="ͤ" horiz-adv-x="0" d="M-535 1708q-61 0 -108 -53t-66 -129q106 4 171 28.5t64.5 89t-61.5 64.5zM-582 1294q87 0 189 76l-27 -123q-88 -57 -198 -57t-168 72t-58 164q0 171 90 271.5t224 100.5q92 0 134 -44t42 -108q0 -192 -365 -204q0 -148 137 -148z"/>
    <glyph glyph-name="i.comb" unicode="ͥ" horiz-adv-x="0" d="M-562 1845q-36 0 -54.5 21.5t-18.5 54.5t21.5 56.5t55.5 23.5t53.5 -21.5t19.5 -54.5t-20.5 -56.5t-56.5 -23.5zM-543 1286q0 -50 -18 -84h-187l99 479h-70q-4 16 -4 34t14 50h191l-96 -479h71z"/>
    <glyph glyph-name="o.comb" unicode="ͦ" horiz-adv-x="0" d="M-733 1450q0 -160 115 -160q74 0 119.5 72t45.5 173t-33.5 133t-73.5 32q-79 0 -126 -71t-47 -179zM-799 1258.5q-65 68.5 -65 202t87 235.5t215 102t184 -72t56 -162q0 -170 -82 -272t-206 -102t-189 68.5z"/>
    <glyph glyph-name="u.comb" unicode="ͧ" horiz-adv-x="0" d="M-440 1288q0 -40 -19 -84h-182l10 76q-57 -90 -153 -90q-70 0 -109 42t-39 95t12 107l60 268h-80q0 53 18 84h195l-78 -381q-6 -29 -6 -49q0 -70 61 -70q39 0 86.5 44t69.5 149l62 307h120l-100 -498h72z"/>
    <glyph glyph-name="v.comb" unicode="ͮ" horiz-adv-x="0" d="M-424 1629q0 -180 -90.5 -309.5t-235.5 -129.5q-88 0 -134 39t-46 92.5t12 101.5l70 277h-70q-2 6 -2 31.5t17 52.5h194l-92 -369q-10 -37 -10 -61q0 -60 77.5 -60t137 97.5t59.5 207.5t-22 185h104q31 -68 31 -155z"/>
    <glyph glyph-name="Omega" unicode="Ω" horiz-adv-x="1617" d="M247 250q36 0 72 -12l-18 -105h248q-93 63 -168 204q-76 141 -76 333q0 302 182 562q128 182 343 259q110 39 262 39t258 -58q201 -110 249 -322q23 -94 23 -196t-33 -226q-68 -255 -250 -439q-90 -92 -202 -156h262l18 105q43 12 79 12t67 -12l-47 -238h-594l16 156 q215 79 352 311t136 505q-1 274 -201 370q-69 32 -183 32t-218 -62q-212 -126 -287 -402q-37 -132 -37 -260q0 -219 97 -360q71 -102 140 -134l-16 -156h-594l47 238q37 12 73 12z"/>
    <glyph glyph-name="pi" unicode="π" horiz-adv-x="1052" d="M1063 143v-62q0 -27 -31 -81h-305l186 889h-426l-188 -889h-170l186 895h-133q0 85 29 143h1040q0 -80 -26 -143h-140l-157 -752h135z"/>
    <glyph glyph-name="N.dot.precomp" unicode="Ṅ" horiz-adv-x="1472" d="M66 23v39q0 26 24 71h152l247 1227h-147q-2 10 -2 23v30q0 36 25 80h358l364 -1051q28 -84 64 -258q20 122 27 160q8 37 13 65t7 33l178 918h-143q-2 10 -2 23v30q0 35 24 80h453q2 -10 2 -23v-30q0 -35 -24 -80h-154l-270 -1378h-183l-385 1110q-47 145 -65 268 q-18 -145 -49 -305l-183 -922h148q2 -10 2 -23v-30q0 -36 -25 -80h-454q-2 10 -2 23zM1043 1624q-41 0 -71 27t-30 75t32 84q32 35 73 35q41 1 69 -29t27 -74q0 -44 -30 -81t-70 -37z"/>
    <glyph glyph-name="n.dot.precomp" unicode="ṅ" d="M938 805q0 117 -121 117q-102 0 -219 -159t-170 -405l-74 -358h-166l185 920h-131q-2 6 -2 45t26 73h271l-56 -278q50 108 154 207q104 100 231 100q126 0 186 -65t60 -150t-14 -145l-142 -588h152q2 -6 2 -45t-27 -74h-317l147 635q25 118 25 170zM863 1190 q-41 0 -71 27t-30 75t32 84q32 35 72 35t69 -30q28 -29 28 -73t-30 -81t-70 -37z"/>
    <glyph glyph-name="V.tilde" unicode="Ṽ" horiz-adv-x="1396" d="M1675 1470v-39q0 -26 -24 -71h-135l-742 -1378h-176l-168 1378h-129q-2 10 -2 23v30q0 36 25 80h475q2 -10 2 -23v-30q0 -36 -25 -80h-176l88 -721q33 -308 41 -471q67 140 236 471l385 721h-170q-2 10 -2 23v30q0 35 24 80h471q2 -10 2 -23zM1232 1786q50 0 87 62 q8 15 14 26h113q-78 -219 -254 -219q-41 0 -77 13q-36 14 -84 34q-115 49 -157 21q-42 -27 -61 -81h-113q67 216 254 220q60 0 96 -16q105 -46 133 -53q27 -7 49 -7z"/>
    <glyph glyph-name="v.tilde" unicode="ṽ" horiz-adv-x="1058" d="M791 964q0 40 26 74h270q35 -76 35 -230t-50 -308q-102 -316 -343 -459q-117 -70 -248 -70t-194 68t-63 156t12 135l141 590h-133q-2 4 -2 44t26 74h299l-149 -637q-4 -12 -7 -32t-9 -56t-5 -81q0 -46 35 -84t116 -38q82 0 156 64t130 162t87 216t31 220t-18 148h-141 q-2 4 -2 44zM696 1298q-79 0 -112 -90h-113q29 94 75 140q80 79 179 79q61 0 96 -15q107 -46 133 -53t48 -7q53 0 88 62q8 15 14 26h113q-78 -219 -254 -219q-41 0 -77 13q-36 12 -96 38q-59 26 -94 26z"/>
    <glyph glyph-name="Wgrave" unicode="Ẁ" horiz-adv-x="1992" d="M2271 1470v-39q0 -26 -24 -71h-136l-634 -1378h-187l-35 1038v43q0 151 9 223q-10 -24 -24 -60t-42 -105q-27 -69 -43 -101l-473 -1038h-186l-66 1378h-129q-2 10 -2 23v30q0 36 25 80h471q2 -10 2 -23v-30q0 -36 -25 -80h-172l37 -979v-53q0 -78 -6 -152q50 151 92 238 l491 1079h191l35 -1112v-37q0 -86 -8 -168q26 100 92 238l430 946h-168q-2 10 -2 23v30q0 35 24 80h461q2 -10 2 -23zM1051 1890h213l122 -278h-133z"/>
    <glyph glyph-name="wgrave" unicode="ẁ" horiz-adv-x="1570" d="M1632 800q0 -154 -49 -314t-133 -274t-194 -177t-218 -63t-166 52q-58 54 -59 132v17q0 7 2 17q-27 -65 -121 -142t-219 -77q-124 0 -188 68q-63 68 -63 154t14 139l139 588h-135q-2 4 -2 44t26 74h301l-149 -637q-4 -12 -7 -32t-9 -56t-5 -81q0 -46 30 -84 q29 -38 103 -38q131 1 231 201q68 135 109 336l78 391h166l-137 -680q-14 -77 -14 -126q0 -123 116 -121q84 -1 154 65q140 131 200 376q47 192 15 368h-139q-2 4 -2 44t26 74h266q33 -84 33 -238zM778 1456h213l123 -278h-133z"/>
    <glyph glyph-name="Wacute" unicode="Ẃ" horiz-adv-x="1992" d="M2271 1470v-39q0 -26 -24 -71h-136l-634 -1378h-187l-35 1038v43q0 151 9 223q-10 -24 -24 -60t-42 -105q-27 -69 -43 -101l-473 -1038h-186l-66 1378h-129q-2 10 -2 23v30q0 36 25 80h471q2 -10 2 -23v-30q0 -36 -25 -80h-172l37 -979v-53q0 -78 -6 -152q50 151 92 238 l491 1079h191l35 -1112v-37q0 -86 -8 -168q26 100 92 238l430 946h-168q-2 10 -2 23v30q0 35 24 80h461q2 -10 2 -23zM1497 1890h213l-303 -278h-143z"/>
    <glyph glyph-name="wacute" unicode="ẃ" horiz-adv-x="1570" d="M1632 800q0 -154 -49 -314t-133 -274t-194 -177t-218 -63t-166 52q-58 54 -59 132v17q0 7 2 17q-27 -65 -121 -142t-219 -77q-124 0 -188 68q-63 68 -63 154t14 139l139 588h-135q-2 4 -2 44t26 74h301l-149 -637q-4 -12 -7 -32t-9 -56t-5 -81q0 -46 30 -84 q29 -38 103 -38q131 1 231 201q68 135 109 336l78 391h166l-137 -680q-14 -77 -14 -126q0 -123 116 -121q84 -1 154 65q140 131 200 376q47 192 15 368h-139q-2 4 -2 44t26 74h266q33 -84 33 -238zM1184 1456h213l-303 -278h-144z"/>
    <glyph glyph-name="Wdieresis" unicode="Ẅ" horiz-adv-x="1992" d="M2271 1470v-39q0 -26 -24 -71h-136l-634 -1378h-187l-35 1038v43q0 151 9 223q-10 -24 -24 -60t-42 -105q-27 -69 -43 -101l-473 -1038h-186l-66 1378h-129q-2 10 -2 23v30q0 36 25 80h471q2 -10 2 -23v-30q0 -36 -25 -80h-172l37 -979v-53q0 -78 -6 -152q50 151 92 238 l491 1079h191l35 -1112v-37q0 -86 -8 -168q26 100 92 238l430 946h-168q-2 10 -2 23v30q0 35 24 80h461q2 -10 2 -23zM1162 1628q-40 0 -70 25t-31 73q0 48 32 82q33 33 73 33q40 1 68 -27t28 -72t-30 -79t-70 -35zM1518 1628q-40 0 -70 25t-31 73q0 48 32 82q32 33 73 33 q40 1 68 -27t28 -72t-30 -79t-70 -35z"/>
    <glyph glyph-name="wdieresis" unicode="ẅ" horiz-adv-x="1570" d="M1632 800q0 -154 -49 -314t-133 -274t-194 -177t-218 -63t-166 52q-58 54 -59 132v17q0 7 2 17q-27 -65 -121 -142t-219 -77q-124 0 -188 68q-63 68 -63 154t14 139l139 588h-135q-2 4 -2 44t26 74h301l-149 -637q-4 -12 -7 -32t-9 -56t-5 -81q0 -46 30 -84 q29 -38 103 -38q131 1 231 201q68 135 109 336l78 391h166l-137 -680q-14 -77 -14 -126q0 -123 116 -121q84 -1 154 65q140 131 200 376q47 192 15 368h-139q-2 4 -2 44t26 74h266q33 -84 33 -238zM848 1407q40 0 68 -28q28 -27 28 -71t-30 -79t-69 -35q-40 0 -71 25t-31 73 t32 82q32 33 73 33zM1201 1194q-40 0 -71 25q-30 25 -30 73t32 82q32 33 72 33t69 -28q27 -27 27 -71t-30 -79t-69 -35z"/>
    <glyph glyph-name="W.dot.precomp" unicode="Ẇ" horiz-adv-x="1992" d="M2271 1470v-39q0 -26 -24 -71h-136l-634 -1378h-187l-35 1038v43q0 151 9 223q-10 -24 -24 -60t-42 -105q-27 -69 -43 -101l-473 -1038h-186l-66 1378h-129q-2 10 -2 23v30q0 36 25 80h471q2 -10 2 -23v-30q0 -36 -25 -80h-172l37 -979v-53q0 -78 -6 -152q50 151 92 238 l491 1079h191l35 -1112v-37q0 -86 -8 -168q26 100 92 238l430 946h-168q-2 10 -2 23v30q0 35 24 80h461q2 -10 2 -23zM1344 1624q-40 0 -70 27t-31 75q0 48 32 84q32 35 73 35q40 1 68 -29t28 -74t-30 -81t-70 -37z"/>
    <glyph glyph-name="w.dot.precomp" unicode="ẇ" horiz-adv-x="1570" d="M1632 800q0 -154 -49 -314t-133 -274t-194 -177t-218 -63t-166 52q-58 54 -59 132v17q0 7 2 17q-27 -65 -121 -142t-219 -77q-124 0 -188 68q-63 68 -63 154t14 139l139 588h-135q-2 4 -2 44t26 74h301l-149 -637q-4 -12 -7 -32t-9 -56t-5 -81q0 -46 30 -84 q29 -38 103 -38q131 1 231 201q68 135 109 336l78 391h166l-137 -680q-14 -77 -14 -126q0 -123 116 -121q84 -1 154 65q140 131 200 376q47 192 15 368h-139q-2 4 -2 44t26 74h266q33 -84 33 -238zM1066 1190q-40 0 -71 27t-31 75t32 84q32 35 73 35t69 -30q28 -29 28 -73 t-30 -81t-70 -37z"/>
    <glyph glyph-name="Etilde" unicode="Ẽ" horiz-adv-x="1251" d="M66 23v39q0 26 24 71h152l247 1227h-147q-2 10 -2 23v30q0 36 25 80h1069l-88 -438q-65 -22 -154 4l61 287h-587l-103 -504h584q4 -10 4 -22v-25q0 -59 -27 -101h-592l-108 -547h596l61 297q33 11 71 11t83 -15l-88 -440h-1079q-2 10 -2 23zM983 1846q35 -16 92 -38 t92 -22q36 0 56 24t28 38q8 15 15 26h112q-78 -219 -254 -219q-40 0 -76 13t-95 38t-113 26t-95 -90h-112q29 94 75 140q79 78 179 80q61 0 96 -16z"/>
    <glyph glyph-name="etilde" unicode="ẽ" horiz-adv-x="956" d="M881 811q0 61 -36 100t-121 39t-150 -44q-66 -44 -108 -106q-80 -117 -99 -241h10q260 -2 382 67t122 185zM354 403q0 -143 65 -214t171 -70q182 0 342 141l-37 -194q-155 -95 -341 -95q-187 0 -284 119q-96 119 -96 323t126 405q93 150 252 215q83 34 187 34 q154 0 229 -74q74 -74 74 -167q-1 -183 -167 -285q-166 -101 -502 -101h-19v-37zM664 1427q61 0 96 -15q140 -60 176 -60q61 0 92 62q8 15 14 26h113q-78 -219 -254 -219q-41 0 -77 13q-36 12 -96 38t-112 26q-53 0 -94 -90h-112q68 219 254 219z"/>
    <glyph glyph-name="Ygrave" unicode="Ỳ" horiz-adv-x="1400" d="M453 23v39q0 26 24 71h154l92 467l-315 760h-107q-2 10 -2 23v30q0 36 25 80h473q2 -10 2 -23v-30q0 -36 -25 -80h-184l250 -621l520 621h-178q-2 10 -2 23v30q0 35 24 80h471q2 -10 2 -23v-30q0 -35 -24 -80h-111l-639 -760l-94 -467h168q2 -10 2 -23v-30q0 -36 -25 -80 h-499q-2 10 -2 23zM756 1890h213l123 -278h-134z"/>
    <glyph glyph-name="ygrave" unicode="ỳ" horiz-adv-x="983" d="M173 -225q161 0 335 260q-151 615 -252 885h-127q-2 6 -2 45t27 73h239q50 -119 131 -414t109 -413q106 169 178 345t73 260t-5 104h-144q-2 6 -2 45t27 73h268q25 -55 25 -150q0 -185 -147 -477q-147 -291 -328 -515q-106 -133 -206 -199t-229 -66q-47 1 -88 11t-57 22 l31 148q65 -37 144 -37zM408 1456h213l122 -278h-133z"/>
    <glyph glyph-name="endash" unicode="–" horiz-adv-x="1024" d="M96 641h1024v-149h-1024v149z"/>
    <glyph glyph-name="emdash" unicode="—" horiz-adv-x="2048" d="M96 641h2048v-149h-2048v149z"/>
    <glyph glyph-name="uni2016" unicode="‖" horiz-adv-x="802" d="M330 1757h145v-2203h-145v2203zM616 1757h146v-2203h-146v2203z"/>
    <glyph glyph-name="quoteleft" unicode="‘" horiz-adv-x="550" d="M627 1072q0 -58 -37 -92q-37 -36 -93 -36t-94 46q-37 46 -37 127q1 157 104 272q102 115 228 141l-22 -111q-145 -66 -172 -209q123 -8 123 -138z"/>
    <glyph glyph-name="quoteright" unicode="’" horiz-adv-x="550" d="M548 1530q56 0 93 -46t37 -128q0 -158 -103 -272t-229 -140l23 111q143 63 172 209q-125 8 -123 137q0 57 37 93t93 36z"/>
    <glyph glyph-name="quotesinglbase" unicode="‚" horiz-adv-x="550" d="M164 108q0 58 37 94t93 36t93 -46t37 -128q0 -157 -103 -272q-103 -114 -229 -140l23 110q143 63 172 209q-123 7 -123 137z"/>
    <glyph glyph-name="quotedblleft" unicode="“" horiz-adv-x="929" d="M627 1072q0 -58 -37 -92q-37 -36 -93 -36t-94 46q-37 46 -37 127q1 157 104 272q102 115 228 141l-22 -111q-145 -66 -172 -209q123 -8 123 -138zM1006 1072q0 -58 -37 -92q-37 -36 -93 -36t-94 46q-37 46 -37 127q0 156 103 272t229 141l-22 -111q-145 -66 -172 -209 q123 -8 123 -138z"/>
    <glyph glyph-name="quotedblright" unicode="”" horiz-adv-x="929" d="M548 1530q56 0 93 -46t37 -128q0 -158 -103 -272t-229 -140l23 111q143 63 172 209q-125 8 -123 137q0 57 37 93t93 36zM927 1530q56 0 93 -46t37 -128q0 -158 -103 -272t-229 -140l23 111q143 63 172 209q-126 8 -124 137q0 57 38 93q37 36 93 36z"/>
    <glyph glyph-name="quotedblbase" unicode="„" horiz-adv-x="970" d="M164 108q0 58 37 94t93 36t93 -46t37 -128q0 -157 -103 -272q-103 -114 -229 -140l23 110q143 63 172 209q-123 7 -123 137zM673 238q56 0 93 -46t37 -128q0 -157 -103 -272q-103 -114 -229 -140l23 110q143 63 172 209q-126 7 -124 137q0 58 38 94q37 36 93 36z"/>
    <glyph glyph-name="dagger" unicode="†" d="M664 887h-388l31 147h387l90 459h172l-90 -459h385l-30 -147h-385l-248 -1231h-172z"/>
    <glyph glyph-name="daggerdbl" unicode="‡" d="M500 76h-387l30 147h387l140 703h-387l32 147h387l82 420h172l-82 -420h386l-33 -147h-385l-140 -703h385l-30 -147h-385l-84 -418h-172z"/>
    <glyph glyph-name="bullet" unicode="•" horiz-adv-x="741" d="M210 713q1 129 86 221t208 92t213 -92q88 -92 88 -220t-88 -221q-90 -92 -211 -92q-122 0 -210 92q-87 91 -86 220z"/>
    <glyph glyph-name="ellipsis" unicode="…" horiz-adv-x="2048" d="M510 116q0 -56 -38 -100t-88 -45q-50 0 -89 32t-39 93q0 62 41 104t93 42t86 -35t34 -91zM1192 116q0 -56 -38 -100t-88 -45q-50 0 -89 32t-39 93q0 62 41 104t93 42t86 -35t34 -91zM1874 116q0 -56 -38 -100t-88 -45q-50 0 -89 32t-39 93q0 62 41 104t93 42t86 -35 t34 -91z"/>
    <glyph glyph-name="perthousand" unicode="‰" horiz-adv-x="2048" d="M1127 123q77 0 128 54t52 130q-1 76 -53 128t-129 52t-130 -53t-53 -133t54 -129t131 -49zM819 306q0 124 90 216q90 90 215 89t216 -89q90 -88 90 -214t-89 -217t-215 -91t-217 89q-90 93 -90 217zM1268 1399h145l-1079 -1432h-146zM488 881q77 0 128 54t52 130 q0 76 -52 128t-130 52q-77 0 -130 -53t-53 -133t54 -129t131 -49zM180 1064q0 124 90 216q90 90 215 89t216 -89q90 -88 90 -214t-90 -218t-216 -91q-125 1 -215 92t-90 215zM1854 123q77 0 128 54t52 130q0 76 -52 128t-130 52q-77 0 -130 -53t-53 -133t54 -129t131 -49z M1546 306q0 124 90 216q90 90 215 89t216 -89q90 -88 90 -214t-89 -217t-215 -91t-217 89q-90 93 -90 217z"/>
    <glyph glyph-name="guilsinglleft" unicode="‹" horiz-adv-x="585" d="M158 518l393 461h180l-403 -469l207 -453h-168z"/>
    <glyph glyph-name="guilsinglright" unicode="›" horiz-adv-x="585" d="M465 526l-207 453h168l209 -461l-393 -461h-181z"/>
    <glyph glyph-name="fraction" unicode="⁄" horiz-adv-x="20" d="M502 1399h153l-1079 -1432h-154z"/>
    <glyph glyph-name="uni2056" unicode="⁖" horiz-adv-x="1048" d="M1027 1292q42 0 69 -28q26 -28 26 -72q0 -45 -30 -80t-70 -35q-41 0 -72 26q-30 26 -30 74q0 47 32 81t75 34zM348 688q-41 0 -72 26q-30 26 -30 74t33 81q33 34 75 34q42 1 68 -27q27 -28 27 -73t-30 -80t-71 -35zM862 299q-42 0 -72 26q-30 25 -30 73t33 82t75 34 t68 -28q27 -28 27 -72t-30 -80q-30 -35 -71 -35z"/>
    <glyph glyph-name="uni2058" unicode="⁘" horiz-adv-x="1153" d="M837 1241q-41 0 -71 26q-30 25 -31 73q0 48 33 82t75 34q43 0 69 -28t26 -72t-30 -80q-30 -35 -71 -35zM1227 864q0 -46 -30 -80t-71 -34q-42 0 -72 26t-30 73q0 48 33 82t75 34t68 -28q27 -28 27 -73zM449 864q0 -46 -30 -80t-71 -34t-72 26q-30 26 -30 73q0 48 33 82 t75 34t68 -28q27 -28 27 -73zM637 258q-41 0 -72 26t-31 74t33 81q33 34 75 34t69 -28q27 -29 27 -73t-30 -79t-71 -35z"/>
    <glyph glyph-name="zerosuperior" unicode="⁰" horiz-adv-x="733" d="M499 670q-135 0 -191 66t-56 161q0 202 85 338q100 164 275 164q121 0 177 -67q57 -67 57 -161q0 -200 -85 -337q-44 -72 -113 -118t-149 -46zM492 778q100 0 157 135q47 107 47 242t-90 135q-100 0 -157 -135q-45 -103 -47 -240q-1 -137 90 -137z"/>
    <glyph glyph-name="foursuperior" unicode="⁴" horiz-adv-x="733" d="M573 944l54 266l-269 -266h215zM819 907q0 -25 -20 -65h-109l-31 -158h-137l31 158h-348l26 114l447 437h125l-92 -449h104q4 -12 4 -37z"/>
    <glyph glyph-name="fivesuperior" unicode="⁵" horiz-adv-x="733" d="M469 782q76 0 124 42t48 128q0 41 -26 70t-74 29q-79 0 -140 -70h-110l123 403h417q5 -10 5 -36t-21 -74h-317l-45 -156q10 10 48 24t86 15q138 0 187 -107q37 -84 -4 -194q-41 -109 -159 -161q-58 -25 -139 -25q-140 1 -241 73l25 125q104 -86 213 -86z"/>
    <glyph glyph-name="sixsuperior" unicode="⁶" horiz-adv-x="733" d="M416 889q0 -117 110 -117q57 0 99 41q41 41 41 109q0 130 -113 131q-69 0 -103 -48t-34 -116zM647 1286q-88 0 -138 -53t-73 -131q55 55 156 55q146 0 202 -106q19 -39 19 -97q0 -137 -80 -211q-80 -73 -210 -73q-129 0 -195 70t-66 178q0 207 103 344t284 137 q114 0 201 -49l-23 -111q-92 47 -180 47z"/>
    <glyph glyph-name="sevensuperior" unicode="⁷" horiz-adv-x="733" d="M422 1157q-23 -10 -57 -10q-33 0 -78 12l45 225h545l-21 -110l-414 -590h-159l438 584h-277z"/>
    <glyph glyph-name="eightsuperior" unicode="⁸" horiz-adv-x="733" d="M588 1303q-60 0 -90 -36t-31 -73q0 -38 25 -62t85 -24t93 33q32 33 32 73t-28 64q-26 24 -86 25zM533 1006q-57 0 -107 -33t-49 -97q0 -64 40 -83q41 -21 101 -21t102 38t42 91t-36 79t-93 26zM846 1231q0 -121 -131 -178q92 -49 92 -144t-81 -168q-81 -72 -222 -72 q-141 1 -207 59t-66 126q0 156 164 219q-73 45 -72 126t70 140q69 58 200 59q130 1 192 -52q61 -52 61 -115z"/>
    <glyph glyph-name="ninesuperior" unicode="⁹" horiz-adv-x="733" d="M424 1146q0 -130 113 -130q69 0 103 48t34 108q0 126 -111 124q-57 0 -98 -41t-41 -109zM566 1399q130 0 196 -71t66 -177q-1 -211 -104 -346t-284 -135q-108 0 -200 45l24 114q88 -45 180 -46t140 53t69 131q-54 -54 -155 -56q-150 0 -202 107q-19 39 -20 96 q0 137 80 211t210 74z"/>
    <glyph glyph-name="zeroinferior" unicode="₀" horiz-adv-x="733" d="M362 -29q-134 0 -190 67q-57 67 -57 161q0 202 85 338q100 163 275 163q123 0 177 -65t56 -161q0 -95 -20 -181t-64 -158t-113 -118t-149 -46zM354 80q101 0 158 135q47 107 47 242t-90 135q-99 0 -158 -135q-47 -107 -47 -242t90 -135z"/>
    <glyph glyph-name="oneinferior" unicode="₁" horiz-adv-x="733" d="M586 42q0 -24 -23 -56h-407q-6 20 -6 43t22 63h143l101 490h-137q-19 63 18 104h278l-122 -594h127q6 -26 6 -50z"/>
    <glyph glyph-name="twoinferior" unicode="₂" horiz-adv-x="733" d="M526 516q0 72 -100 74q-68 0 -128 -28t-140 -87l24 139q46 29 108 58q62 28 158 28t164 -45q66 -45 66 -127q0 -125 -185 -235q-54 -33 -148 -88t-140 -113h270l23 96q26 11 59 11t72 -13l-43 -200h-572q42 181 272 319q163 98 201 131q39 33 39 80z"/>
    <glyph glyph-name="threeinferior" unicode="₃" horiz-adv-x="733" d="M500 214q0 58 -41 72t-90 13h-52q-8 18 -8 45t25 64h65q89 0 128 60q13 19 14 46q0 76 -116 76t-241 -90l31 131q123 71 237 70q112 -1 174 -45t62 -114t-40 -117q-40 -46 -91 -71q92 -41 91 -137t-83 -171t-239 -75q-88 0 -153 24t-99 50l24 125q104 -86 228 -86 q74 0 124 36t50 94z"/>
    <glyph glyph-name="fourinferior" unicode="₄" horiz-adv-x="733" d="M436 246l53 266l-268 -266h215zM682 211q0 -23 -20 -68h-109l-31 -157h-137l31 157h-348l26 115l447 436h125l-93 -448h105q4 -12 4 -35z"/>
    <glyph glyph-name="fiveinferior" unicode="₅" horiz-adv-x="733" d="M504 254q0 41 -26 70t-75 28q-79 0 -139 -69h-110l122 403h418q4 -8 4 -37t-20 -74h-318l-45 -155q11 10 49 24t104 15t126 -50q59 -50 59 -123q0 -212 -179 -289q-58 -26 -139 -26q-141 0 -241 74l25 125q104 -86 213 -86q76 0 124 42t48 128z"/>
    <glyph glyph-name="sixinferior" unicode="₆" horiz-adv-x="733" d="M389 74q57 0 98 41t41 109q0 132 -112 130q-70 0 -104 -48t-33 -116q0 -116 110 -116zM386 -29q-130 0 -196 71t-66 177q1 208 105 346q103 137 283 135q118 0 201 -49l-23 -110q-88 45 -178 46q-159 2 -213 -184q54 54 156 56q149 0 201 -107q19 -39 20 -96 q0 -137 -80 -211t-210 -74z"/>
    <glyph glyph-name="seveninferior" unicode="₇" horiz-adv-x="733" d="M285 459q-23 -10 -58 -10t-77 12l45 225h544l-20 -111l-414 -589h-160l439 583h-277z"/>
    <glyph glyph-name="eightinferior" unicode="₈" horiz-adv-x="733" d="M330 496q0 -37 24 -62q24 -24 86 -24q60 0 92 32t33 73q0 40 -27 65q-28 24 -88 24t-90 -36t-30 -72zM240 174q0 -100 131 -100q69 0 111 38t42 91t-36 79t-93 26t-106 -34q-49 -32 -49 -100zM258 375q-72 45 -72 125t70 140t202 60q131 0 190 -52t61 -116 q0 -118 -131 -178q92 -49 92 -144t-81 -167t-222 -72q-141 1 -207 59t-66 126q0 156 164 219z"/>
    <glyph glyph-name="nineinferior" unicode="₉" horiz-adv-x="733" d="M537 473q0 125 -111 125q-57 0 -98 -41t-41 -109q0 -130 112 -131q70 1 104 49t34 107zM360 213q-148 0 -201 106q-19 39 -20 97q0 137 80 211q80 73 210 73t196 -70q65 -70 65 -178q-1 -211 -103 -346q-103 -135 -284 -135q-104 0 -201 45l25 115q92 -47 182 -47t137 53 t70 131q-55 -55 -156 -55z"/>
    <glyph glyph-name="Euro" unicode="€" horiz-adv-x="1110" d="M922 1401q96 0 162 -32t96 -87l18 88q37 14 69 14t60 -12l-88 -418q-30 -12 -61 -12t-42 4t-28 8l12 60q6 24 6 76q0 86 -58 129t-144 43q-123 0 -232 -106t-172 -300h522l-45 -102h-505q-15 -75 -21 -119l-6 -49h461l-47 -103h-416q6 -262 145 -338q50 -27 138 -27 t168 37q80 36 171 97l-36 -189q-162 -94 -336 -94t-289 107q-63 61 -99 170t-38 237h-148l47 103h103q2 18 3 36t5 37l16 95h-125l45 102h107q74 249 232 397q159 148 350 148z"/>
    <glyph glyph-name="uni20B0" unicode="₰" horiz-adv-x="1218" d="M1159 1262q0 82 -29 122q-30 40 -74 41q-86 0 -142 -67t-56 -158q0 -92 35 -193t78 -202l18 33q77 135 124 238q46 104 46 186zM506 23q-92 0 -137 54t-45 148v30q0 15 4 32l57 420h-162q-2 8 -2 17v17q0 45 29 93h321l-67 -492q-6 -47 -6 -80q0 -92 51 -92q29 0 61 33 t88 131l158 272q-26 66 -56 136q-109 261 -111 424q-1 163 109 285t273 122q131 0 198 -76q143 -162 -19 -489q-63 -129 -208 -377q66 -166 115 -318t49 -256q0 -200 -128 -313t-330 -113q-124 0 -246 45l33 158q108 -55 247 -55q95 0 172 69q78 69 77 178t-105 402 l-90 -156q-115 -201 -239 -237q-42 -12 -91 -12z"/>
    <glyph glyph-name="afii61289" unicode="ℓ" horiz-adv-x="942" d="M615 1401q-45 0 -67 -24t-40 -94t-21 -333v-368q117 135 170 318t53 300t-25 159q-26 42 -70 42zM332 993q0 317 66 441t216 122q127 0 185 -69q69 -89 69 -278t-81 -398t-300 -424q0 -166 69 -225q28 -25 83 -25t147 82q20 18 38 40t38 44l96 -96q-93 -123 -217 -191 q-63 -35 -135 -34q-128 0 -192 86t-76 225l-115 -76l-63 127l172 119v530z"/>
    <glyph glyph-name="uni2114" unicode="℔" horiz-adv-x="1585" d="M1077 106q84 0 152 50q131 97 187 308q26 97 26 198t-26 155q-50 105 -150 105q-137 0 -239 -138t-134 -303q-12 -67 -12 -129t18 -110q36 -95 111 -122q34 -14 67 -14zM522 74q0 -39 -26 -74h-308l240 1182h-172l23 116h172l28 136h-133q-2 6 -2 45t27 73h299l-52 -254 h281l29 136h-133q-2 6 -2 45t26 73h297l-51 -254h238l-23 -116h-240l-59 -303q137 188 342 188q153 0 227 -107t74 -245q0 -285 -133 -499q-68 -108 -170 -178t-218 -69q-116 0 -185 56t-87 118l-83 -143h-111l240 1182h-283l-215 -1063h141q2 -6 2 -45z"/>
    <glyph glyph-name="trademark" unicode="™" horiz-adv-x="2142" d="M600 756v633h-186v-170q-61 -16 -113 0v274h725v-274q-60 -15 -113 0v170h-186v-633h88q8 -31 8 -55t-8 -48h-303q-8 25 -8 49t8 54h88zM1102 702q0 25 12 54h80v635h-80q-12 24 -12 50t12 52h258q4 -12 18 -52q143 -393 205 -610q59 207 133 409q73 202 91 253h262 q8 -27 8 -49t-10 -53h-82v-635h84q8 -30 8 -52t-10 -51h-289q-10 29 -10 51t8 52h82v524q0 10 1 20t1 23l-225 -649h-119l-221 649v-567h84q10 -30 10 -52t-10 -51h-277q-12 24 -12 49z"/>
    <glyph glyph-name="uni2126" unicode="Ω" horiz-adv-x="1617" d="M247 250q36 0 72 -12l-18 -105h248q-93 63 -168 204q-76 141 -76 333q0 302 182 562q128 182 343 259q110 39 262 39t258 -58q201 -110 249 -322q23 -94 23 -196t-33 -226q-68 -255 -250 -439q-90 -92 -202 -156h262l18 105q43 12 79 12t67 -12l-47 -238h-594l16 156 q215 79 352 311t136 505q-1 274 -201 370q-69 32 -183 32t-218 -62q-212 -126 -287 -402q-37 -132 -37 -260q0 -219 97 -360q71 -102 140 -134l-16 -156h-594l47 238q37 12 73 12z"/>
    <glyph glyph-name="estimated" unicode="℮" horiz-adv-x="1228" d="M1034 604v297q-129 123 -301 123t-295 -123v-297h596zM735 39q254 0 395 246l72 -43q-146 -218 -330 -261q-64 -15 -160 -15t-193 41q-198 86 -274 297q-38 103 -38 226q0 247 147 407q148 159 382 159t376 -153t154 -413h-828v-370q121 -121 297 -121z"/>
    <glyph glyph-name="onethird" unicode="⅓" horiz-adv-x="1765" d="M393 1328q0 28 25 56h278l-123 -593h127q6 -25 6 -49t-22 -58h-408q-6 20 -6 43t23 64h143l101 489h-138q-6 20 -6 48zM1374 1399h154l-1079 -1432h-154zM1290 84q74 0 124 36t50 94t-41 72t-90 13h-51q-8 18 -8 45t24 64h66q86 0 128 60q13 19 13 46q0 76 -116 76 t-240 -90l31 131q123 71 237 70q113 -1 174 -45t61 -114t-39 -117q-40 -46 -91 -71q90 -40 90 -136t-82 -171q-82 -76 -237 -76t-255 74l25 125q104 -86 227 -86z"/>
    <glyph glyph-name="twothirds" unicode="⅔" horiz-adv-x="1765" d="M645 1288q-68 0 -128 -28t-140 -86l24 139q47 29 109 57t158 29q96 0 162 -45t67 -127q0 -123 -185 -236q-54 -33 -146 -86t-142 -114h270l23 96q23 10 55 10q31 0 76 -12l-43 -201h-572q42 182 272 320q167 100 204 132t36 78q0 74 -100 74zM1497 1399h154l-1080 -1432 h-153zM1393 84q74 0 124 36t50 94t-41 72t-90 13h-52q-8 18 -8 45t25 64h65q89 0 128 60q13 19 14 46q0 76 -116 76t-241 -90l31 131q123 71 237 70q113 -1 175 -45t61 -114q0 -70 -40 -117q-40 -46 -91 -71q92 -41 91 -137t-83 -171t-239 -75q-88 0 -153 24t-99 50l24 125 q104 -86 228 -86z"/>
    <glyph glyph-name="onefifth" unicode="⅕" horiz-adv-x="1765" d="M383 1328q0 28 25 56h278l-123 -593h127q6 -25 6 -49t-22 -58h-408q-6 20 -6 43t23 64h143l100 489h-137q-6 20 -6 48zM1384 1399h154l-1079 -1432h-154zM1286 84q76 0 124 42t48 128q0 41 -25 70q-26 29 -75 28q-81 0 -139 -69h-111l123 403h418q4 -8 4 -41t-21 -70 h-317l-45 -155q10 10 48 24t105 15t125 -49q58 -49 59 -123q3 -213 -179 -290q-58 -26 -139 -26q-140 0 -240 74l24 125q104 -86 213 -86z"/>
    <glyph glyph-name="twofifths" unicode="⅖" horiz-adv-x="1765" d="M733 1214q0 74 -100 74q-68 0 -128 -28t-140 -86l24 139q47 29 109 57t158 29q96 0 162 -45t67 -127q0 -124 -186 -236q-54 -33 -108 -65q-134 -78 -179 -135h270l23 96q23 10 55 10q31 0 76 -12l-43 -201h-572q42 182 272 320q167 100 203 132q37 32 37 78zM1505 1399 h154l-1079 -1432h-154zM1370 84q187 0 189 170q0 41 -26 70t-75 28q-81 0 -139 -69h-111l123 403h418q4 -8 4 -37t-20 -74h-318l-45 -155q10 10 48 24t105 15t126 -50q59 -50 59 -123q0 -212 -179 -289q-58 -26 -139 -26q-141 0 -241 74l25 125q104 -86 196 -86z"/>
    <glyph glyph-name="threefifths" unicode="⅗" horiz-adv-x="1765" d="M545 782q74 0 124 36t50 94t-41 72q-41 13 -90 13h-51q-23 51 16 109h65q87 0 128 60q13 19 14 46q0 78 -118 77t-239 -91l31 131q122 70 236 70t176 -44t61 -115q0 -71 -40 -117t-91 -70q92 -41 91 -138t-83 -172t-239 -73q-88 0 -153 24t-99 49l24 125q104 -86 228 -86 zM1497 1399h154l-1080 -1432h-153zM1378 84q76 0 124 42t48 128q0 41 -25 70q-26 29 -75 28q-81 0 -139 -69h-111l123 403h418q4 -8 4 -41t-21 -70h-317l-45 -155q10 10 48 24t105 15t125 -49q58 -49 59 -123q3 -212 -178 -290q-58 -26 -139 -26q-141 0 -241 74l24 125 q104 -86 213 -86z"/>
    <glyph glyph-name="fourfifths" unicode="⅘" horiz-adv-x="1765" d="M623 944l53 266l-268 -266h215zM868 907q0 -25 -20 -65h-109l-30 -158h-138l31 158h-348l27 114l446 437h125l-92 -449h104q4 -12 4 -37zM1464 1399h154l-1079 -1432h-154zM1712 649q0 -29 -20 -74h-318l-45 -155q10 10 48 24t105 15t126 -50q59 -50 59 -123 q0 -212 -179 -289q-58 -26 -139 -26q-141 0 -241 74l25 125q104 -86 213 -86q76 0 124 42t48 128q0 41 -26 70t-75 28q-81 0 -139 -69h-111l123 403h418q4 -8 4 -37z"/>
    <glyph glyph-name="onesixth" unicode="⅙" horiz-adv-x="1765" d="M410 1328q0 28 24 56h279l-123 -593h127q6 -25 6 -49t-23 -58h-407q-6 20 -6 43t22 64h144l100 489h-137q-6 20 -6 48zM1411 1399h154l-1080 -1432h-153zM1239 198q0 -124 111 -124q57 0 98 41t41 109q0 132 -113 130q-70 0 -104 -48t-33 -108zM1636 256q0 -137 -80 -211 t-210 -74t-195 71q-66 71 -66 177q0 209 104 346t284 135q117 0 200 -49l-22 -110q-88 45 -178 46q-91 1 -141 -52t-72 -132q54 54 155 56q150 0 202 -107q19 -39 19 -96z"/>
    <glyph glyph-name="fivesixths" unicode="⅚" horiz-adv-x="1765" d="M530 782q76 0 124 42t48 128q0 41 -25 70q-26 29 -75 29q-80 0 -139 -70h-111l123 403h418q4 -8 4 -36t-20 -74h-318l-45 -156q10 10 48 24t86 15q139 0 188 -107q16 -36 16 -87q0 -118 -86 -206t-231 -88q-144 1 -242 74l24 125q104 -86 213 -86zM1456 1399h154 l-1080 -1432h-153zM1284 198q0 -124 111 -124q57 0 98 41t41 109q0 132 -113 130q-69 0 -103 -48t-34 -108zM1681 256q1 -137 -79 -211t-210 -74t-196 71t-66 177q0 209 104 346t284 135q117 0 200 -49l-22 -110q-88 45 -178 46t-140 -52t-73 -132q54 54 155 56 q150 0 202 -107q19 -39 19 -96z"/>
    <glyph glyph-name="oneeighth" unicode="⅛" horiz-adv-x="1765" d="M393 1328q0 28 25 56h278l-123 -593h127q6 -25 6 -49t-22 -58h-408q-6 20 -6 43t23 64h143l101 489h-138q-6 20 -6 48zM1374 1399h154l-1079 -1432h-154zM1274 496q0 -37 24 -62q24 -24 86 -24q60 0 93 32t33 73q0 40 -28 65q-28 24 -88 24t-90 -36t-30 -72zM1184 174 q0 -100 131 -100q69 0 111 38t42 91t-35 79t-93 26t-107 -34q-49 -32 -49 -100zM1202 375q-72 45 -72 125t70 140t202 60q131 0 190 -52t61 -116q0 -118 -131 -178q92 -49 92 -144t-81 -167t-222 -72q-141 1 -207 59t-66 126q0 156 164 219z"/>
    <glyph glyph-name="threeeighths" unicode="⅜" horiz-adv-x="1765" d="M483 782q74 0 124 36t50 94t-41 72q-41 13 -90 13h-51q-8 18 -8 45t25 64h65q84 0 128 60q13 19 13 46q0 78 -118 77t-238 -91l31 131q122 70 236 70t175 -44q62 -44 62 -115t-40 -117t-91 -70q90 -40 90 -137t-83 -172q-83 -76 -238 -75t-253 74l25 125q104 -86 227 -86 zM1415 1399h154l-1080 -1432h-153zM1315 496q1 -37 25 -62q24 -24 84 -24t94 32q32 32 32 73q0 40 -27 65q-27 24 -87 24t-90 -36t-31 -72zM1225 174q0 -100 131 -100q70 0 112 38t41 91q0 53 -35 79q-36 26 -94 26t-106 -34q-49 -32 -49 -100zM1243 375q-72 45 -72 125 t70 140t202 60q131 0 190 -52t61 -116q0 -118 -131 -178q92 -49 92 -144t-81 -167t-222 -72q-141 1 -207 59t-66 126q0 156 164 219z"/>
    <glyph glyph-name="fiveeighths" unicode="⅝" horiz-adv-x="1765" d="M489 782q76 0 124 42t49 128q0 41 -26 70t-75 29q-80 0 -139 -70h-111l123 403h418q4 -8 4 -36t-20 -74h-318l-45 -156q10 10 48 24t86 15q139 0 188 -107q16 -36 16 -87q0 -120 -86 -207t-231 -87q-144 1 -242 74l24 125q104 -86 213 -86zM1415 1399h154l-1080 -1432 h-153zM1315 496q1 -37 25 -62q24 -24 84 -24t94 32q32 32 32 73q0 40 -27 65q-27 24 -87 24t-90 -36t-31 -72zM1225 174q0 -100 131 -100q70 0 112 38t41 91q0 53 -35 79q-36 26 -94 26t-106 -34q-49 -32 -49 -100zM1243 375q-72 45 -72 125t70 140t202 60q131 0 190 -52 t61 -116q0 -118 -131 -178q92 -49 92 -144t-81 -167t-222 -72q-141 1 -207 59t-66 126q0 156 164 219z"/>
    <glyph glyph-name="seveneighths" unicode="⅞" horiz-adv-x="1765" d="M483 1157q-23 -10 -57 -10q-33 0 -78 12l45 225h545l-20 -110l-414 -590h-160l438 584h-276zM1333 1399h154l-1079 -1432h-154zM1253 496q0 -37 25 -62q26 -24 86 -24t92 32t33 73q0 40 -28 65q-27 24 -87 24t-90 -36t-31 -72zM1163 174q0 -100 131 -100q70 0 112 38 t42 91t-36 79t-93 26t-107 -34q-50 -32 -49 -100zM1182 375q-72 45 -72 126t70 140t201 59q130 0 190 -52q61 -52 61 -116q0 -118 -131 -178q94 -50 93 -145t-81 -166q-80 -72 -222 -72q-142 1 -208 59q-65 58 -65 126q2 156 164 219z"/>
    <glyph glyph-name="partialdiff" unicode="∂" horiz-adv-x="1097" d="M599 109q85 0 155 59q128 108 172 314q18 88 18 136t-7 95q-16 106 -100 160q-46 30 -120 30q-128 0 -230 -111t-134 -314q-7 -50 -7 -98q0 -193 123 -250q45 -21 130 -21zM788 1573q213 0 308 -171q73 -131 73 -358q0 -453 -157 -751q-172 -322 -462 -322 q-158 -1 -268 105q-108 106 -108 309q0 102 34 217q73 248 277 373q104 63 249 63t230 -108q22 -29 29 -56q10 96 11 166q0 209 -56 301t-176 93q-79 0 -145 -38q-27 -14 -42 -28t-22 -20l-80 104q141 121 305 121z"/>
    <glyph glyph-name="Delta" unicode="∆" horiz-adv-x="1259" d="M1032 147l-158 1151l-630 -1151h788zM850 1530h147l238 -1530h-1239z"/>
    <glyph glyph-name="product" unicode="∏" horiz-adv-x="1486" d="M532 -39q3 -15 3 -51t-25 -82h-477q-2 10 -2 23v39q0 26 24 71h152l280 1399h-145q-2 10 -2 23v30q0 36 25 80h1345q2 -10 2 -23v-30q0 -35 -24 -80h-148l-280 -1399h147q2 -10 2 -23v-30q0 -36 -25 -80h-477q-2 10 -2 23v30q0 36 25 80h151l279 1385h-696l-279 -1385 h147z"/>
    <glyph glyph-name="summation" unicode="∑" horiz-adv-x="1280" d="M1372 1049q-29 -11 -68 -11q-38 0 -83 15l59 293h-743l403 -689l-690 -682h809l61 304q27 10 67 10t85 -15l-92 -446h-1164l33 160l682 680l-393 665l31 160h1091z"/>
    <glyph glyph-name="minus" unicode="−" horiz-adv-x="1110" d="M176 758h1004v-146h-1004v146z"/>
    <glyph glyph-name="uni2215" unicode="∕" horiz-adv-x="20" d="M502 1399h153l-1079 -1432h-154z"/>
    <glyph glyph-name="uni2219" unicode="∙" horiz-adv-x="550" d="M578 695q0 -56 -38 -100t-89 -44q-50 0 -89 32q-38 32 -38 93t41 103t93 42t86 -35t34 -91z"/>
    <glyph glyph-name="radical" unicode="√" horiz-adv-x="1157" d="M463 891l-191 -90l-39 108l349 172l213 -823l567 1591l127 -41l-658 -1841h-114z"/>
    <glyph glyph-name="infinity" unicode="∞" horiz-adv-x="1466" d="M481 872q-80 0 -127 -57t-47 -133t44 -133t129 -57q86 0 154 56t136 136q-37 39 -71 74q-111 114 -218 114zM1409 684q0 120 -97 173q-32 17 -75 17q-88 0 -156 -57t-129 -133q29 -33 62 -67q121 -125 213 -125t137 59t45 133zM481 1004q96 0 154 -36q101 -61 225 -192 q174 193 290 218t191 -7q74 -31 115 -74q90 -94 89 -232t-88 -229q-87 -92 -218 -92q-96 0 -156 35q-106 62 -223 193q-126 -134 -189 -172t-104 -46q-188 -39 -303 81q-88 92 -88 230t87 230q88 93 218 93z"/>
    <glyph glyph-name="integral" unicode="∫" horiz-adv-x="634" d="M71 -227q76 1 118 35t55 122l198 1370q22 147 108 210t180 63t148 -27t68 -39l-26 -133q-60 56 -137 57q-76 1 -118 -34t-55 -123l-198 -1370q-22 -145 -107 -208t-180 -64t-149 26t-68 39l26 133q61 -57 137 -57z"/>
    <glyph glyph-name="uni2235" unicode="∵" horiz-adv-x="1163" d="M660 238q-50 0 -89 32t-39 92q0 62 41 104t93 42t87 -35q33 -35 33 -91t-38 -100t-88 -44zM547 1017q0 -57 -38 -101t-88 -44t-89 32t-39 93t41 103t93 43q52 0 86 -35t34 -91zM1284 1017q0 -57 -38 -101t-88 -44t-89 32t-39 93t41 103t93 43q52 0 86 -35t34 -91z"/>
    <glyph glyph-name="uni2240" unicode="≀" horiz-adv-x="663" d="M713 1059q0 -86 -23 -134q-23 -49 -76 -130l-127 -215q-65 -108 -65 -175t42 -101t122 -50l-27 -125q-311 45 -311 260q0 68 24 123q25 55 62 119l137 237q115 201 25 276q-41 34 -121 50l24 125q314 -45 314 -260z"/>
    <glyph glyph-name="approxequal" unicode="≈" horiz-adv-x="1222" d="M463 618q74 0 118 -17t72 -30l189 -84q67 -30 137 -30t115 48t84 146h125q-123 -369 -373 -368q-81 0 -170 41l-207 90q-73 30 -141 30t-113 -48t-84 -146h-123q117 368 371 368zM557 1083q74 0 118 -17t73 -30l188 -84q68 -30 137 -30q70 0 115 48t84 146h125 q-123 -369 -373 -368q-78 0 -170 40l-207 91q-73 30 -141 30t-113 -48t-84 -146h-123q117 368 371 368z"/>
    <glyph glyph-name="notequal" unicode="≠" horiz-adv-x="1110" d="M186 412v145h365l127 256h-492v145h564l114 230h146l-115 -230h295v-145h-367l-127 -256h494v-145h-567l-113 -228h-145l112 228h-291z"/>
    <glyph glyph-name="lessequal" unicode="≤" horiz-adv-x="1110" d="M188 227h969v-145h-969v145zM188 874l969 412v-160l-774 -321l774 -322v-157l-969 409v139z"/>
    <glyph glyph-name="greaterequal" unicode="≥" horiz-adv-x="1110" d="M186 227h969v-145h-969v145zM186 483l775 322l-775 321v160l969 -412v-139l-969 -409v157z"/>
    <glyph glyph-name="uni25B3" unicode="△" horiz-adv-x="1507" d="M319 145h951l-303 844zM1024 1298l467 -1298h-1462z"/>
    <glyph glyph-name="lozenge" unicode="◊" horiz-adv-x="1110" d="M1006 754l-195 497l-408 -510l193 -499zM229 748l633 782l318 -782l-635 -785z"/>
    <glyph glyph-name="uni27E8" unicode="⟨" horiz-adv-x="606" d="M205 780l536 795l111 -47l-469 -768l178 -727l-129 -47z"/>
    <glyph glyph-name="uni27E9" unicode="⟩" horiz-adv-x="606" d="M705 780l-539 -794l-109 47l469 768l-178 727l127 47z"/>
    <glyph glyph-name="uni2AFD" unicode="⫽" horiz-adv-x="770" d="M924 1552h155l-614 -1589h-156zM606 1552h156l-615 -1589h-155z"/>
    <glyph glyph-name="uni2E2A" unicode="⸪" horiz-adv-x="1071" d="M1102 954q-41 0 -72 26t-31 74t33 82t75 34t69 -28q26 -28 26 -73t-30 -80t-70 -35zM364 954q-42 0 -72 26t-30 74t33 82t75 34t68 -28t27 -73q0 -45 -30 -80t-71 -35zM606 340q-42 0 -72 26t-30 74t33 81q33 34 75 34t68 -28q27 -29 27 -73t-30 -79t-71 -35z"/>
    <glyph glyph-name="uniA757" unicode="ꝗ" horiz-adv-x="1107" d="M352 381q0 -262 186 -262q64 0 134 58q70 57 124 147t87 195t33 207t-53 159q-52 57 -134 57q-83 0 -153 -50t-119 -130q-105 -171 -105 -381zM522 -401q0 39 27 73h164l24 127h-186l22 117h189l57 274q-81 -102 -133 -141q-102 -76 -200 -77q-235 -2 -299 236 q-17 67 -17 138q0 344 221 578q134 145 330 145q125 0 204 -79q30 -30 48 -75l78 123h106l-229 -1122h131l-23 -117h-133l-24 -127h133q2 -6 2 -45t-27 -73h-463q-2 6 -2 45z"/>
    <glyph glyph-name="uniA75F" unicode="ꝟ" horiz-adv-x="1058" d="M223 211q0 73 13 119l141 590h-133q-2 4 -2 44t26 74h299l-149 -637q-4 -12 -7 -32t-9 -56t-5 -88q0 -51 43 -86l316 1049l123 -37l-316 -1038q84 9 155 75t123 162q113 209 112 409q-1 201 -42 279h176q35 -76 35 -226t-47 -300q-96 -305 -318 -454q-110 -73 -235 -85 l-47 -153l-121 37l37 125q-168 45 -168 229z"/>
    <glyph glyph-name="A.e.precomp" unicode="" horiz-adv-x="1458" d="M1059 618l-55 472q-23 161 -23 262q-48 -109 -131 -262l-250 -472h459zM25 23v39q0 26 24 71h133l748 1378h190l174 -1378h131q2 -10 2 -23v-30q0 -35 -24 -80h-483q-2 10 -2 23v30q0 35 24 80h176l-41 346h-553l-184 -346h158q2 -10 2 -23v-30q0 -36 -25 -80h-448 q-2 10 -2 23zM1138 2159q-62 0 -109 -55t-64 -128q106 4 171 29q64 25 64 89t-62 65zM1092 1745q89 0 188 76l-27 -123q-87 -56 -197 -57t-168 71t-58 164q-1 171 90 272t223 101q92 -1 134 -45t42 -107t-35 -102q-66 -74 -206 -91q-65 -9 -124 -12q0 -147 138 -147z"/>
    <glyph glyph-name="A.a.precomp" unicode="" horiz-adv-x="1458" d="M1059 618l-55 472q-23 161 -23 262q-48 -109 -131 -262l-250 -472h459zM25 23v39q0 26 24 71h133l748 1378h190l174 -1378h131q2 -10 2 -23v-30q0 -35 -24 -80h-483q-2 10 -2 23v30q0 35 24 80h176l-41 346h-553l-184 -346h158q2 -10 2 -23v-30q0 -36 -25 -80h-448 q-2 10 -2 23zM903 1876q0 -131 96 -131q74 0 121 81q52 83 54 228q0 42 -25 70t-68 28q-75 0 -126 -86q-52 -86 -52 -190zM1319 1710q0 -32 -27 -57h-170l21 84q-72 -97 -172 -97q-101 0 -147 62t-46 150q0 165 86 281t217 116q95 0 142 -72l24 57h90l-94 -497h72 q4 -5 4 -13v-14z"/>
    <glyph glyph-name="A.u.precomp" unicode="" horiz-adv-x="1458" d="M1059 618l-55 472q-23 161 -23 262q-48 -109 -131 -262l-250 -472h459zM25 23v39q0 26 24 71h133l748 1378h190l174 -1378h131q2 -10 2 -23v-30q0 -35 -24 -80h-483q-2 10 -2 23v30q0 35 24 80h176l-41 346h-553l-184 -346h158q2 -10 2 -23v-30q0 -36 -25 -80h-448 q-2 10 -2 23zM1311 1739q0 -44 -19 -84h-182l10 76q-57 -90 -153 -91q-70 0 -109 42t-39 96t12 106l60 268h-80q0 55 18 84h195l-78 -381q-6 -29 -6 -49q0 -69 61 -69q39 0 86 44t70 148l62 307h120l-100 -497h72z"/>
    <glyph glyph-name="E.a.precomp" unicode="" horiz-adv-x="1251" d="M66 23v39q0 26 24 71h152l247 1227h-147q-2 10 -2 23v30q0 36 25 80h1069l-88 -438q-65 -22 -154 4l61 287h-587l-103 -504h584q4 -10 4 -22v-25q0 -59 -27 -101h-592l-108 -547h596l61 297q33 11 71 11t83 -15l-88 -440h-1079q-2 10 -2 23zM926 1745q72 0 122 81t52 228 q0 42 -25 70t-68 28q-76 0 -126 -85t-52 -191q0 -131 97 -131zM1245 1724v-26q0 -18 -26 -45h-170l20 84q-72 -97 -172 -97t-146 62t-46 150q0 166 86 282q86 115 217 115q96 0 141 -72l25 57h90l-95 -497h72q4 -5 4 -13z"/>
    <glyph glyph-name="E.e.precomp" unicode="" horiz-adv-x="1251" d="M66 23v39q0 26 24 71h152l247 1227h-147q-2 10 -2 23v30q0 36 25 80h1069l-88 -438q-65 -22 -154 4l61 287h-587l-103 -504h584q4 -10 4 -22v-25q0 -59 -27 -101h-592l-108 -547h596l61 297q33 11 71 11t83 -15l-88 -440h-1079q-2 10 -2 23zM1060 2159q-62 0 -109 -55 t-64 -128q106 4 171 29q64 25 64 89t-62 65zM1014 1745q89 0 188 76l-26 -123q-87 -56 -198 -57q-110 -1 -168 71t-58 164q0 253 188 345q57 28 137 28q80 -1 122 -45t42 -107t-35 -102q-66 -74 -206 -91q-65 -9 -123 -12q0 -147 137 -147z"/>
    <glyph glyph-name="E.o.precomp" unicode="" horiz-adv-x="1251" d="M66 23v39q0 26 24 71h152l247 1227h-147q-2 10 -2 23v30q0 36 25 80h1069l-88 -438q-65 -22 -154 4l61 287h-587l-103 -504h584q4 -10 4 -22v-25q0 -59 -27 -101h-592l-108 -547h596l61 297q33 11 71 11t83 -15l-88 -440h-1079q-2 10 -2 23zM856 1901q0 -160 115 -160 q75 0 119 70t46 173q1 103 -33 135q-34 31 -74 31q-80 -1 -127 -71q-46 -70 -46 -178zM790 1709q-66 69 -65 202q0 133 87 235q87 103 215 103t184 -72q57 -72 57 -162q1 -167 -82 -271q-84 -104 -207 -104t-189 69z"/>
    <glyph glyph-name="E.u.precomp" unicode="" horiz-adv-x="1251" d="M66 23v39q0 26 24 71h152l247 1227h-147q-2 10 -2 23v30q0 36 25 80h1069l-88 -438q-65 -22 -154 4l61 287h-587l-103 -504h584q4 -10 4 -22v-25q0 -59 -27 -101h-592l-108 -547h596l61 297q33 11 71 11t83 -15l-88 -440h-1079q-2 10 -2 23zM1225 1739q0 -44 -19 -84 h-182l10 76q-57 -90 -153 -91q-70 0 -109 42t-39 96t12 106l60 268h-80q0 55 18 84h195l-78 -381q-6 -29 -6 -49q0 -69 61 -69q39 0 86 44t70 148l62 307h120l-100 -497h72z"/>
    <glyph glyph-name="N.e.precomp" unicode="" horiz-adv-x="1472" d="M66 23v39q0 26 24 71h152l247 1227h-147q-2 10 -2 23v30q0 36 25 80h358l364 -1051q28 -84 64 -258q20 122 27 160q8 37 13 65t7 33l178 918h-143q-2 10 -2 23v30q0 35 24 80h453q2 -10 2 -23v-30q0 -35 -24 -80h-154l-270 -1378h-183l-385 1110q-47 145 -65 268 q-18 -145 -49 -305l-183 -922h148q2 -10 2 -23v-30q0 -36 -25 -80h-454q-2 10 -2 23zM1161 2159q-61 0 -108 -54q-46 -54 -66 -129q106 4 171 29q64 25 64 89t-61 65zM1114 1745q88 0 189 76l-27 -123q-87 -56 -198 -57q-110 -1 -168 71t-58 164q0 253 188 345q57 28 137 28 q80 -1 122 -45t42 -107q-1 -63 -35 -102q-65 -74 -205 -91q-65 -9 -124 -12q0 -147 137 -147z"/>
    <glyph glyph-name="O.e.precomp" unicode="" horiz-adv-x="1523" d="M836 111q90 0 194 60q214 124 312 431q48 152 48 334t-85 303q-102 143 -299 143q-126 0 -230 -63t-180 -173q-162 -234 -162 -571q0 -246 124 -368q97 -96 278 -96zM818 -37q-178 0 -284 57q-208 110 -268 350q-53 203 -6 435t181 419q135 187 346 266q108 40 243 40 q134 0 240 -45q316 -135 317 -582q0 -151 -49 -323t-148 -310q-98 -138 -246 -222q-148 -85 -326 -85zM1185 2159q-62 0 -109 -55t-64 -128q106 4 171 29t65 89t-63 65zM1139 1745q89 0 188 76l-27 -123q-87 -56 -197 -57t-168 71t-58 164q0 253 188 345q57 28 137 28 q80 -1 122 -45t42 -107t-35 -102q-66 -74 -206 -91q-65 -9 -124 -12q0 -147 138 -147z"/>
    <glyph glyph-name="O.i.precomp" unicode="" horiz-adv-x="1523" d="M836 111q90 0 194 60q214 124 312 431q48 152 48 334t-85 303q-102 143 -299 143q-126 0 -230 -63t-180 -173q-162 -234 -162 -571q0 -246 124 -368q97 -96 278 -96zM818 -37q-178 0 -284 57q-208 110 -268 350q-53 203 -6 435t181 419q135 187 346 266q108 40 243 40 q134 0 240 -45q316 -135 317 -582q0 -151 -49 -323t-148 -310q-98 -138 -246 -222q-148 -85 -326 -85zM1148 2296q-36 0 -54 22t-18 54t21 56t55 24t53 -22t19 -54t-20 -56t-56 -24zM1167 1737q0 -50 -18 -84h-186l98 479h-70q-4 16 -4 34t14 50h191l-96 -479h71z"/>
    <glyph glyph-name="O.u.precomp" unicode="" horiz-adv-x="1523" d="M836 111q90 0 194 60q214 124 312 431q48 152 48 334t-85 303q-102 143 -299 143q-126 0 -230 -63t-180 -173q-162 -234 -162 -571q0 -246 124 -368q97 -96 278 -96zM818 -37q-178 0 -284 57q-208 110 -268 350q-53 203 -6 435t181 419q135 187 346 266q108 40 243 40 q134 0 240 -45q316 -135 317 -582q0 -151 -49 -323t-148 -310q-98 -138 -246 -222q-148 -85 -326 -85zM1335 1739q0 -43 -18 -84h-182l10 76q-57 -90 -154 -91q-71 0 -109 42t-38 96t12 106l59 268h-79q0 55 18 84h195l-78 -381q-6 -29 -6 -49q0 -69 61 -69q39 0 86 44 t70 148l61 307h121l-100 -497h71z"/>
    <glyph glyph-name="U.dot" unicode="" horiz-adv-x="1474" d="M1714 1470v-39q0 -26 -24 -71h-150l-176 -887q-49 -225 -160 -336q-165 -174 -440 -174q-230 0 -351 112q-120 112 -120 304q0 46 12 121l172 860h-139q-2 10 -2 23v30q0 35 24 80h478q2 -10 2 -23v-30q0 -36 -25 -80h-160l-168 -842q-14 -56 -14 -130q0 -141 89 -207 t224 -66q177 0 278 96t140 297l170 852h-149q-2 10 -2 23v30q0 35 24 80h465q2 -10 2 -23zM1086 1624q-40 0 -70 27t-31 75q0 48 32 84q32 35 73 35q40 1 68 -29t28 -74t-30 -81t-70 -37z"/>
    <glyph glyph-name="U.lineabove.precomp" unicode="" horiz-adv-x="1474" d="M1714 1470v-39q0 -26 -24 -71h-150l-176 -887q-49 -225 -160 -336q-165 -174 -440 -174q-230 0 -351 112q-120 112 -120 304q0 46 12 121l172 860h-139q-2 10 -2 23v30q0 35 24 80h478q2 -10 2 -23v-30q0 -36 -25 -80h-160l-168 -842q-14 -56 -14 -130q0 -141 89 -207 t224 -66q177 0 278 96t140 297l170 852h-149q-2 10 -2 23v30q0 35 24 80h465q2 -10 2 -23zM1133 2234h137l-133 -579h-111z"/>
    <glyph glyph-name="U.e.precomp" unicode="" horiz-adv-x="1474" d="M1714 1470v-39q0 -26 -24 -71h-150l-176 -887q-49 -225 -160 -336q-165 -174 -440 -174q-230 0 -351 112q-120 112 -120 304q0 46 12 121l172 860h-139q-2 10 -2 23v30q0 35 24 80h478q2 -10 2 -23v-30q0 -36 -25 -80h-160l-168 -842q-14 -56 -14 -130q0 -141 89 -207 t224 -66q177 0 278 96t140 297l170 852h-149q-2 10 -2 23v30q0 35 24 80h465q2 -10 2 -23zM1159 2159q-61 0 -108 -54q-46 -54 -66 -129q106 4 171 29q64 25 64 89t-61 65zM1112 1745q89 0 188 76l-26 -123q-87 -56 -198 -57q-110 -1 -168 71t-58 164q0 253 188 345 q57 28 137 28q80 -1 122 -45t42 -107q-1 -63 -35 -102q-65 -74 -205 -91q-65 -9 -124 -12q0 -147 137 -147z"/>
    <glyph glyph-name="U.o.precomp" unicode="" horiz-adv-x="1474" d="M1714 1470v-39q0 -26 -24 -71h-150l-176 -887q-49 -225 -160 -336q-165 -174 -440 -174q-230 0 -351 112q-120 112 -120 304q0 46 12 121l172 860h-139q-2 10 -2 23v30q0 35 24 80h478q2 -10 2 -23v-30q0 -36 -25 -80h-160l-168 -842q-14 -56 -14 -130q0 -141 89 -207 t224 -66q177 0 278 96t140 297l170 852h-149q-2 10 -2 23v30q0 35 24 80h465q2 -10 2 -23zM956 1901q0 -160 115 -160q77 0 122 75q44 68 44 170t-34 133t-74 31q-41 0 -73 -20q-69 -42 -88 -134q-12 -46 -12 -95zM890 1709q-66 69 -65 202q0 133 87 235q87 103 216 103 q128 0 184 -72t56 -162q0 -170 -83 -273q-83 -102 -206 -102t-189 69z"/>
    <glyph glyph-name="V.acute" unicode="" horiz-adv-x="1396" d="M1675 1470v-39q0 -26 -24 -71h-135l-742 -1378h-176l-168 1378h-129q-2 10 -2 23v30q0 36 25 80h475q2 -10 2 -23v-30q0 -36 -25 -80h-176l88 -721q33 -308 41 -471q67 140 236 471l385 721h-170q-2 10 -2 23v30q0 35 24 80h471q2 -10 2 -23zM1157 1890h213l-303 -278 h-143z"/>
    <glyph glyph-name="V.circumflex" unicode="" horiz-adv-x="1396" d="M1675 1470v-39q0 -26 -24 -71h-135l-742 -1378h-176l-168 1378h-129q-2 10 -2 23v30q0 36 25 80h475q2 -10 2 -23v-30q0 -36 -25 -80h-176l88 -721q33 -308 41 -471q67 140 236 471l385 721h-170q-2 10 -2 23v30q0 35 24 80h471q2 -10 2 -23zM1004 1890h176l141 -278 h-145l-99 196l-178 -196h-147z"/>
    <glyph glyph-name="V.dotaccent" unicode="" horiz-adv-x="1396" d="M1675 1470v-39q0 -26 -24 -71h-135l-742 -1378h-176l-168 1378h-129q-2 10 -2 23v30q0 36 25 80h475q2 -10 2 -23v-30q0 -36 -25 -80h-176l88 -721q33 -308 41 -471q67 140 236 471l385 721h-170q-2 10 -2 23v30q0 35 24 80h471q2 -10 2 -23zM1035 1624q-41 0 -71 27 t-30 75t32 84q32 35 72 35q40 1 69 -29q28 -30 28 -74t-30 -81t-70 -37z"/>
    <glyph glyph-name="V.macron" unicode="" horiz-adv-x="1396" d="M1675 1470v-39q0 -26 -24 -71h-135l-742 -1378h-176l-168 1378h-129q-2 10 -2 23v30q0 36 25 80h475q2 -10 2 -23v-30q0 -36 -25 -80h-176l88 -721q33 -308 41 -471q67 140 236 471l385 721h-170q-2 10 -2 23v30q0 35 24 80h471q2 -10 2 -23zM750 1802h628l-26 -133h-629 z"/>
    <glyph glyph-name="J.e.precomp" unicode="" horiz-adv-x="1003" d="M402 123q138 0 202 74q66 74 94 221l191 942h-174q-2 10 -2 23v30q0 35 24 80h506q2 -10 2 -23v-30q0 -35 -24 -80h-154l-188 -938q-92 -447 -467 -447q-155 0 -281 81q-31 19 -47 36l35 176q145 -145 283 -145zM1146 2159q-62 0 -109 -55t-64 -128q106 4 171 29 q64 25 64 89t-62 65zM1100 1745q89 0 188 76l-26 -123q-87 -56 -198 -57q-110 -1 -168 71t-58 164q0 253 188 345q57 28 137 28q80 -1 122 -45t42 -107t-35 -102q-66 -74 -206 -91q-65 -9 -123 -12q0 -147 137 -147z"/>
    <glyph glyph-name="a.e.precomp" unicode="" d="M352 381q0 -262 186 -262q64 0 134 58q70 57 124 147t87 195t33 207t-53 159q-52 57 -134 57q-83 0 -153 -50t-119 -130q-105 -171 -105 -381zM1106 71q0 -44 -29 -71h-272l53 256q-90 -192 -256 -259q-61 -26 -137 -26t-132 32q-107 61 -146 205q-17 67 -17 138 q0 344 221 578q134 145 330 145q125 0 204 -79q30 -30 48 -75l78 123h106l-186 -919h133q2 -4 2 -48zM904 1708q-62 0 -107 -53q-46 -53 -66 -129q106 4 171 28q64 24 64 90q0 64 -62 64zM858 1294q85 0 189 76l-27 -123q-88 -57 -198 -57t-168 72t-58 164q0 168 89 270 q91 102 224 102q92 0 134 -44t42 -107q0 -161 -240 -194q-65 -9 -124 -11q0 -148 137 -148z"/>
    <glyph glyph-name="a.o.precomp" unicode="" d="M352 381q0 -262 186 -262q64 0 134 58q70 57 124 147t87 195t33 207t-53 159q-52 57 -134 57q-83 0 -153 -50t-119 -130q-105 -171 -105 -381zM1106 71q0 -44 -29 -71h-272l53 256q-90 -192 -256 -259q-61 -26 -137 -26t-132 32q-107 61 -146 205q-17 67 -17 138 q0 344 221 578q134 145 330 145q125 0 204 -79q30 -30 48 -75l78 123h106l-186 -919h133q2 -4 2 -48zM717 1450q0 -160 114 -160q76 0 121 72t45 172q0 102 -33 134q-34 32 -74 32q-79 0 -126 -71t-47 -179zM888 1798q128 0 184 -72t56 -162q0 -169 -82 -271 q-82 -103 -206 -103t-190 68t-64 184q0 152 87 254t215 102z"/>
    <glyph glyph-name="a.v.precomp" unicode="" d="M352 381q0 -262 186 -262q64 0 134 58q70 57 124 147t87 195t33 207t-53 159q-52 57 -134 57q-83 0 -153 -50t-119 -130q-105 -171 -105 -381zM1106 71q0 -44 -29 -71h-272l53 256q-90 -192 -256 -259q-61 -26 -137 -26t-132 32q-107 61 -146 205q-17 67 -17 138 q0 344 221 578q134 145 330 145q125 0 204 -79q30 -30 48 -75l78 123h106l-186 -919h133q2 -4 2 -48zM1110 1629q0 -177 -91 -308t-235 -131q-88 0 -134 39t-46 92t12 102l70 277h-70q-2 6 -2 32t17 52h194l-92 -369q-10 -37 -10 -61q0 -58 78 -59t137 97t59 207 q0 110 -22 185h104q31 -68 31 -155z"/>
    <glyph glyph-name="a.a.precomp" unicode="" d="M352 381q0 -262 186 -262q64 0 134 58q70 57 124 147t87 195t33 207t-53 159q-52 57 -134 57q-83 0 -153 -50t-119 -130q-105 -171 -105 -381zM1106 71q0 -44 -29 -71h-272l53 256q-90 -192 -256 -259q-61 -26 -137 -26t-132 32q-107 61 -146 205q-17 67 -17 138 q0 344 221 578q134 145 330 145q125 0 204 -79q30 -30 48 -75l78 123h106l-186 -919h133q2 -4 2 -48zM858 1702q-76 0 -127 -86t-51 -174t24 -118t64 -30q80 0 131 83t51 204t-92 121zM1096 1273v-24q0 -17 -27 -47h-170l21 84q-72 -96 -172 -96q-193 0 -193 229 q0 149 86 264t217 115q97 0 141 -72l25 58h90l-94 -498h72q4 -6 4 -13z"/>
    <glyph glyph-name="e.a.precomp" unicode="" horiz-adv-x="956" d="M881 811q0 61 -36 100t-121 39t-150 -44q-66 -44 -108 -106q-80 -117 -99 -241h10q260 -2 382 67t122 185zM354 403q0 -143 65 -214t171 -70q182 0 342 141l-37 -194q-155 -95 -341 -95q-187 0 -284 119q-96 119 -96 323t126 405q93 150 252 215q83 34 187 34 q154 0 229 -74q74 -74 74 -167q-1 -183 -167 -285q-166 -101 -502 -101h-19v-37zM891 1588q0 114 -92 114q-76 0 -127 -86t-51 -174q-1 -88 23 -118t65 -30t72 21q68 41 96 157q14 58 14 116zM1036 1273v-25q0 -18 -26 -46h-170l20 84q-72 -96 -172 -96q-192 0 -192 229 q0 152 86 266q86 113 217 113q97 0 141 -72l25 58h90l-94 -498h71q4 -6 4 -13z"/>
    <glyph glyph-name="e.i.precomp" unicode="" horiz-adv-x="956" d="M881 811q0 61 -36 100t-121 39t-150 -44q-66 -44 -108 -106q-80 -117 -99 -241h10q260 -2 382 67t122 185zM354 403q0 -143 65 -214t171 -70q182 0 342 141l-37 -194q-155 -95 -341 -95q-187 0 -284 119q-96 119 -96 323t126 405q93 150 252 215q83 34 187 34 q154 0 229 -74q74 -74 74 -167q-1 -183 -167 -285q-166 -101 -502 -101h-19v-37zM913 1924q0 -32 -20 -56t-56 -23q-36 0 -55 22q-18 23 -18 55t22 56t55 23q34 0 53 -22q19 -23 19 -55zM856 1286q0 -50 -18 -84h-187l99 479h-70q-4 16 -4 34t14 50h191l-97 -479h72z"/>
    <glyph glyph-name="e.v.precomp" unicode="" horiz-adv-x="956" d="M881 811q0 61 -36 100t-121 39t-150 -44q-66 -44 -108 -106q-80 -117 -99 -241h10q260 -2 382 67t122 185zM354 403q0 -143 65 -214t171 -70q182 0 342 141l-37 -194q-155 -95 -341 -95q-187 0 -284 119q-96 119 -96 323t126 405q93 150 252 215q83 34 187 34 q154 0 229 -74q74 -74 74 -167q-1 -183 -167 -285q-166 -101 -502 -101h-19v-37zM1042 1630q0 -181 -91 -310q-91 -130 -234 -130q-88 0 -134 39t-46 92t12 102l69 277h-69q-2 6 -2 32t16 52h195l-92 -369q-10 -37 -11 -61q0 -58 79 -59t136 96q58 97 59 208q1 112 -22 185 h105q30 -66 30 -154z"/>
    <glyph glyph-name="i.e.precomp" unicode="" horiz-adv-x="571" d="M526 74q0 -39 -26 -74h-299l186 920h-131q-2 6 -2 45t27 73h297l-187 -919h133q2 -6 2 -45zM611 1708q-62 0 -107 -53q-46 -53 -66 -129q106 4 171 28t65 90q0 64 -63 64zM565 1294q87 0 189 76l-27 -123q-88 -57 -198 -57q-109 0 -168 72q-58 72 -58 164q0 168 89 270 q91 102 224 102q92 0 134 -44t43 -107q0 -193 -365 -205q0 -148 137 -148z"/>
    <glyph glyph-name="i.v.precomp" unicode="" horiz-adv-x="571" d="M526 74q0 -39 -26 -74h-299l186 920h-131q-2 6 -2 45t27 73h297l-187 -919h133q2 -6 2 -45zM821 1630q0 -181 -91 -310q-91 -130 -234 -130q-88 0 -135 39q-46 39 -46 93t13 101l69 277h-69q-2 6 -2 32t16 52h195l-93 -369q-10 -37 -10 -61q0 -58 79 -59t136 96 q58 97 59 205q1 109 -22 188h105q30 -66 30 -154z"/>
    <glyph glyph-name="i.a.precomp" unicode="" horiz-adv-x="571" d="M526 74q0 -39 -26 -74h-299l186 920h-131q-2 6 -2 45t27 73h297l-187 -919h133q2 -6 2 -45zM453 1294q71 0 122 82q50 82 52 228q0 42 -25 70t-68 28q-75 0 -125 -85q-51 -85 -53 -192q0 -131 97 -131zM772 1273v-25q0 -18 -27 -46h-170l21 84q-72 -96 -172 -96 q-191 0 -193 229q0 149 86 264t218 115q97 0 141 -72l24 58h91l-95 -498h72q4 -6 4 -13z"/>
    <glyph glyph-name="n.e.precomp" unicode="" d="M938 805q0 117 -121 117q-102 0 -219 -159t-170 -405l-74 -358h-166l185 920h-131q-2 6 -2 45t26 73h271l-56 -278q50 108 154 207q104 100 231 100q126 0 186 -65t60 -150t-14 -145l-142 -588h152q2 -6 2 -45t-27 -74h-317l147 635q25 118 25 170zM914 1708 q-62 0 -107 -53q-46 -53 -66 -129q106 4 171 28q64 24 64 90q0 64 -62 64zM868 1294q87 0 189 76l-27 -123q-88 -57 -198 -57q-109 0 -167 72q-59 72 -59 164q-1 168 89 270q91 102 225 102q92 0 134 -44t42 -107q0 -193 -365 -205q0 -148 137 -148z"/>
    <glyph glyph-name="o.a.precomp" unicode="" horiz-adv-x="1079" d="M346 410q0 -301 236 -301q102 0 172 61q129 112 172 324q18 92 18 139t-7 96q-16 111 -100 171q-46 32 -120 32q-130 0 -231 -116t-133 -322q-7 -51 -7 -84zM584 -29q-108 0 -178 29q-72 29 -123 84t-80 134t-29 181q0 103 34 221q73 254 277 381q105 66 231 66t200 -41 q200 -110 200 -360q0 -129 -38 -254q-80 -260 -284 -380q-102 -60 -210 -61zM647 1425q0 -131 96 -131q72 0 123 82q50 82 52 228q0 42 -25 70t-68 28q-73 0 -126 -86q-52 -86 -52 -191zM1063 1273v-25q0 -18 -27 -46h-170l21 84q-72 -96 -172 -96q-193 0 -193 229 q0 149 86 264t217 115q96 0 142 -72l24 58h90l-94 -498h72q4 -6 4 -13z"/>
    <glyph glyph-name="o.e.precomp" unicode="" horiz-adv-x="1079" d="M346 410q0 -301 236 -301q102 0 172 61q129 112 172 324q18 92 18 139t-7 96q-16 111 -100 171q-46 32 -120 32q-130 0 -231 -116t-133 -322q-7 -51 -7 -84zM584 -29q-108 0 -178 29q-72 29 -123 84t-80 134t-29 181q0 103 34 221q73 254 277 381q105 66 231 66t200 -41 q200 -110 200 -360q0 -129 -38 -254q-80 -260 -284 -380q-102 -60 -210 -61zM875 1708q-62 0 -107 -53q-46 -53 -66 -129q106 4 171 28t65 90q0 64 -63 64zM829 1294q87 0 189 76l-27 -123q-88 -57 -198 -57q-109 0 -167 72t-58 164q-1 168 88 270q91 102 225 102 q92 0 134 -44t42 -107q0 -193 -365 -205q0 -148 137 -148z"/>
    <glyph glyph-name="o.i.precomp" unicode="" horiz-adv-x="1079" d="M346 410q0 -301 236 -301q102 0 172 61q129 112 172 324q18 92 18 139t-7 96q-16 111 -100 171q-46 32 -120 32q-130 0 -231 -116t-133 -322q-7 -51 -7 -84zM584 -29q-108 0 -178 29q-72 29 -123 84t-80 134t-29 181q0 103 34 221q73 254 277 381q105 66 231 66t200 -41 q200 -110 200 -360q0 -129 -38 -254q-80 -260 -284 -380q-102 -60 -210 -61zM954 1924q0 -32 -20 -56t-56 -23q-36 0 -55 22q-18 23 -18 55q-1 32 21 56t56 23q34 0 53 -22q19 -23 19 -55zM897 1286q0 -50 -18 -84h-187l99 479h-70q-4 16 -4 34t14 50h191l-97 -479h72z"/>
    <glyph glyph-name="o.u.precomp" unicode="" horiz-adv-x="1079" d="M346 410q0 -301 236 -301q102 0 172 61q129 112 172 324q18 92 18 139t-7 96q-16 111 -100 171q-46 32 -120 32q-130 0 -231 -116t-133 -322q-7 -51 -7 -84zM584 -29q-108 0 -178 29q-72 29 -123 84t-80 134t-29 181q0 103 34 221q73 254 277 381q105 66 231 66t200 -41 q200 -110 200 -360q0 -129 -38 -254q-80 -260 -284 -380q-102 -60 -210 -61zM1040 1288q0 -43 -18 -84h-182l10 76q-57 -90 -154 -90q-70 0 -108 42t-39 95q0 53 12 107l60 268h-80q0 55 18 84h195l-78 -381q-6 -29 -6 -49q0 -68 61 -70q39 0 86 44t70 149l61 307h121 l-100 -498h71z"/>
    <glyph glyph-name="o.v.precomp" unicode="" horiz-adv-x="1079" d="M346 410q0 -301 236 -301q102 0 172 61q129 112 172 324q18 92 18 139t-7 96q-16 111 -100 171q-46 32 -120 32q-130 0 -231 -116t-133 -322q-7 -51 -7 -84zM584 -29q-108 0 -178 29q-72 29 -123 84t-80 134t-29 181q0 103 34 221q73 254 277 381q105 66 231 66t200 -41 q200 -110 200 -360q0 -129 -38 -254q-80 -260 -284 -380q-102 -60 -210 -61zM1071 1629q0 -180 -91 -309q-91 -130 -235 -130q-88 0 -134 39t-46 93t13 101l69 277h-69q-2 6 -2 32t16 52h194l-92 -369q-10 -37 -10 -61q0 -58 79 -59t137 97t58 207q0 110 -22 185h104 q31 -68 31 -155z"/>
    <glyph glyph-name="u.dot" unicode="" d="M1092 75q0 -40 -27 -75h-270l55 279q-68 -127 -129 -185q-128 -123 -255 -123q-128 0 -187 65q-91 100 -46 296l142 588h-152q-2 4 -2 44t27 74h317l-147 -635q-25 -118 -25 -170q0 -118 121 -116q103 0 220 159t169 404l74 358h166l-185 -919h132q2 -4 2 -44zM793 1190 q-41 0 -71 27t-30 75t32 84q32 35 73 35t69 -30q28 -29 27 -73q0 -44 -30 -81t-70 -37z"/>
    <glyph glyph-name="u.lineabove.precomp" unicode="" d="M1092 75q0 -40 -27 -75h-270l55 279q-68 -127 -129 -185q-128 -123 -255 -123q-128 0 -187 65q-91 100 -46 296l142 588h-152q-2 4 -2 44t27 74h317l-147 -635q-25 -118 -25 -170q0 -118 121 -116q103 0 220 159t169 404l74 358h166l-185 -919h132q2 -4 2 -44zM846 1784 h137l-133 -580h-111z"/>
    <glyph glyph-name="u.e.precomp" unicode="" d="M1092 75q0 -40 -27 -75h-270l55 279q-68 -127 -129 -185q-128 -123 -255 -123q-128 0 -187 65q-91 100 -46 296l142 588h-152q-2 4 -2 44t27 74h317l-147 -635q-25 -118 -25 -170q0 -118 121 -116q103 0 220 159t169 404l74 358h166l-185 -919h132q2 -4 2 -44zM888 1708 q-62 0 -109 -54q-46 -54 -64 -128q106 4 171 28q64 24 64 90q0 64 -62 64zM842 1294q86 0 188 76l-26 -123q-88 -57 -198 -57t-168 72t-58 164q0 255 188 344q57 28 137 28t122 -44t42 -107q0 -192 -364 -205q0 -148 137 -148z"/>
    <glyph glyph-name="u.i.precomp" unicode="" d="M1092 75q0 -40 -27 -75h-270l55 279q-68 -127 -129 -185q-128 -123 -255 -123q-128 0 -187 65q-91 100 -46 296l142 588h-152q-2 4 -2 44t27 74h317l-147 -635q-25 -118 -25 -170q0 -118 121 -116q103 0 220 159t169 404l74 358h166l-185 -919h132q2 -4 2 -44zM950 1924 q0 -32 -20 -56t-57 -23q-36 0 -54 22q-18 23 -18 55q-1 32 21 56t56 23q34 0 53 -22q19 -23 19 -55zM893 1286q0 -50 -19 -84h-186l98 479h-69q-4 16 -4 34t14 50h191l-97 -479h72z"/>
    <glyph glyph-name="u.o.precomp" unicode="" d="M1092 75q0 -40 -27 -75h-270l55 279q-68 -127 -129 -185q-128 -123 -255 -123q-128 0 -187 65q-91 100 -46 296l142 588h-152q-2 4 -2 44t27 74h317l-147 -635q-25 -118 -25 -170q0 -118 121 -116q103 0 220 159t169 404l74 358h166l-185 -919h132q2 -4 2 -44zM670 1450 q0 -160 114 -160q76 0 121 72t45 172q0 102 -34 134t-74 32q-79 0 -125 -71q-47 -71 -47 -179zM780 1190q-110 0 -176 68t-65 184q0 152 87 254t215 102t184 -72t56 -162q1 -90 -21 -156q-44 -135 -155 -190q-55 -28 -125 -28z"/>
    <glyph glyph-name="v.acute" unicode="" horiz-adv-x="1058" d="M791 964q0 40 26 74h270q35 -76 35 -230t-50 -308q-102 -316 -343 -459q-117 -70 -248 -70t-194 68t-63 156t12 135l141 590h-133q-2 4 -2 44t26 74h299l-149 -637q-4 -12 -7 -32t-9 -56t-5 -81q0 -46 35 -84t116 -38q82 0 156 64t130 162t87 216t31 220t-18 148h-141 q-2 4 -2 44zM901 1456h213l-303 -278h-143z"/>
    <glyph glyph-name="v.circumflex" unicode="" horiz-adv-x="1058" d="M791 964q0 40 26 74h270q35 -76 35 -230t-50 -308q-102 -316 -343 -459q-117 -70 -248 -70t-194 68t-63 156t12 135l141 590h-133q-2 4 -2 44t26 74h299l-149 -637q-4 -12 -7 -32t-9 -56t-5 -81q0 -46 35 -84t116 -38q82 0 156 64t130 162t87 216t31 220t-18 148h-141 q-2 4 -2 44zM733 1456h176l142 -278h-146l-98 196l-178 -196h-148z"/>
    <glyph glyph-name="v.dotaccent" unicode="" horiz-adv-x="1058" d="M791 964q0 40 26 74h270q35 -76 35 -230t-50 -308q-102 -316 -343 -459q-117 -70 -248 -70t-194 68t-63 156t12 135l141 590h-133q-2 4 -2 44t26 74h299l-149 -637q-4 -12 -7 -32t-9 -56t-5 -81q0 -46 35 -84t116 -38q82 0 156 64t130 162t87 216t31 220t-18 148h-141 q-2 4 -2 44zM765 1190q-40 0 -71 27q-30 27 -30 75t31 84q32 35 73 35t69 -30q27 -29 27 -73t-30 -81t-69 -37z"/>
    <glyph glyph-name="vmacron" unicode="" horiz-adv-x="1058" d="M791 964q0 40 26 74h270q35 -76 35 -230t-50 -308q-102 -316 -343 -459q-117 -70 -248 -70t-194 68t-63 156t12 135l141 590h-133q-2 4 -2 44t26 74h299l-149 -637q-4 -12 -7 -32t-9 -56t-5 -81q0 -46 35 -84t116 -38q82 0 156 64t130 162t87 216t31 220t-18 148h-141 q-2 4 -2 44zM487 1368h629l-26 -133h-629z"/>
    <glyph glyph-name="itwostrok" unicode="" horiz-adv-x="571" d="M532 1255q-42 0 -70 32t-28 82t33 87t75 37t68 -32t27 -80q0 -48 -31 -87t-74 -39zM526 75q0 -40 -26 -75h-299l61 305h-168l23 117h168l41 199h-168l22 116h170l37 183h-131q-2 4 -2 44t27 74h297l-62 -301h150l-23 -116h-151l-39 -199h149l-22 -117h-152l-37 -186h133 q2 -4 2 -44z"/>
    <glyph glyph-name="jtwostrok" unicode="" horiz-adv-x="522" d="M522 1255q-42 0 -70 32t-28 82t33 87t75 37t68 -32q27 -32 27 -80t-31 -87t-74 -39zM37 -231q118 0 160 202l65 334h-170l23 117h172l39 199h-170l22 116h172l37 183h-131q-2 6 -2 45t27 73h297l-62 -301h148l-23 -116h-149l-39 -199h147l-22 -117h-150l-61 -309 q-41 -201 -129 -283t-207 -82q-83 0 -148 31l27 131q65 -24 127 -24z"/>
    <glyph glyph-name="vslashaboveright" unicode="" horiz-adv-x="1120" d="M1122 881q0 -49 -4 -95l182 -69l-63 -119l-135 51q-55 -290 -217 -483t-406 -195q-129 0 -192 68t-63 156t12 135l141 590h-133q-2 4 -2 44t26 74h299l-149 -637q-4 -12 -7 -32t-9 -56t-5 -81q0 -46 35 -84t115 -38q79 0 147 55q132 106 203 333q33 106 45 211l-227 88 l69 121l168 -66q0 166 -18 258h-141q-2 4 -2 43t26 76h270q35 -144 35 -348z"/>
    <glyph glyph-name="vtwoshortslashes" unicode="" horiz-adv-x="1140" d="M397 250q0 -142 155 -140q85 0 159 68q74 66 125 168l-213 82l69 121l197 -78q9 29 26 96l-180 70l70 121l137 -53q10 92 10 204q0 111 -18 201h-141q-2 4 -2 43t26 76h270q35 -144 35 -299t-22 -287l221 -86l-64 -119l-190 72q-21 -67 -35 -94l176 -68l-63 -119l-170 64 q-82 -141 -206 -231q-123 -90 -271 -91q-148 0 -211 68t-63 153t12 138l141 590h-133q-2 4 -2 44t26 74h299l-149 -637q-21 -88 -21 -151z"/>
    <glyph glyph-name="xslashula" unicode="" horiz-adv-x="1105" d="M59 45q0 39 27 74h92l402 409l-136 322l-196 -137l-66 106l211 148l-59 143h-150q-2 6 -2 45t27 74h242l71 -172l183 129l67 -107l-201 -141l125 -291l267 273h-113q-2 6 -2 45t26 73h363q2 -6 2 -45t-27 -73h-90l-379 -388l177 -413h165q2 -6 2 -45t-26 -74h-258 l-176 414l-289 -295h115q2 -6 2 -45t-27 -74h-367q-2 6 -2 45z"/>
    <glyph glyph-name="xslashlra" unicode="" horiz-adv-x="1146" d="M1167 -118q0 -38 -26 -75h-258l-90 213l-185 -129l-65 107l198 139l-114 277l-289 -295h115q2 -6 2 -45t-27 -74h-367q-2 6 -2 45t27 74h92l402 409l-166 392h-150q-2 6 -2 45t27 73h241l166 -391l267 273h-113q-2 6 -2 45t26 73h363q2 -6 2 -45t-27 -73h-90l-379 -388 l127 -303l195 136l68 -107l-211 -147l77 -185h166q2 -6 2 -44z"/>
    <glyph glyph-name="xtwoshortslashesbelow" unicode="" horiz-adv-x="1167" d="M1167 -118q0 -38 -26 -75h-258l-66 154l-127 -90l-65 106l143 101l-41 98l-160 -110l-65 106l174 123l-49 119l-289 -295h115q2 -6 2 -45t-27 -74h-367q-2 6 -2 45t27 74h92l402 409l-166 392h-150q-2 6 -2 45t27 73h241l166 -391l267 273h-113q-2 6 -2 45t26 73h363 q2 -6 2 -45t-27 -73h-90l-379 -388l62 -147l219 154l68 -107l-236 -166l41 -98l250 176l67 -106l-268 -187l53 -125h166q2 -6 2 -44z"/>
    <glyph glyph-name="a.i.precomp" unicode="" d="M352 381q0 -262 186 -262q64 0 134 58q70 57 124 147t87 195t33 207t-53 159q-52 57 -134 57q-83 0 -153 -50t-119 -130q-105 -171 -105 -381zM1106 71q0 -44 -29 -71h-272l53 256q-90 -192 -256 -259q-61 -26 -137 -26t-132 32q-107 61 -146 205q-17 67 -17 138 q0 344 221 578q134 145 330 145q125 0 204 -79q30 -30 48 -75l78 123h106l-186 -919h133q2 -4 2 -48zM888 1845q-36 0 -54 22q-18 23 -18 55t21 56t55 23q34 0 53 -22q19 -23 19 -55t-20 -56t-56 -23zM907 1286q0 -50 -18 -84h-187l99 479h-70q-4 16 -4 34t14 50h191 l-96 -479h71z"/>
    <glyph glyph-name="a.u.precomp" unicode="" d="M352 381q0 -262 186 -262q64 0 134 58q70 57 124 147t87 195t33 207t-53 159q-52 57 -134 57q-83 0 -153 -50t-119 -130q-105 -171 -105 -381zM1106 71q0 -44 -29 -71h-272l53 256q-90 -192 -256 -259q-61 -26 -137 -26t-132 32q-107 61 -146 205q-17 67 -17 138 q0 344 221 578q134 145 330 145q125 0 204 -79q30 -30 48 -75l78 123h106l-186 -919h133q2 -4 2 -48zM1049 1288q0 -40 -19 -84h-182l10 76q-57 -90 -153 -90q-70 0 -109 42t-39 95t12 107l60 268h-80q0 55 18 84h195l-78 -381q-6 -29 -6 -49q0 -68 61 -70q39 0 86 44 t70 149l61 307h121l-100 -498h72z"/>
    </font>
</defs>
</svg>
